<?xml version="1.0" encoding="UTF-8" standalone="no"?>
<!-- Contains "Sun Behind Small Cloud" from Noto Emoji | OFL-1.1 License | https://github.com/googlefonts/noto-emoji/blob/main/svg/emoji_u1f324.svg -->

<!-- Created with Inkscape (http://www.inkscape.org/) -->

<svg
   width="1200"
   height="1200"
   viewBox="0 0 317.5 317.5"
   version="1.1"
   id="svg1"
   sodipodi:docname="og-square.svg"
   inkscape:version="1.4 (e7c3feb1, 2024-10-09)"
   xmlns:inkscape="http://www.inkscape.org/namespaces/inkscape"
   xmlns:sodipodi="http://sodipodi.sourceforge.net/DTD/sodipodi-0.dtd"
   xmlns:xlink="http://www.w3.org/1999/xlink"
   xmlns="http://www.w3.org/2000/svg"
   xmlns:svg="http://www.w3.org/2000/svg">
  <sodipodi:namedview
     id="namedview1"
     pagecolor="#ffffff"
     bordercolor="#000000"
     borderopacity="0.25"
     inkscape:showpageshadow="2"
     inkscape:pageopacity="0.0"
     inkscape:pagecheckerboard="0"
     inkscape:deskcolor="#d1d1d1"
     inkscape:zoom="0.34524575"
     inkscape:cx="469.23098"
     inkscape:cy="670.53686"
     inkscape:window-width="1480"
     inkscape:window-height="662"
     inkscape:window-x="0"
     inkscape:window-y="27"
     inkscape:window-maximized="0"
     inkscape:current-layer="layer1" />
  <defs
     id="defs1">
    <rect
       x="275.24686"
       y="248.7002"
       width="1015.4699"
       height="198.83507"
       id="rect3" />
    <linearGradient
       id="linearGradient1">
      <stop
         style="stop-color:#fabb02;stop-opacity:1;"
         offset="0"
         id="stop1" />
      <stop
         style="stop-color:#ffe645;stop-opacity:1;"
         offset="1"
         id="stop2" />
    </linearGradient>
    <linearGradient
       xlink:href="#linearGradient1"
       id="linearGradient2"
       x1="46.496815"
       y1="195.59692"
       x2="271.0032"
       y2="-28.909466"
       gradientUnits="userSpaceOnUse"
       gradientTransform="scale(0.525,1)" />
    <rect
       x="275.24686"
       y="248.7002"
       width="679.82898"
       height="84.678574"
       id="rect4" />
    <rect
       x="275.24686"
       y="248.7002"
       width="1068.4237"
       height="67.722618"
       id="rect5" />
  </defs>
  <g
     id="layer1"
     transform="scale(1.9047619)">
    <rect
       style="fill:url(#linearGradient2);stroke-width:0.389744;stroke-linejoin:round;paint-order:markers fill stroke"
       id="rect1"
       width="166.6875"
       height="166.6875"
       x="0"
       y="0" />
    <text
       xml:space="preserve"
       style="font-style:normal;font-variant:normal;font-weight:normal;font-stretch:normal;font-size:70.5556px;line-height:1;font-family:'Noto Color Emoji';-inkscape-font-specification:'Noto Color Emoji';text-align:center;letter-spacing:0px;word-spacing:0px;writing-mode:lr-tb;direction:ltr;text-anchor:middle;fill:#000000;stroke-width:0.537898;stroke-linejoin:round;paint-order:markers fill stroke"
       x="89.164581"
       y="133.87917"
       id="text1"><tspan
         id="tspan1"
         style="font-style:normal;font-variant:normal;font-weight:normal;font-stretch:normal;font-family:'Noto Color Emoji';-inkscape-font-specification:'Noto Color Emoji';stroke-width:0.537898"
         x="89.164581"
         y="133.87917" /></text>
    <g
       id="g7"
       transform="matrix(1.7612924,0,0,1.7612924,-161.02707,22.905034)">
      <path
         d="m 130.26547,50.531545 c -8.50116,10.927118 -8.35724,30.355396 2.5082,39.977025 12.3457,10.92711 29.7078,10.81404 40.63493,0.760685 13.10637,-12.047587 12.34569,-32.113202 0.77096,-43.472063 -11.63642,-11.420544 -32.44215,-12.016753 -43.91409,2.734353 z"
         fill="#fcc11a"
         id="path1"
         style="stroke-width:1.02795" />
      <path
         d="m 143.92695,46.779517 c -3.36141,-1.490529 -7.04147,2.5596 -8.64508,5.335072 -1.60359,2.775463 -3.09413,8.223606 0.31867,9.611342 3.4128,1.387736 5.8696,-0.955993 8.32641,-5.016399 2.4568,-4.060407 3.84453,-8.223615 0,-9.930015 z"
         fill="#fee269"
         id="path2"
         style="stroke-width:1.02795" />
      <path
         d="m 152.68509,31.54528 c -0.81208,1.531647 -0.53453,2.693233 1.07935,3.083858 1.61388,0.380338 11.70836,2.025064 12.55129,2.076461 1.23353,0.07196 1.69612,-0.842923 1.54192,-1.922272 -0.15419,-1.079349 -2.62127,-16.179954 -2.84742,-17.55741 -0.22615,-1.377454 -1.69612,-2.775467 -3.08385,-0.925156 -1.38774,1.840034 -8.62452,14.093214 -9.24129,15.244519 z"
         fill="#ffa722"
         id="path3"
         style="stroke-width:1.02795" />
      <path
         d="m 177.19146,41.948147 c -1.52137,0.657893 -1.36718,1.624163 -0.39063,2.754909 0.97656,1.130745 7.77131,9.374915 8.36753,9.930015 0.60649,0.555091 1.54192,0.606487 2.19982,-0.400902 0.65788,-1.007398 8.75814,-15.450109 9.36463,-16.364992 0.99712,-1.500806 0.15419,-2.878256 -1.56248,-2.23065 -1.29523,0.503695 -17.02288,5.900441 -17.97887,6.31162 z"
         fill="#ffa722"
         id="path4"
         style="stroke-width:1.02795" />
      <path
         d="m 178.17829,93.150409 c 1.22326,-0.657893 2.31289,-0.154198 2.62128,1.233535 0.30838,1.38774 3.70062,15.552896 4.23515,18.174176 0.26727,1.31578 -1.23353,2.38485 -2.46708,1.61388 -1.23354,-0.77096 -14.61747,-10.10476 -15.48095,-10.85515 -1.23354,-1.07936 -0.38034,-2.19983 0.22615,-2.77548 1.23354,-1.151306 9.70386,-6.774186 10.86545,-7.390961 z"
         fill="#ffa722"
         id="path5"
         style="stroke-width:1.02795" />
      <path
         d="m 140.90477,100.932 c -1.55221,-0.14392 -2.00451,1.23354 -1.76807,2.46708 0.22614,1.23353 2.53903,16.8584 2.69322,18.01998 0.22615,1.69612 2.00451,2.38485 3.15581,0.68873 1.15131,-1.69613 9.06654,-14.37076 9.70387,-15.5529 1.1513,-2.1587 0.30838,-2.62128 -0.84293,-3.15581 -1.16158,-0.54482 -11.32801,-2.3129 -12.9419,-2.46708 z"
         fill="#ffa722"
         id="path6"
         style="stroke-width:1.02795" />
      <path
         d="m 118.72157,82.983967 c 1.07935,-1.768075 2.46709,-1.305499 3.4642,0.380338 0.68874,1.161587 6.46582,8.932895 7.01063,9.775817 0.53454,0.842922 0.77097,2.467082 -0.92516,2.847422 -1.69611,0.38035 -15.48094,4.00902 -17.63964,4.389356 -2.1587,0.38035 -3.39224,-1.305496 -2.00451,-3.155806 0.81208,-1.06907 9.488,-13.229738 10.09448,-14.237127 z"
         fill="#ffa722"
         id="path7"
         style="stroke-width:1.02795" />
      <path
         d="m 115.79191,69.589763 c 1.97367,0.873755 2.89883,0.555091 3.31001,-0.842923 0.53454,-1.85032 2.1587,-10.320631 2.23065,-12.242902 0.0514,-1.254102 -0.46257,-2.467086 -2.38484,-2.158699 -1.92227,0.308387 -15.77905,2.230659 -17.54713,2.847423 -2.055904,0.719567 -1.91199,2.981066 -0.53454,3.700624 1.60361,0.842923 13.5484,8.079703 14.92585,8.696477 z"
         fill="#ffa722"
         id="path8"
         style="stroke-width:1.02795" />
      <path
         d="m 139.74318,37.240135 c 1.11019,-0.884042 0.77097,-2.158699 -0.22615,-2.847433 -0.99711,-0.688724 -13.37364,-9.64218 -14.93612,-10.855163 -1.38774,-1.079349 -3.08386,-0.688727 -2.62129,1.768076 0.32895,1.768076 4.27628,17.259306 4.54355,18.328369 0.30839,1.233547 1.23355,1.85032 2.31289,1.079349 1.07935,-0.770962 9.77582,-6.548047 10.92712,-7.473198 z"
         fill="#ffa722"
         id="path9"
         style="stroke-width:1.02795" />
      <path
         d="m 211.76146,74.390291 c 0.0102,-0.66817 2.27177,-23.725112 -17.97887,-27.991113 -19.57219,-4.132366 -24.70168,14.206285 -24.70168,14.206285 0,0 -6.93867,-0.853192 -12.02703,3.011899 -5.08836,3.875376 -5.37618,10.258957 -5.37618,10.258957 0,0 -8.1825,-0.308387 -12.03731,4.245437 -3.48476,4.111803 -2.32317,7.822713 -2.32317,7.822713 l 22.58409,5.725688 57.08213,-1.531647 6.54806,-3.9679 c 0,0 0.37006,-5.191153 -3.0119,-8.480589 -4.6669,-4.522991 -8.75814,-3.29973 -8.75814,-3.29973 z"
         fill="#e2ebee"
         id="path10"
         style="stroke-width:1.02795" />
      <path
         d="m 158.75,83.34375 c 0,0 -6.26022,2.754908 -14.01097,2.076461 -4.60522,-0.400902 -7.54516,-1.768074 -7.54516,-1.768074 0,0 -0.79153,5.324786 3.39224,7.94606 3.13524,1.963391 6.12659,2.261487 11.69808,2.240937 5.5715,-0.0206 56.27006,-0.12336 59.91929,-0.16448 3.6595,-0.041 7.13398,-0.688721 8.91233,-2.343716 2.24094,-2.086747 2.40541,-5.160328 2.40541,-5.160328 0,0 -3.5156,1.048516 -8.40864,0.411188 -4.87249,-0.637329 -7.70963,-2.816591 -7.70963,-2.816591 0,0 -3.50532,2.991344 -21.6281,3.320285 C 166.22321,87.445275 158.75,83.34375 158.75,83.34375 Z"
         fill="#bacdd2"
         id="path11"
         style="stroke-width:1.02795" />
    </g>
    <path
       style="font-weight:800;font-size:21.1667px;line-height:1;font-family:Avenir;-inkscape-font-specification:'Avenir Ultra-Bold';letter-spacing:0px;word-spacing:0px;stroke-width:0.378274;stroke-linejoin:round;paint-order:markers fill stroke"
       d="m 15.317747,20.503073 h 1.875554 v 4.197665 h -1.875554 z m -3.4534,0 h 1.875554 v 4.197665 h -1.875554 z m 7.606423,0 h 3.483174 q 1.265255,0 2.396541,0.28282 1.146171,0.282822 1.994637,0.92289 0.848464,0.625185 1.339681,1.637389 0.506101,1.012203 0.506101,2.456081 0,1.28014 -0.491216,2.262573 -0.476332,0.967548 -1.295025,1.637388 -0.818694,0.654955 -1.890439,0.997318 -1.071746,0.342363 -2.247688,0.342363 H 19.47077 Z m 2.322118,8.395333 H 22.9986 q 0.803809,0 1.488535,-0.163739 0.699611,-0.163739 1.205713,-0.535872 0.506102,-0.38702 0.788923,-0.997318 0.297707,-0.625186 0.297707,-1.518306 0,-0.774038 -0.297707,-1.339681 -0.282821,-0.580528 -0.774038,-0.952662 -0.491215,-0.372134 -1.161057,-0.550758 -0.654955,-0.19351 -1.384337,-0.19351 h -1.369451 z m 15.540311,0.89312 q -0.535873,0.684727 -1.354566,1.05686 -0.818694,0.372134 -1.69693,0.372134 -0.833579,0 -1.577846,-0.267937 -0.729382,-0.267935 -1.28014,-0.759153 -0.535872,-0.5061 -0.848465,-1.205712 -0.312592,-0.699612 -0.312592,-1.562962 0,-0.86335 0.312592,-1.56296 0.312593,-0.699612 0.848465,-1.190829 0.550758,-0.506101 1.28014,-0.774038 0.744267,-0.267936 1.577846,-0.267936 0.774038,0 1.399224,0.267936 0.640069,0.267937 1.071744,0.774038 0.446561,0.491217 0.684726,1.190829 0.238166,0.69961 0.238166,1.56296 v 0.699611 h -5.180101 q 0.133968,0.640071 0.580528,1.027089 0.446561,0.372134 1.101516,0.372134 0.550758,0 0.922892,-0.238165 0.387019,-0.253051 0.66984,-0.64007 z M 35.44276,26.606063 q 0.01489,-0.565643 -0.372132,-0.967549 -0.387019,-0.401904 -0.997319,-0.401904 -0.372134,0 -0.654955,0.119083 -0.282822,0.119083 -0.491217,0.312593 -0.19351,0.178624 -0.312592,0.431675 -0.1042,0.238165 -0.119083,0.506102 z m 3.617131,-6.817487 h 2.232802 v 11.253319 h -2.232802 z m 3.870195,4.019041 h 2.232802 v 7.234278 h -2.232802 z m -0.178624,-2.277458 q 0,-0.535871 0.372134,-0.908005 0.387018,-0.387018 0.922891,-0.387018 0.535873,0 0.908007,0.387018 0.387018,0.372134 0.387018,0.908005 0,0.535873 -0.387018,0.922892 -0.372134,0.372134 -0.908007,0.372134 -0.535873,0 -0.922891,-0.372134 -0.372134,-0.387019 -0.372134,-0.922892 z m 3.259893,2.277458 h 2.411426 l 1.830898,4.912165 h 0.02976 l 1.69693,-4.912165 h 2.247686 l -2.857983,7.234278 h -2.366769 z m 15.882661,5.983909 q -0.535873,0.684727 -1.354566,1.05686 -0.818694,0.372134 -1.69693,0.372134 -0.83358,0 -1.577847,-0.267937 -0.729382,-0.267935 -1.28014,-0.759153 -0.535872,-0.5061 -0.848464,-1.205712 -0.312592,-0.699612 -0.312592,-1.562962 0,-0.86335 0.312592,-1.56296 0.312592,-0.699612 0.848464,-1.190829 0.550758,-0.506101 1.28014,-0.774038 0.744267,-0.267936 1.577847,-0.267936 0.774038,0 1.399222,0.267936 0.640071,0.267937 1.071745,0.774038 0.44656,0.491217 0.684725,1.190829 0.238167,0.69961 0.238167,1.56296 v 0.699611 h -5.1801 q 0.133967,0.640071 0.580528,1.027089 0.44656,0.372134 1.101515,0.372134 0.550758,0 0.922891,-0.238165 0.387019,-0.253051 0.669842,-0.64007 z m -1.89044,-3.185463 q 0.01489,-0.565643 -0.372133,-0.967549 -0.387019,-0.401904 -0.997318,-0.401904 -0.372134,0 -0.654956,0.119083 -0.282821,0.119083 -0.491216,0.312593 -0.193509,0.178624 -0.312593,0.431675 -0.1042,0.238165 -0.119081,0.506102 z m 3.587361,-2.798446 h 2.232801 v 1.161058 h 0.02976 q 0.357248,-0.669841 0.848465,-0.997319 0.491217,-0.342363 1.235483,-0.342363 0.193509,0 0.387019,0.01489 0.193509,0.01489 0.357248,0.05955 v 2.039291 q -0.238165,-0.07442 -0.47633,-0.1042 -0.22328,-0.04466 -0.476332,-0.04466 -0.640069,0 -1.012203,0.178624 -0.372134,0.178624 -0.580529,0.506102 -0.193509,0.312593 -0.25305,0.759153 -0.05954,0.44656 -0.05954,0.982432 v 3.021726 h -2.232796 z m 9.705233,0 h 2.411422 l 1.830902,4.912165 h 0.02975 l 1.696933,-4.912165 h 2.247686 l -2.857993,7.234278 h -2.366767 z m 13.575428,6.326273 h -0.02975 q -0.372135,0.580528 -0.997319,0.833578 -0.610303,0.253052 -1.295023,0.253052 -0.506104,0 -0.982439,-0.148854 -0.461439,-0.133968 -0.818687,-0.416789 -0.357255,-0.282822 -0.565648,-0.699612 -0.208391,-0.416789 -0.208391,-0.967547 0,-0.625185 0.223279,-1.056859 0.23816,-0.431676 0.625184,-0.714497 0.401904,-0.282822 0.908007,-0.431675 0.506102,-0.163739 1.041974,-0.238166 0.550752,-0.07443 1.086632,-0.08931 0.550752,-0.01489 1.012199,-0.01489 0,-0.595414 -0.431672,-0.937776 -0.416791,-0.357248 -0.997318,-0.357248 -0.55076,0 -1.012207,0.238165 -0.44656,0.22328 -0.803808,0.625184 L 82.43578,24.790048 q 0.625191,-0.580528 1.458767,-0.86335 0.833583,-0.297706 1.726703,-0.297706 0.98243,0 1.607614,0.25305 0.640071,0.238165 1.012207,0.714497 0.38702,0.476331 0.53587,1.175942 0.14886,0.684726 0.14886,1.592731 v 3.676681 h -2.054185 z m -0.550759,-2.262574 q -0.253048,0 -0.640065,0.02976 -0.372135,0.01489 -0.729383,0.119083 -0.342367,0.1042 -0.595415,0.312591 -0.238168,0.208396 -0.238168,0.58053 0,0.401904 0.342368,0.595413 0.342359,0.19351 0.714495,0.19351 0.327479,0 0.625183,-0.08931 0.312592,-0.08931 0.550759,-0.25305 0.238161,-0.163739 0.372129,-0.416789 0.148856,-0.253052 0.148856,-0.595414 v -0.476332 z m 4.033942,-8.08274 h 2.2328 v 11.253319 h -2.2328 z m 10.806779,11.253319 h -2.143486 v -0.982432 h -0.0298 q -0.119093,0.208395 -0.312606,0.41679 -0.17862,0.208395 -0.446563,0.372133 -0.267943,0.163739 -0.610304,0.267936 -0.34236,0.1042 -0.74427,0.1042 -0.84846,0 -1.38433,-0.253051 -0.52098,-0.267939 -0.8187,-0.729384 -0.28281,-0.461446 -0.38701,-1.086631 -0.0893,-0.625184 -0.0893,-1.354566 v -3.989273 h 2.2328 v 3.542712 q 0,0.312593 0.0149,0.654956 0.0298,0.327478 0.13397,0.610299 0.11908,0.282822 0.34235,0.461445 0.23817,0.178624 0.66985,0.178624 0.431671,0 0.699614,-0.148852 0.267943,-0.163739 0.401903,-0.416791 0.148863,-0.267936 0.193513,-0.595413 0.0447,-0.327477 0.0447,-0.684725 v -3.602255 h 2.232809 z m 8.42508,-1.250369 q -0.53587,0.684727 -1.35456,1.05686 -0.81868,0.372134 -1.69691,0.372134 -0.83358,0 -1.57785,-0.267937 -0.72938,-0.267935 -1.28014,-0.759153 -0.53587,-0.5061 -0.84846,-1.205712 -0.31259,-0.699612 -0.31259,-1.562962 0,-0.86335 0.31259,-1.56296 0.31259,-0.699612 0.84846,-1.190829 0.55076,-0.506101 1.28014,-0.774038 0.74427,-0.267936 1.57785,-0.267936 0.77404,0 1.39921,0.267936 0.64007,0.267937 1.07173,0.774038 0.44655,0.491217 0.68473,1.190829 0.23816,0.69961 0.23816,1.56296 v 0.699611 h -5.18008 q 0.13397,0.640071 0.58054,1.027089 0.44656,0.372134 1.10151,0.372134 0.55076,0 0.92289,-0.238165 0.38701,-0.253051 0.66983,-0.64007 z m -1.89043,-3.185463 q 0.0149,-0.565643 -0.37212,-0.967549 -0.38702,-0.401904 -0.99732,-0.401904 -0.37213,0 -0.65495,0.119083 -0.28282,0.119083 -0.49122,0.312593 -0.19351,0.178624 -0.31259,0.431675 -0.1042,0.238165 -0.11909,0.506102 z m 15.58489,4.435832 h -2.05417 v -0.952661 h -0.0298 q -0.13397,0.193509 -0.35725,0.401903 -0.20838,0.193511 -0.5061,0.357249 -0.28282,0.163739 -0.64006,0.267936 -0.34237,0.1042 -0.71451,0.1042 -0.8038,0 -1.45875,-0.267936 -0.65497,-0.282822 -1.13129,-0.774038 -0.46145,-0.506102 -0.7145,-1.190828 -0.25305,-0.684725 -0.25305,-1.503419 0,-0.759153 0.22327,-1.443879 0.23818,-0.699612 0.65497,-1.235485 0.43167,-0.535871 1.04197,-0.848464 0.61029,-0.327478 1.38434,-0.327478 0.6996,0 1.29501,0.22328 0.61032,0.208396 0.99733,0.729382 h 0.0298 v -4.793081 h 2.2328 z m -2.05417,-3.617139 q 0,-0.818693 -0.47633,-1.324795 -0.46145,-0.506102 -1.30991,-0.506102 -0.84847,0 -1.32479,0.506102 -0.46145,0.506102 -0.46145,1.324795 0,0.818694 0.46145,1.324797 0.47632,0.5061 1.32479,0.5061 0.84846,0 1.30991,-0.5061 0.47633,-0.506103 0.47633,-1.324797 z m 8.38043,2.709134 h -0.0298 q -0.37214,0.580528 -0.99733,0.833578 -0.61029,0.253052 -1.29501,0.253052 -0.50611,0 -0.98244,-0.148854 -0.46145,-0.133968 -0.81869,-0.416789 -0.35725,-0.282822 -0.56565,-0.699612 -0.20839,-0.416789 -0.20839,-0.967547 0,-0.625185 0.22328,-1.056859 0.23816,-0.431676 0.62519,-0.714497 0.4019,-0.282822 0.908,-0.431675 0.5061,-0.163739 1.04197,-0.238166 0.55077,-0.07443 1.08663,-0.08931 0.55076,-0.01489 1.0122,-0.01489 0,-0.595414 -0.43166,-0.937776 -0.4168,-0.357248 -0.99733,-0.357248 -0.55076,0 -1.0122,0.238165 -0.44656,0.22328 -0.80381,0.625184 l -1.19083,-1.220598 q 0.62519,-0.580528 1.45876,-0.86335 0.83359,-0.297706 1.72671,-0.297706 0.98242,0 1.60761,0.25305 0.64007,0.238165 1.01221,0.714497 0.38702,0.476331 0.53587,1.175942 0.14886,0.684726 0.14886,1.592731 v 3.676681 h -2.05419 z m -0.55075,-2.262574 q -0.25305,0 -0.64007,0.02976 -0.37213,0.01489 -0.72938,0.119083 -0.34237,0.1042 -0.59542,0.312591 -0.23817,0.208396 -0.23817,0.58053 0,0.401904 0.34237,0.595413 0.34237,0.19351 0.71449,0.19351 0.32749,0 0.62519,-0.08931 0.31259,-0.08931 0.55076,-0.25305 0.23816,-0.163739 0.37214,-0.416789 0.14884,-0.253052 0.14884,-0.595414 v -0.476332 z m 4.03394,-4.063699 h 2.2328 v 7.234278 h -2.2328 z m -0.17863,-2.277458 q 0,-0.535871 0.37214,-0.908005 0.38701,-0.387018 0.92289,-0.387018 0.53587,0 0.90801,0.387018 0.38701,0.372134 0.38701,0.908005 0,0.535873 -0.38701,0.922892 -0.37214,0.372134 -0.90801,0.372134 -0.53588,0 -0.92289,-0.372134 -0.37214,-0.387019 -0.37214,-0.922892 z m 4.04883,-1.741583 h 2.2328 v 11.253319 h -2.2328 z m 8.00832,12.429262 q -0.22328,0.580528 -0.43168,1.027088 -0.2084,0.446561 -0.53587,0.744268 -0.31259,0.312593 -0.80382,0.461446 -0.49121,0.163738 -1.29501,0.163738 -0.86335,0 -1.66716,-0.267936 l 0.2977,-1.830898 q 0.50611,0.223281 1.04197,0.223281 0.37214,0 0.6103,-0.08931 0.23817,-0.07443 0.38703,-0.238166 0.16373,-0.148853 0.26793,-0.372134 0.10419,-0.223279 0.22328,-0.520987 l 0.16374,-0.416789 -3.17059,-7.29382 h 2.41144 l 1.86066,4.778197 h 0.0297 l 1.59273,-4.778197 h 2.29235 z m 7.97853,-11.714765 h 1.87555 v 4.197665 h -1.87555 z m -3.4534,0 h 1.87556 v 4.197665 h -1.87556 z"
       id="text2"
       aria-label="&quot;Deliver value daily&quot;" />
  </g>
</svg>
