<?xml version="1.0" encoding="UTF-8" standalone="no"?>
<!-- Contains "Sun Behind Small Cloud" from Noto Emoji | OFL-1.1 License | https://github.com/googlefonts/noto-emoji/blob/main/svg/emoji_u1f324.svg -->

<!-- Created with Inkscape (http://www.inkscape.org/) -->

<svg
   width="1200"
   height="630"
   viewBox="0 0 317.5 166.6875"
   version="1.1"
   id="svg1"
   inkscape:version="1.4 (e7c3feb1, 2024-10-09)"
   sodipodi:docname="og.svg"
   inkscape:export-filename="og.png"
   inkscape:export-xdpi="96"
   inkscape:export-ydpi="96"
   xmlns:inkscape="http://www.inkscape.org/namespaces/inkscape"
   xmlns:sodipodi="http://sodipodi.sourceforge.net/DTD/sodipodi-0.dtd"
   xmlns:xlink="http://www.w3.org/1999/xlink"
   xmlns="http://www.w3.org/2000/svg"
   xmlns:svg="http://www.w3.org/2000/svg">
  <sodipodi:namedview
     id="namedview1"
     pagecolor="#ffffff"
     bordercolor="#000000"
     borderopacity="0.25"
     inkscape:showpageshadow="2"
     inkscape:pageopacity="0.0"
     inkscape:pagecheckerboard="true"
     inkscape:deskcolor="#d1d1d1"
     inkscape:document-units="mm"
     inkscape:zoom="0.37886221"
     inkscape:cx="624.23751"
     inkscape:cy="166.28737"
     inkscape:window-width="1344"
     inkscape:window-height="643"
     inkscape:window-x="51"
     inkscape:window-y="25"
     inkscape:window-maximized="0"
     inkscape:current-layer="layer1"
     showgrid="false"
     showguides="true" />
  <defs
     id="defs1">
    <rect
       x="275.24686"
       y="248.7002"
       width="1015.4699"
       height="198.83507"
       id="rect3" />
    <linearGradient
       id="linearGradient1"
       inkscape:collect="always">
      <stop
         style="stop-color:#fabb02;stop-opacity:1;"
         offset="0"
         id="stop1" />
      <stop
         style="stop-color:#ffe645;stop-opacity:1;"
         offset="1"
         id="stop2" />
    </linearGradient>
    <linearGradient
       inkscape:collect="always"
       xlink:href="#linearGradient1"
       id="linearGradient2"
       x1="46.496815"
       y1="195.59692"
       x2="271.0032"
       y2="-28.909466"
       gradientUnits="userSpaceOnUse" />
    <rect
       x="275.24686"
       y="248.7002"
       width="679.82898"
       height="84.678576"
       id="rect4" />
    <rect
       x="275.24686"
       y="248.7002"
       width="1068.4237"
       height="67.72262"
       id="rect5" />
  </defs>
  <g
     inkscape:label="Layer 1"
     inkscape:groupmode="layer"
     id="layer1">
    <rect
       style="fill:url(#linearGradient2);stroke-width:0.537898;stroke-linejoin:round;paint-order:markers fill stroke"
       id="rect1"
       width="317.5"
       height="166.6875"
       x="0"
       y="0" />
    <text
       xml:space="preserve"
       style="font-style:normal;font-variant:normal;font-weight:normal;font-stretch:normal;font-size:70.5556px;line-height:1;font-family:'Noto Color Emoji';-inkscape-font-specification:'Noto Color Emoji';text-align:center;letter-spacing:0px;word-spacing:0px;writing-mode:lr-tb;direction:ltr;text-anchor:middle;fill:#000000;stroke-width:0.537898;stroke-linejoin:round;paint-order:markers fill stroke"
       x="89.164581"
       y="133.87917"
       id="text1"><tspan
         sodipodi:role="line"
         id="tspan1"
         style="font-style:normal;font-variant:normal;font-weight:normal;font-stretch:normal;font-family:'Noto Color Emoji';-inkscape-font-specification:'Noto Color Emoji';stroke-width:0.537898"
         x="89.164581"
         y="133.87917" /></text>
    <g
       id="g7"
       transform="matrix(4.3176791,0,0,4.3176791,-439.31398,-133.61259)">
      <path
         d="m 130.26547,50.531545 c -8.50116,10.927118 -8.35724,30.355396 2.5082,39.977025 12.3457,10.92711 29.7078,10.81404 40.63493,0.760685 13.10637,-12.047587 12.34569,-32.113202 0.77096,-43.472063 -11.63642,-11.420544 -32.44215,-12.016753 -43.91409,2.734353 z"
         fill="#fcc11a"
         id="path1"
         style="stroke-width:1.02795" />
      <path
         d="m 143.92695,46.779517 c -3.36141,-1.490529 -7.04147,2.5596 -8.64508,5.335072 -1.60359,2.775463 -3.09413,8.223606 0.31867,9.611342 3.4128,1.387736 5.8696,-0.955993 8.32641,-5.016399 2.4568,-4.060407 3.84453,-8.223615 0,-9.930015 z"
         fill="#fee269"
         id="path2"
         style="stroke-width:1.02795" />
      <path
         d="m 152.68509,31.54528 c -0.81208,1.531647 -0.53453,2.693233 1.07935,3.083858 1.61388,0.380338 11.70836,2.025064 12.55129,2.076461 1.23353,0.07196 1.69612,-0.842923 1.54192,-1.922272 -0.15419,-1.079349 -2.62127,-16.179954 -2.84742,-17.55741 -0.22615,-1.377454 -1.69612,-2.775467 -3.08385,-0.925156 -1.38774,1.840034 -8.62452,14.093214 -9.24129,15.244519 z"
         fill="#ffa722"
         id="path3"
         style="stroke-width:1.02795" />
      <path
         d="m 177.19146,41.948147 c -1.52137,0.657893 -1.36718,1.624163 -0.39063,2.754909 0.97656,1.130745 7.77131,9.374915 8.36753,9.930015 0.60649,0.555091 1.54192,0.606487 2.19982,-0.400902 0.65788,-1.007398 8.75814,-15.450109 9.36463,-16.364992 0.99712,-1.500806 0.15419,-2.878256 -1.56248,-2.23065 -1.29523,0.503695 -17.02288,5.900441 -17.97887,6.31162 z"
         fill="#ffa722"
         id="path4"
         style="stroke-width:1.02795" />
      <path
         d="m 178.17829,93.150409 c 1.22326,-0.657893 2.31289,-0.154198 2.62128,1.233535 0.30838,1.38774 3.70062,15.552896 4.23515,18.174176 0.26727,1.31578 -1.23353,2.38485 -2.46708,1.61388 -1.23354,-0.77096 -14.61747,-10.10476 -15.48095,-10.85515 -1.23354,-1.07936 -0.38034,-2.19983 0.22615,-2.77548 1.23354,-1.151306 9.70386,-6.774186 10.86545,-7.390961 z"
         fill="#ffa722"
         id="path5"
         style="stroke-width:1.02795" />
      <path
         d="m 140.90477,100.932 c -1.55221,-0.14392 -2.00451,1.23354 -1.76807,2.46708 0.22614,1.23353 2.53903,16.8584 2.69322,18.01998 0.22615,1.69612 2.00451,2.38485 3.15581,0.68873 1.15131,-1.69613 9.06654,-14.37076 9.70387,-15.5529 1.1513,-2.1587 0.30838,-2.62128 -0.84293,-3.15581 -1.16158,-0.54482 -11.32801,-2.3129 -12.9419,-2.46708 z"
         fill="#ffa722"
         id="path6"
         style="stroke-width:1.02795" />
      <path
         d="m 118.72157,82.983967 c 1.07935,-1.768075 2.46709,-1.305499 3.4642,0.380338 0.68874,1.161587 6.46582,8.932895 7.01063,9.775817 0.53454,0.842922 0.77097,2.467082 -0.92516,2.847422 -1.69611,0.38035 -15.48094,4.00902 -17.63964,4.389356 -2.1587,0.38035 -3.39224,-1.305496 -2.00451,-3.155806 0.81208,-1.06907 9.488,-13.229738 10.09448,-14.237127 z"
         fill="#ffa722"
         id="path7"
         style="stroke-width:1.02795" />
      <path
         d="m 115.79191,69.589763 c 1.97367,0.873755 2.89883,0.555091 3.31001,-0.842923 0.53454,-1.85032 2.1587,-10.320631 2.23065,-12.242902 0.0514,-1.254102 -0.46257,-2.467086 -2.38484,-2.158699 -1.92227,0.308387 -15.77905,2.230659 -17.54713,2.847423 -2.055904,0.719567 -1.91199,2.981066 -0.53454,3.700624 1.60361,0.842923 13.5484,8.079703 14.92585,8.696477 z"
         fill="#ffa722"
         id="path8"
         style="stroke-width:1.02795" />
      <path
         d="m 139.74318,37.240135 c 1.11019,-0.884042 0.77097,-2.158699 -0.22615,-2.847433 -0.99711,-0.688724 -13.37364,-9.64218 -14.93612,-10.855163 -1.38774,-1.079349 -3.08386,-0.688727 -2.62129,1.768076 0.32895,1.768076 4.27628,17.259306 4.54355,18.328369 0.30839,1.233547 1.23355,1.85032 2.31289,1.079349 1.07935,-0.770962 9.77582,-6.548047 10.92712,-7.473198 z"
         fill="#ffa722"
         id="path9"
         style="stroke-width:1.02795" />
      <path
         d="m 211.76146,74.390291 c 0.0102,-0.66817 2.27177,-23.725112 -17.97887,-27.991113 -19.57219,-4.132366 -24.70168,14.206285 -24.70168,14.206285 0,0 -6.93867,-0.853192 -12.02703,3.011899 -5.08836,3.875376 -5.37618,10.258957 -5.37618,10.258957 0,0 -8.1825,-0.308387 -12.03731,4.245437 -3.48476,4.111803 -2.32317,7.822713 -2.32317,7.822713 l 22.58409,5.725688 57.08213,-1.531647 6.54806,-3.9679 c 0,0 0.37006,-5.191153 -3.0119,-8.480589 -4.6669,-4.522991 -8.75814,-3.29973 -8.75814,-3.29973 z"
         fill="#e2ebee"
         id="path10"
         style="stroke-width:1.02795" />
      <path
         d="m 158.75,83.34375 c 0,0 -6.26022,2.754908 -14.01097,2.076461 -4.60522,-0.400902 -7.54516,-1.768074 -7.54516,-1.768074 0,0 -0.79153,5.324786 3.39224,7.94606 3.13524,1.963391 6.12659,2.261487 11.69808,2.240937 5.5715,-0.0206 56.27006,-0.12336 59.91929,-0.16448 3.6595,-0.041 7.13398,-0.688721 8.91233,-2.343716 2.24094,-2.086747 2.40541,-5.160328 2.40541,-5.160328 0,0 -3.5156,1.048516 -8.40864,0.411188 -4.87249,-0.637329 -7.70963,-2.816591 -7.70963,-2.816591 0,0 -3.50532,2.991344 -21.6281,3.320285 C 166.22321,87.445275 158.75,83.34375 158.75,83.34375 Z"
         fill="#bacdd2"
         id="path11"
         style="stroke-width:1.02795" />
    </g>
    <path
       style="font-weight:800;font-size:21.1667px;line-height:1;font-family:Avenir;-inkscape-font-specification:'Avenir Ultra-Bold';letter-spacing:0px;word-spacing:0px;stroke-width:0.457853;stroke-linejoin:round;paint-order:markers fill stroke"
       d="m 76.412866,75.236155 h 2.270126 v 5.080759 h -2.270126 z m -4.179916,0 h 2.270127 v 5.080759 H 72.23295 Z m 9.206633,0 h 4.21595 q 1.531436,0 2.900718,0.34232 1.3873,0.342321 2.414262,1.117046 1.026963,0.75671 1.621519,1.981857 0.612575,1.225148 0.612575,2.972786 0,1.549451 -0.594557,2.738565 -0.576541,1.171098 -1.567469,1.981857 -0.990929,0.792743 -2.288144,1.207131 -1.297216,0.414388 -2.720549,0.414388 h -4.594305 z m 2.810634,10.16152 h 1.459367 q 0.972912,0 1.801688,-0.198186 0.846793,-0.198186 1.459367,-0.648608 0.612574,-0.468439 0.954895,-1.207131 0.360338,-0.756709 0.360338,-1.837722 0,-0.936877 -0.360338,-1.621519 -0.342321,-0.702658 -0.936877,-1.15308 -0.594557,-0.450422 -1.405317,-0.666624 -0.792743,-0.23422 -1.67557,-0.23422 h -1.657553 z m 18.809633,1.081013 q -0.64861,0.828776 -1.63953,1.279198 -0.99093,0.450422 -2.05393,0.450422 -1.00894,0 -1.90979,-0.324304 -0.88282,-0.324304 -1.54945,-0.918861 -0.64861,-0.612574 -1.026961,-1.459367 -0.378354,-0.846793 -0.378354,-1.891773 0,-1.044978 0.378354,-1.891772 0.378351,-0.846793 1.026961,-1.44135 0.66663,-0.612574 1.54945,-0.936878 0.90085,-0.324304 1.90979,-0.324304 0.93688,0 1.69359,0.324304 0.77472,0.324304 1.29721,0.936878 0.54051,0.594557 0.82878,1.44135 0.28827,0.846794 0.28827,1.891772 v 0.846794 h -6.26987 q 0.16215,0.774725 0.70265,1.243164 0.54051,0.450423 1.33325,0.450423 0.66663,0 1.11705,-0.28827 0.46844,-0.306287 0.81076,-0.774726 z m -2.28814,-3.855613 q 0.018,-0.684641 -0.45042,-1.171097 -0.46844,-0.486456 -1.20713,-0.486456 -0.45043,0 -0.79275,0.144135 -0.34232,0.144135 -0.59455,0.378355 -0.23422,0.216202 -0.37836,0.522489 -0.12612,0.28827 -0.14413,0.612574 z m 4.37809,-8.251731 h 2.70252 v 13.620761 h -2.70252 z m 4.68439,4.864558 h 2.70254 v 8.756203 h -2.70254 z m -0.2162,-2.756583 q 0,-0.648607 0.45042,-1.09903 0.46844,-0.468439 1.11705,-0.468439 0.6486,0 1.09903,0.468439 0.46844,0.450423 0.46844,1.09903 0,0.648608 -0.46844,1.117046 -0.45043,0.450423 -1.09903,0.450423 -0.64861,0 -1.11705,-0.450423 -0.45042,-0.468438 -0.45042,-1.117046 z m 3.9457,2.756583 h 2.91874 l 2.21607,5.94557 h 0.036 l 2.05392,-5.94557 h 2.72055 l -3.45923,8.756203 h -2.86469 z m 19.22402,7.242786 q -0.64861,0.828776 -1.63954,1.279198 -0.99093,0.450422 -2.05393,0.450422 -1.00894,0 -1.90979,-0.324304 -0.88282,-0.324304 -1.54945,-0.918861 -0.64861,-0.612574 -1.02696,-1.459367 -0.37836,-0.846793 -0.37836,-1.891773 0,-1.044978 0.37836,-1.891772 0.37835,-0.846793 1.02696,-1.44135 0.66663,-0.612574 1.54945,-0.936878 0.90085,-0.324304 1.90979,-0.324304 0.93688,0 1.69359,0.324304 0.77473,0.324304 1.29722,0.936878 0.54051,0.594557 0.82877,1.44135 0.28827,0.846794 0.28827,1.891772 v 0.846794 h -6.26987 q 0.16215,0.774725 0.70266,1.243164 0.5405,0.450423 1.33324,0.450423 0.66663,0 1.11705,-0.28827 0.46845,-0.306287 0.81076,-0.774726 z m -2.28814,-3.855613 q 0.018,-0.684641 -0.45043,-1.171097 -0.46844,-0.486456 -1.20713,-0.486456 -0.45042,0 -0.79275,0.144135 -0.34231,0.144135 -0.59455,0.378355 -0.23423,0.216202 -0.37836,0.522489 -0.12612,0.28827 -0.14413,0.612574 z m 4.34205,-3.387173 h 2.70254 v 1.405317 h 0.036 q 0.43241,-0.81076 1.02696,-1.207131 0.59456,-0.414389 1.49541,-0.414389 0.23422,0 0.46843,0.01802 0.23423,0.01802 0.43241,0.07207 v 2.468313 q -0.28827,-0.09008 -0.57654,-0.126118 -0.27025,-0.05405 -0.57654,-0.05405 -0.77472,0 -1.22515,0.216202 -0.45042,0.216203 -0.70266,0.612574 -0.23422,0.378355 -0.30629,0.918861 -0.0721,0.540507 -0.0721,1.189114 v 3.657427 h -2.70253 z m 11.747,0 h 2.91873 l 2.21608,5.94557 h 0.036 l 2.05393,-5.94557 h 2.72054 l -3.45924,8.756203 h -2.86468 z m 16.43139,7.657174 h -0.036 q -0.45042,0.702658 -1.20713,1.008945 -0.7387,0.306287 -1.56747,0.306287 -0.61257,0 -1.18912,-0.180169 -0.55852,-0.162151 -0.99092,-0.504473 -0.43241,-0.34232 -0.68465,-0.846793 -0.25223,-0.504472 -0.25223,-1.171097 0,-0.756709 0.27025,-1.279199 0.28827,-0.522489 0.75671,-0.86481 0.48646,-0.342321 1.09903,-0.52249 0.61258,-0.198185 1.26118,-0.288269 0.66662,-0.09009 1.31524,-0.108102 0.66662,-0.01802 1.22514,-0.01802 0,-0.720675 -0.52249,-1.135064 -0.50447,-0.432405 -1.20713,-0.432405 -0.66662,0 -1.22515,0.28827 -0.5405,0.270254 -0.97291,0.75671 l -1.44135,-1.477385 q 0.75671,-0.702658 1.76565,-1.044979 1.00895,-0.360337 2.08997,-0.360337 1.18911,0 1.94582,0.306287 0.77472,0.28827 1.22515,0.86481 0.46843,0.57654 0.6486,1.423333 0.18017,0.828777 0.18017,1.927806 v 4.450169 h -2.48633 z m -0.66663,-2.738566 q -0.30628,0 -0.77472,0.03603 -0.45042,0.01802 -0.88283,0.144135 -0.41439,0.126118 -0.72068,0.378355 -0.28827,0.252236 -0.28827,0.702658 0,0.486456 0.4144,0.720675 0.41438,0.234219 0.8648,0.234219 0.39638,0 0.75671,-0.108101 0.37836,-0.108101 0.66663,-0.306287 0.28826,-0.198185 0.45041,-0.504472 0.18018,-0.306287 0.18018,-0.720675 v -0.576541 z m 4.88259,-9.783166 h 2.70253 v 13.620761 h -2.70253 z m 13.08025,13.620761 h -2.59442 v -1.189114 h -0.036 q -0.14414,0.252236 -0.37835,0.504473 -0.2162,0.252236 -0.54051,0.450422 -0.32431,0.198185 -0.73869,0.324304 -0.41439,0.126118 -0.90085,0.126118 -1.02696,0 -1.67557,-0.306287 -0.63059,-0.324304 -0.99093,-0.882827 -0.34231,-0.558523 -0.46843,-1.315233 -0.1081,-0.756709 -0.1081,-1.639535 v -4.828524 h 2.70252 v 4.288017 q 0,0.378354 0.018,0.792743 0.036,0.396371 0.16215,0.738692 0.14413,0.342321 0.41438,0.558523 0.28828,0.216202 0.81077,0.216202 0.52249,0 0.84679,-0.180168 0.3243,-0.198186 0.48646,-0.504473 0.18017,-0.324304 0.23422,-0.720675 0.054,-0.396372 0.054,-0.828776 v -4.360085 h 2.70253 z m 10.19756,-1.513417 q -0.64861,0.828776 -1.63954,1.279198 -0.99093,0.450422 -2.05392,0.450422 -1.00895,0 -1.90979,-0.324304 -0.88283,-0.324304 -1.54945,-0.918861 -0.64861,-0.612574 -1.02696,-1.459367 -0.37836,-0.846793 -0.37836,-1.891773 0,-1.044978 0.37836,-1.891772 0.37835,-0.846793 1.02696,-1.44135 0.66662,-0.612574 1.54945,-0.936878 0.90084,-0.324304 1.90979,-0.324304 0.93688,0 1.69359,0.324304 0.77472,0.324304 1.29721,0.936878 0.54051,0.594557 0.82878,1.44135 0.28827,0.846794 0.28827,1.891772 v 0.846794 h -6.26988 q 0.16215,0.774725 0.70266,1.243164 0.54051,0.450423 1.33325,0.450423 0.66663,0 1.11705,-0.28827 0.46843,-0.306287 0.81076,-0.774726 z m -2.28815,-3.855613 q 0.018,-0.684641 -0.45042,-1.171097 -0.46844,-0.486456 -1.20713,-0.486456 -0.45042,0 -0.79274,0.144135 -0.34232,0.144135 -0.59456,0.378355 -0.23422,0.216202 -0.37835,0.522489 -0.12612,0.28827 -0.14414,0.612574 z m 18.86365,5.36903 h -2.48633 v -1.15308 h -0.036 q -0.16216,0.23422 -0.43241,0.486455 -0.25223,0.23422 -0.61257,0.432406 -0.34232,0.198185 -0.77472,0.324304 -0.4144,0.126118 -0.86482,0.126118 -0.97291,0 -1.76565,-0.324304 -0.79275,-0.342321 -1.36928,-0.936878 -0.55853,-0.612574 -0.86481,-1.44135 -0.30629,-0.828776 -0.30629,-1.819705 0,-0.918861 0.27025,-1.747637 0.28827,-0.846794 0.79275,-1.495401 0.52248,-0.648608 1.26118,-1.026963 0.73869,-0.396371 1.67557,-0.396371 0.84679,0 1.56746,0.270253 0.7387,0.252237 1.20713,0.882827 h 0.036 v -5.801435 h 2.70253 z m -2.48633,-4.378102 q 0,-0.990928 -0.57654,-1.603502 -0.55853,-0.612574 -1.58549,-0.612574 -1.02696,0 -1.6035,0.612574 -0.55852,0.612574 -0.55852,1.603502 0,0.990929 0.55852,1.603503 0.57654,0.612573 1.6035,0.612573 1.02696,0 1.58549,-0.612573 0.57654,-0.612574 0.57654,-1.603503 z m 10.14349,3.279073 h -0.036 q -0.45042,0.702658 -1.20713,1.008945 -0.73869,0.306287 -1.56747,0.306287 -0.61257,0 -1.18911,-0.180169 -0.55852,-0.162151 -0.99093,-0.504473 -0.4324,-0.34232 -0.68464,-0.846793 -0.25224,-0.504472 -0.25224,-1.171097 0,-0.756709 0.27025,-1.279199 0.28828,-0.522489 0.75671,-0.86481 0.48646,-0.342321 1.09903,-0.52249 0.61258,-0.198185 1.26119,-0.288269 0.66662,-0.09009 1.31523,-0.108102 0.66662,-0.01802 1.22514,-0.01802 0,-0.720675 -0.52248,-1.135064 -0.50448,-0.432405 -1.20714,-0.432405 -0.66662,0 -1.22515,0.28827 -0.5405,0.270254 -0.97291,0.75671 l -1.44134,-1.477385 q 0.7567,-0.702658 1.76565,-1.044979 1.00895,-0.360337 2.08996,-0.360337 1.18911,0 1.94582,0.306287 0.77472,0.28827 1.22515,0.86481 0.46843,0.57654 0.6486,1.423333 0.18018,0.828777 0.18018,1.927806 v 4.450169 h -2.48634 z m -0.66662,-2.738566 q -0.30629,0 -0.77473,0.03603 -0.45042,0.01802 -0.88283,0.144135 -0.41439,0.126118 -0.72067,0.378355 -0.28828,0.252236 -0.28828,0.702658 0,0.486456 0.4144,0.720675 0.41438,0.234219 0.86481,0.234219 0.39637,0 0.7567,-0.108101 0.37836,-0.108101 0.66663,-0.306287 0.28827,-0.198185 0.45042,-0.504472 0.18017,-0.306287 0.18017,-0.720675 v -0.576541 z m 4.88258,-4.918608 h 2.70253 v 8.756203 h -2.70253 z m -0.21621,-2.756583 q 0,-0.648607 0.45043,-1.09903 0.46844,-0.468439 1.11705,-0.468439 0.64861,0 1.09903,0.468439 0.46843,0.450423 0.46843,1.09903 0,0.648608 -0.46843,1.117046 -0.45042,0.450423 -1.09903,0.450423 -0.64861,0 -1.11705,-0.450423 -0.45043,-0.468438 -0.45043,-1.117046 z m 4.90061,-2.107975 h 2.70254 v 13.620761 h -2.70254 z m 9.69309,15.044095 q -0.27026,0.702658 -0.5225,1.243164 -0.25223,0.540507 -0.6486,0.900844 -0.37836,0.378355 -0.97291,0.558524 -0.59456,0.198185 -1.56747,0.198185 -1.04498,0 -2.01789,-0.324303 l 0.36033,-2.216076 q 0.61258,0.270252 1.26119,0.270252 0.45042,0 0.73868,-0.108101 0.28828,-0.09008 0.46845,-0.28827 0.19818,-0.180168 0.3243,-0.450422 0.12611,-0.270253 0.27025,-0.63059 l 0.19819,-0.504473 -3.8376,-8.828271 h 2.91874 l 2.25211,5.783418 h 0.036 l 1.92781,-5.783418 h 2.7746 z m 9.65703,-14.179284 h 2.27013 v 5.080759 h -2.27013 z m -4.17992,0 h 2.27014 v 5.080759 H 238.817 Z"
       id="text2"
       aria-label="&quot;Deliver value daily&quot;" />
  </g>
</svg>
