<?xml version="1.0" encoding="UTF-8" standalone="no"?>
<!-- Contains "Sun Behind Small Cloud" from Noto Emoji | OFL-1.1 License | https://github.com/googlefonts/noto-emoji/blob/main/svg/emoji_u1f324.svg -->

<!-- Created with Inkscape (http://www.inkscape.org/) -->

<svg
   width="1200"
   height="630"
   viewBox="0 0 317.5 166.6875"
   version="1.1"
   id="svg1"
   inkscape:version="1.4 (e7c3feb1, 2024-10-09)"
   sodipodi:docname="og.svg"
   inkscape:export-filename="og.png"
   inkscape:export-xdpi="96"
   inkscape:export-ydpi="96"
   xmlns:inkscape="http://www.inkscape.org/namespaces/inkscape"
   xmlns:sodipodi="http://sodipodi.sourceforge.net/DTD/sodipodi-0.dtd"
   xmlns:xlink="http://www.w3.org/1999/xlink"
   xmlns="http://www.w3.org/2000/svg"
   xmlns:svg="http://www.w3.org/2000/svg">
  <sodipodi:namedview
     id="namedview1"
     pagecolor="#ffffff"
     bordercolor="#000000"
     borderopacity="0.25"
     inkscape:showpageshadow="2"
     inkscape:pageopacity="0.0"
     inkscape:pagecheckerboard="true"
     inkscape:deskcolor="#d1d1d1"
     inkscape:document-units="mm"
     inkscape:zoom="0.29077443"
     inkscape:cx="450.52105"
     inkscape:cy="61.903656"
     inkscape:window-width="1344"
     inkscape:window-height="643"
     inkscape:window-x="51"
     inkscape:window-y="25"
     inkscape:window-maximized="0"
     inkscape:current-layer="layer1"
     showgrid="false"
     showguides="true" />
  <defs
     id="defs1">
    <rect
       x="275.24686"
       y="248.7002"
       width="1015.4699"
       height="198.83507"
       id="rect3" />
    <linearGradient
       id="linearGradient1"
       inkscape:collect="always">
      <stop
         style="stop-color:#fabb02;stop-opacity:1;"
         offset="0"
         id="stop1" />
      <stop
         style="stop-color:#ffe645;stop-opacity:1;"
         offset="1"
         id="stop2" />
    </linearGradient>
    <linearGradient
       inkscape:collect="always"
       xlink:href="#linearGradient1"
       id="linearGradient2"
       x1="46.496815"
       y1="195.59692"
       x2="271.0032"
       y2="-28.909466"
       gradientUnits="userSpaceOnUse" />
    <rect
       x="275.24686"
       y="248.7002"
       width="679.82898"
       height="84.678576"
       id="rect4" />
    <rect
       x="275.24686"
       y="248.7002"
       width="1068.4237"
       height="67.72262"
       id="rect5" />
  </defs>
  <g
     inkscape:label="Layer 1"
     inkscape:groupmode="layer"
     id="layer1">
    <rect
       style="fill:url(#linearGradient2);stroke-width:0.537898;stroke-linejoin:round;paint-order:markers fill stroke"
       id="rect1"
       width="317.5"
       height="166.6875"
       x="0"
       y="0" />
    <text
       xml:space="preserve"
       style="font-style:normal;font-variant:normal;font-weight:normal;font-stretch:normal;font-size:70.5556px;line-height:1;font-family:'Noto Color Emoji';-inkscape-font-specification:'Noto Color Emoji';text-align:center;letter-spacing:0px;word-spacing:0px;writing-mode:lr-tb;direction:ltr;text-anchor:middle;fill:#000000;stroke-width:0.537898;stroke-linejoin:round;paint-order:markers fill stroke"
       x="89.164581"
       y="133.87917"
       id="text1"><tspan
         sodipodi:role="line"
         id="tspan1"
         style="font-style:normal;font-variant:normal;font-weight:normal;font-stretch:normal;font-family:'Noto Color Emoji';-inkscape-font-specification:'Noto Color Emoji';stroke-width:0.537898"
         x="89.164581"
         y="133.87917" /></text>
    <g
       id="g7"
       transform="matrix(1.0977561,0,0,1.0977561,-18.748963,7.3252681)">
      <path
         d="m 130.26547,50.531545 c -8.50116,10.927118 -8.35724,30.355396 2.5082,39.977025 12.3457,10.92711 29.7078,10.81404 40.63493,0.760685 13.10637,-12.047587 12.34569,-32.113202 0.77096,-43.472063 -11.63642,-11.420544 -32.44215,-12.016753 -43.91409,2.734353 z"
         fill="#fcc11a"
         id="path1"
         style="stroke-width:1.02795" />
      <path
         d="m 143.92695,46.779517 c -3.36141,-1.490529 -7.04147,2.5596 -8.64508,5.335072 -1.60359,2.775463 -3.09413,8.223606 0.31867,9.611342 3.4128,1.387736 5.8696,-0.955993 8.32641,-5.016399 2.4568,-4.060407 3.84453,-8.223615 0,-9.930015 z"
         fill="#fee269"
         id="path2"
         style="stroke-width:1.02795" />
      <path
         d="m 152.68509,31.54528 c -0.81208,1.531647 -0.53453,2.693233 1.07935,3.083858 1.61388,0.380338 11.70836,2.025064 12.55129,2.076461 1.23353,0.07196 1.69612,-0.842923 1.54192,-1.922272 -0.15419,-1.079349 -2.62127,-16.179954 -2.84742,-17.55741 -0.22615,-1.377454 -1.69612,-2.775467 -3.08385,-0.925156 -1.38774,1.840034 -8.62452,14.093214 -9.24129,15.244519 z"
         fill="#ffa722"
         id="path3"
         style="stroke-width:1.02795" />
      <path
         d="m 177.19146,41.948147 c -1.52137,0.657893 -1.36718,1.624163 -0.39063,2.754909 0.97656,1.130745 7.77131,9.374915 8.36753,9.930015 0.60649,0.555091 1.54192,0.606487 2.19982,-0.400902 0.65788,-1.007398 8.75814,-15.450109 9.36463,-16.364992 0.99712,-1.500806 0.15419,-2.878256 -1.56248,-2.23065 -1.29523,0.503695 -17.02288,5.900441 -17.97887,6.31162 z"
         fill="#ffa722"
         id="path4"
         style="stroke-width:1.02795" />
      <path
         d="m 178.17829,93.150409 c 1.22326,-0.657893 2.31289,-0.154198 2.62128,1.233535 0.30838,1.38774 3.70062,15.552896 4.23515,18.174176 0.26727,1.31578 -1.23353,2.38485 -2.46708,1.61388 -1.23354,-0.77096 -14.61747,-10.10476 -15.48095,-10.85515 -1.23354,-1.07936 -0.38034,-2.19983 0.22615,-2.77548 1.23354,-1.151306 9.70386,-6.774186 10.86545,-7.390961 z"
         fill="#ffa722"
         id="path5"
         style="stroke-width:1.02795" />
      <path
         d="m 140.90477,100.932 c -1.55221,-0.14392 -2.00451,1.23354 -1.76807,2.46708 0.22614,1.23353 2.53903,16.8584 2.69322,18.01998 0.22615,1.69612 2.00451,2.38485 3.15581,0.68873 1.15131,-1.69613 9.06654,-14.37076 9.70387,-15.5529 1.1513,-2.1587 0.30838,-2.62128 -0.84293,-3.15581 -1.16158,-0.54482 -11.32801,-2.3129 -12.9419,-2.46708 z"
         fill="#ffa722"
         id="path6"
         style="stroke-width:1.02795" />
      <path
         d="m 118.72157,82.983967 c 1.07935,-1.768075 2.46709,-1.305499 3.4642,0.380338 0.68874,1.161587 6.46582,8.932895 7.01063,9.775817 0.53454,0.842922 0.77097,2.467082 -0.92516,2.847422 -1.69611,0.38035 -15.48094,4.00902 -17.63964,4.389356 -2.1587,0.38035 -3.39224,-1.305496 -2.00451,-3.155806 0.81208,-1.06907 9.488,-13.229738 10.09448,-14.237127 z"
         fill="#ffa722"
         id="path7"
         style="stroke-width:1.02795" />
      <path
         d="m 115.79191,69.589763 c 1.97367,0.873755 2.89883,0.555091 3.31001,-0.842923 0.53454,-1.85032 2.1587,-10.320631 2.23065,-12.242902 0.0514,-1.254102 -0.46257,-2.467086 -2.38484,-2.158699 -1.92227,0.308387 -15.77905,2.230659 -17.54713,2.847423 -2.055904,0.719567 -1.91199,2.981066 -0.53454,3.700624 1.60361,0.842923 13.5484,8.079703 14.92585,8.696477 z"
         fill="#ffa722"
         id="path8"
         style="stroke-width:1.02795" />
      <path
         d="m 139.74318,37.240135 c 1.11019,-0.884042 0.77097,-2.158699 -0.22615,-2.847433 -0.99711,-0.688724 -13.37364,-9.64218 -14.93612,-10.855163 -1.38774,-1.079349 -3.08386,-0.688727 -2.62129,1.768076 0.32895,1.768076 4.27628,17.259306 4.54355,18.328369 0.30839,1.233547 1.23355,1.85032 2.31289,1.079349 1.07935,-0.770962 9.77582,-6.548047 10.92712,-7.473198 z"
         fill="#ffa722"
         id="path9"
         style="stroke-width:1.02795" />
      <path
         d="m 211.76146,74.390291 c 0.0102,-0.66817 2.27177,-23.725112 -17.97887,-27.991113 -19.57219,-4.132366 -24.70168,14.206285 -24.70168,14.206285 0,0 -6.93867,-0.853192 -12.02703,3.011899 -5.08836,3.875376 -5.37618,10.258957 -5.37618,10.258957 0,0 -8.1825,-0.308387 -12.03731,4.245437 -3.48476,4.111803 -2.32317,7.822713 -2.32317,7.822713 l 22.58409,5.725688 57.08213,-1.531647 6.54806,-3.9679 c 0,0 0.37006,-5.191153 -3.0119,-8.480589 -4.6669,-4.522991 -8.75814,-3.29973 -8.75814,-3.29973 z"
         fill="#e2ebee"
         id="path10"
         style="stroke-width:1.02795" />
      <path
         d="m 158.75,83.34375 c 0,0 -6.26022,2.754908 -14.01097,2.076461 -4.60522,-0.400902 -7.54516,-1.768074 -7.54516,-1.768074 0,0 -0.79153,5.324786 3.39224,7.94606 3.13524,1.963391 6.12659,2.261487 11.69808,2.240937 5.5715,-0.0206 56.27006,-0.12336 59.91929,-0.16448 3.6595,-0.041 7.13398,-0.688721 8.91233,-2.343716 2.24094,-2.086747 2.40541,-5.160328 2.40541,-5.160328 0,0 -3.5156,1.048516 -8.40864,0.411188 -4.87249,-0.637329 -7.70963,-2.816591 -7.70963,-2.816591 0,0 -3.50532,2.991344 -21.6281,3.320285 C 166.22321,87.445275 158.75,83.34375 158.75,83.34375 Z"
         fill="#bacdd2"
         id="path11"
         style="stroke-width:1.02795" />
    </g>
  </g>
</svg>
