<?xml version="1.0" encoding="UTF-8" standalone="no"?>
<!-- Created with Inkscape (http://www.inkscape.org/) -->

<svg
   width="1200"
   height="630"
   viewBox="0 0 317.5 166.6875"
   version="1.1"
   id="svg1"
   inkscape:version="1.4 (e7c3feb1, 2024-10-09)"
   sodipodi:docname="og.svg"
   inkscape:export-filename="og.png"
   inkscape:export-xdpi="96"
   inkscape:export-ydpi="96"
   xmlns:inkscape="http://www.inkscape.org/namespaces/inkscape"
   xmlns:sodipodi="http://sodipodi.sourceforge.net/DTD/sodipodi-0.dtd"
   xmlns:xlink="http://www.w3.org/1999/xlink"
   xmlns="http://www.w3.org/2000/svg"
   xmlns:svg="http://www.w3.org/2000/svg">
  <sodipodi:namedview
     id="namedview1"
     pagecolor="#ffffff"
     bordercolor="#000000"
     borderopacity="0.25"
     inkscape:showpageshadow="2"
     inkscape:pageopacity="0.0"
     inkscape:pagecheckerboard="true"
     inkscape:deskcolor="#d1d1d1"
     inkscape:document-units="mm"
     inkscape:zoom="0.64945221"
     inkscape:cx="479.63499"
     inkscape:cy="301.7928"
     inkscape:window-width="1344"
     inkscape:window-height="643"
     inkscape:window-x="51"
     inkscape:window-y="40"
     inkscape:window-maximized="0"
     inkscape:current-layer="layer1"
     showgrid="false"
     showguides="true" />
  <defs
     id="defs1">
    <rect
       x="275.24686"
       y="248.7002"
       width="1015.4699"
       height="198.83507"
       id="rect3" />
    <linearGradient
       id="linearGradient1"
       inkscape:collect="always">
      <stop
         style="stop-color:#fabb02;stop-opacity:1;"
         offset="0"
         id="stop1" />
      <stop
         style="stop-color:#ffe645;stop-opacity:1;"
         offset="1"
         id="stop2" />
    </linearGradient>
    <linearGradient
       inkscape:collect="always"
       xlink:href="#linearGradient1"
       id="linearGradient2"
       x1="46.496815"
       y1="195.59692"
       x2="271.0032"
       y2="-28.909466"
       gradientUnits="userSpaceOnUse" />
    <rect
       x="275.24686"
       y="248.7002"
       width="679.82898"
       height="84.678576"
       id="rect4" />
    <rect
       x="275.24686"
       y="248.7002"
       width="1068.4237"
       height="67.72262"
       id="rect5" />
  </defs>
  <g
     inkscape:label="Layer 1"
     inkscape:groupmode="layer"
     id="layer1">
    <rect
       style="fill:url(#linearGradient2);stroke-width:0.537898;stroke-linejoin:round;paint-order:markers fill stroke"
       id="rect1"
       width="317.5"
       height="166.6875"
       x="0"
       y="0" />
    <text
       xml:space="preserve"
       style="font-style:normal;font-variant:normal;font-weight:normal;font-stretch:normal;font-size:70.5556px;line-height:1;font-family:'Noto Color Emoji';-inkscape-font-specification:'Noto Color Emoji';text-align:center;letter-spacing:0px;word-spacing:0px;writing-mode:lr-tb;direction:ltr;text-anchor:middle;fill:#000000;stroke-width:0.537898;stroke-linejoin:round;paint-order:markers fill stroke"
       x="89.164581"
       y="133.87917"
       id="text1"><tspan
         sodipodi:role="line"
         id="tspan1"
         style="font-style:normal;font-variant:normal;font-weight:normal;font-stretch:normal;font-family:'Noto Color Emoji';-inkscape-font-specification:'Noto Color Emoji';stroke-width:0.537898"
         x="89.164581"
         y="133.87917" /></text>
    <g
       id="g7"
       transform="matrix(1.7612924,0,0,1.7612924,8.2131813,5.9010435)">
      <path
         d="m 130.26547,50.531545 c -8.50116,10.927118 -8.35724,30.355396 2.5082,39.977025 12.3457,10.92711 29.7078,10.81404 40.63493,0.760685 13.10637,-12.047587 12.34569,-32.113202 0.77096,-43.472063 -11.63642,-11.420544 -32.44215,-12.016753 -43.91409,2.734353 z"
         fill="#fcc11a"
         id="path1"
         style="stroke-width:1.02795" />
      <path
         d="m 143.92695,46.779517 c -3.36141,-1.490529 -7.04147,2.5596 -8.64508,5.335072 -1.60359,2.775463 -3.09413,8.223606 0.31867,9.611342 3.4128,1.387736 5.8696,-0.955993 8.32641,-5.016399 2.4568,-4.060407 3.84453,-8.223615 0,-9.930015 z"
         fill="#fee269"
         id="path2"
         style="stroke-width:1.02795" />
      <path
         d="m 152.68509,31.54528 c -0.81208,1.531647 -0.53453,2.693233 1.07935,3.083858 1.61388,0.380338 11.70836,2.025064 12.55129,2.076461 1.23353,0.07196 1.69612,-0.842923 1.54192,-1.922272 -0.15419,-1.079349 -2.62127,-16.179954 -2.84742,-17.55741 -0.22615,-1.377454 -1.69612,-2.775467 -3.08385,-0.925156 -1.38774,1.840034 -8.62452,14.093214 -9.24129,15.244519 z"
         fill="#ffa722"
         id="path3"
         style="stroke-width:1.02795" />
      <path
         d="m 177.19146,41.948147 c -1.52137,0.657893 -1.36718,1.624163 -0.39063,2.754909 0.97656,1.130745 7.77131,9.374915 8.36753,9.930015 0.60649,0.555091 1.54192,0.606487 2.19982,-0.400902 0.65788,-1.007398 8.75814,-15.450109 9.36463,-16.364992 0.99712,-1.500806 0.15419,-2.878256 -1.56248,-2.23065 -1.29523,0.503695 -17.02288,5.900441 -17.97887,6.31162 z"
         fill="#ffa722"
         id="path4"
         style="stroke-width:1.02795" />
      <path
         d="m 178.17829,93.150409 c 1.22326,-0.657893 2.31289,-0.154198 2.62128,1.233535 0.30838,1.38774 3.70062,15.552896 4.23515,18.174176 0.26727,1.31578 -1.23353,2.38485 -2.46708,1.61388 -1.23354,-0.77096 -14.61747,-10.10476 -15.48095,-10.85515 -1.23354,-1.07936 -0.38034,-2.19983 0.22615,-2.77548 1.23354,-1.151306 9.70386,-6.774186 10.86545,-7.390961 z"
         fill="#ffa722"
         id="path5"
         style="stroke-width:1.02795" />
      <path
         d="m 140.90477,100.932 c -1.55221,-0.14392 -2.00451,1.23354 -1.76807,2.46708 0.22614,1.23353 2.53903,16.8584 2.69322,18.01998 0.22615,1.69612 2.00451,2.38485 3.15581,0.68873 1.15131,-1.69613 9.06654,-14.37076 9.70387,-15.5529 1.1513,-2.1587 0.30838,-2.62128 -0.84293,-3.15581 -1.16158,-0.54482 -11.32801,-2.3129 -12.9419,-2.46708 z"
         fill="#ffa722"
         id="path6"
         style="stroke-width:1.02795" />
      <path
         d="m 118.72157,82.983967 c 1.07935,-1.768075 2.46709,-1.305499 3.4642,0.380338 0.68874,1.161587 6.46582,8.932895 7.01063,9.775817 0.53454,0.842922 0.77097,2.467082 -0.92516,2.847422 -1.69611,0.38035 -15.48094,4.00902 -17.63964,4.389356 -2.1587,0.38035 -3.39224,-1.305496 -2.00451,-3.155806 0.81208,-1.06907 9.488,-13.229738 10.09448,-14.237127 z"
         fill="#ffa722"
         id="path7"
         style="stroke-width:1.02795" />
      <path
         d="m 115.79191,69.589763 c 1.97367,0.873755 2.89883,0.555091 3.31001,-0.842923 0.53454,-1.85032 2.1587,-10.320631 2.23065,-12.242902 0.0514,-1.254102 -0.46257,-2.467086 -2.38484,-2.158699 -1.92227,0.308387 -15.77905,2.230659 -17.54713,2.847423 -2.055904,0.719567 -1.91199,2.981066 -0.53454,3.700624 1.60361,0.842923 13.5484,8.079703 14.92585,8.696477 z"
         fill="#ffa722"
         id="path8"
         style="stroke-width:1.02795" />
      <path
         d="m 139.74318,37.240135 c 1.11019,-0.884042 0.77097,-2.158699 -0.22615,-2.847433 -0.99711,-0.688724 -13.37364,-9.64218 -14.93612,-10.855163 -1.38774,-1.079349 -3.08386,-0.688727 -2.62129,1.768076 0.32895,1.768076 4.27628,17.259306 4.54355,18.328369 0.30839,1.233547 1.23355,1.85032 2.31289,1.079349 1.07935,-0.770962 9.77582,-6.548047 10.92712,-7.473198 z"
         fill="#ffa722"
         id="path9"
         style="stroke-width:1.02795" />
      <path
         d="m 211.76146,74.390291 c 0.0102,-0.66817 2.27177,-23.725112 -17.97887,-27.991113 -19.57219,-4.132366 -24.70168,14.206285 -24.70168,14.206285 0,0 -6.93867,-0.853192 -12.02703,3.011899 -5.08836,3.875376 -5.37618,10.258957 -5.37618,10.258957 0,0 -8.1825,-0.308387 -12.03731,4.245437 -3.48476,4.111803 -2.32317,7.822713 -2.32317,7.822713 l 22.58409,5.725688 57.08213,-1.531647 6.54806,-3.9679 c 0,0 0.37006,-5.191153 -3.0119,-8.480589 -4.6669,-4.522991 -8.75814,-3.29973 -8.75814,-3.29973 z"
         fill="#e2ebee"
         id="path10"
         style="stroke-width:1.02795" />
      <path
         d="m 158.75,83.34375 c 0,0 -6.26022,2.754908 -14.01097,2.076461 -4.60522,-0.400902 -7.54516,-1.768074 -7.54516,-1.768074 0,0 -0.79153,5.324786 3.39224,7.94606 3.13524,1.963391 6.12659,2.261487 11.69808,2.240937 5.5715,-0.0206 56.27006,-0.12336 59.91929,-0.16448 3.6595,-0.041 7.13398,-0.688721 8.91233,-2.343716 2.24094,-2.086747 2.40541,-5.160328 2.40541,-5.160328 0,0 -3.5156,1.048516 -8.40864,0.411188 -4.87249,-0.637329 -7.70963,-2.816591 -7.70963,-2.816591 0,0 -3.50532,2.991344 -21.6281,3.320285 C 166.22321,87.445275 158.75,83.34375 158.75,83.34375 Z"
         fill="#bacdd2"
         id="path11"
         style="stroke-width:1.02795" />
    </g>
    <path
       style="font-weight:800;font-size:21.1667px;line-height:1;font-family:Avenir;-inkscape-font-specification:'Avenir Ultra-Bold';letter-spacing:0px;word-spacing:0px;stroke-width:0.537898;stroke-linejoin:round;paint-order:markers fill stroke"
       d="m 21.333613,26.291492 h 2.667004 v 5.969009 h -2.667004 z m -4.910674,0 h 2.667004 v 5.969009 h -2.667004 z m 10.816193,0 h 4.953008 q 1.79917,0 3.407839,0.402167 1.629836,0.402167 2.836338,1.312335 1.206502,0.889002 1.905003,2.328337 0.719668,1.439336 0.719668,3.492506 0,1.820336 -0.698501,3.217338 -0.677335,1.375836 -1.841503,2.328337 -1.164169,0.931335 -2.688171,1.418169 -1.524003,0.486834 -3.196172,0.486834 h -5.397509 z m 3.302006,11.938019 h 1.714502 q 1.143002,0 2.11667,-0.232834 0.994835,-0.232834 1.714503,-0.762001 0.719668,-0.550335 1.121835,-1.418169 0.423334,-0.889002 0.423334,-2.159004 0,-1.100668 -0.423334,-1.905003 -0.402167,-0.825501 -1.100668,-1.354669 -0.698501,-0.529167 -1.651003,-0.783167 -0.931335,-0.275168 -1.968503,-0.275168 h -1.947336 z m 22.09805,1.270002 q -0.762001,0.973668 -1.926169,1.502835 -1.164169,0.529168 -2.413004,0.529168 -1.185335,0 -2.24367,-0.381001 -1.037169,-0.381 -1.820337,-1.079502 -0.762001,-0.719667 -1.206502,-1.714502 -0.4445,-0.994835 -0.4445,-2.222504 0,-1.227668 0.4445,-2.222503 0.444501,-0.994835 1.206502,-1.693336 0.783168,-0.719668 1.820337,-1.100669 1.058335,-0.381 2.24367,-0.381 1.100668,0 1.98967,0.381 0.910168,0.381001 1.524002,1.100669 0.635001,0.698501 0.973668,1.693336 0.338668,0.994835 0.338668,2.222503 v 0.994835 h -7.366012 q 0.1905,0.910168 0.825501,1.460502 0.635001,0.529168 1.566336,0.529168 0.783168,0 1.312335,-0.338667 0.550335,-0.359834 0.952502,-0.910168 z m -2.688171,-4.529674 q 0.02117,-0.804335 -0.529167,-1.375836 -0.550334,-0.571501 -1.418169,-0.571501 -0.529167,0 -0.931335,0.169334 -0.402167,0.169333 -0.698501,0.444501 -0.275167,0.254 -0.444501,0.613834 -0.148167,0.338667 -0.169333,0.719668 z m 5.143496,-9.694349 h 3.175005 v 16.002025 h -3.175005 z m 5.503349,5.715009 h 3.175005 v 10.287016 h -3.175005 z m -0.254,-3.238505 q 0,-0.762001 0.529168,-1.291169 0.550334,-0.550334 1.312335,-0.550334 0.762001,0 1.291169,0.550334 0.550334,0.529168 0.550334,1.291169 0,0.762001 -0.550334,1.312335 -0.529168,0.529168 -1.291169,0.529168 -0.762001,0 -1.312335,-0.529168 -0.529168,-0.550334 -0.529168,-1.312335 z m 4.635511,3.238505 h 3.429005 l 2.603504,6.985011 h 0.04233 l 2.413004,-6.985011 h 3.196171 L 72.599385,41.277515 H 69.23388 Z m 22.584864,8.509014 q -0.762001,0.973668 -1.926169,1.502835 -1.164169,0.529168 -2.413004,0.529168 -1.185336,0 -2.243671,-0.381001 -1.037168,-0.381 -1.820336,-1.079502 -0.762001,-0.719667 -1.206502,-1.714502 -0.4445,-0.994835 -0.4445,-2.222504 0,-1.227668 0.4445,-2.222503 0.444501,-0.994835 1.206502,-1.693336 0.783168,-0.719668 1.820336,-1.100669 1.058335,-0.381 2.243671,-0.381 1.100668,0 1.989669,0.381 0.910169,0.381001 1.524003,1.100669 0.635001,0.698501 0.973668,1.693336 0.338667,0.994835 0.338667,2.222503 v 0.994835 H 80.68506 q 0.1905,0.910168 0.825501,1.460502 0.635001,0.529168 1.566336,0.529168 0.783168,0 1.312335,-0.338667 0.550334,-0.359834 0.952502,-0.910168 z m -2.688171,-4.529674 q 0.02117,-0.804335 -0.529167,-1.375836 -0.550334,-0.571501 -1.418169,-0.571501 -0.529168,0 -0.931335,0.169334 -0.402167,0.169333 -0.698501,0.444501 -0.275167,0.254 -0.444501,0.613834 -0.148167,0.338667 -0.169333,0.719668 z m 5.101163,-3.97934 h 3.175005 v 1.651003 h 0.04233 q 0.508001,-0.952502 1.206502,-1.418169 0.698501,-0.486834 1.756836,-0.486834 0.275167,0 0.550334,0.02117 0.275167,0.02117 0.508001,0.08467 v 2.899838 q -0.338667,-0.105833 -0.677334,-0.148167 -0.317501,-0.0635 -0.677335,-0.0635 -0.910168,0 -1.439335,0.254 -0.529168,0.254001 -0.825502,0.719668 -0.275167,0.444501 -0.359834,1.079502 -0.08467,0.635001 -0.08467,1.397002 v 4.29684 h -3.175005 z m 13.800671,0 h 3.429 l 2.60351,6.985011 h 0.0423 l 2.41301,-6.985011 h 3.19617 l -4.06401,10.287016 h -3.3655 z m 19.30402,8.995848 h -0.0423 q -0.52917,0.825501 -1.41817,1.185335 -0.86784,0.359834 -1.8415,0.359834 -0.71967,0 -1.39701,-0.211667 -0.65616,-0.1905 -1.16416,-0.592668 -0.50801,-0.402167 -0.80434,-0.994835 -0.29633,-0.592667 -0.29633,-1.375835 0,-0.889002 0.3175,-1.502836 0.33866,-0.613834 0.889,-1.016002 0.5715,-0.402167 1.29117,-0.613834 0.71967,-0.232834 1.48167,-0.338667 0.78316,-0.105834 1.54517,-0.127 0.78316,-0.02117 1.43933,-0.02117 0,-0.846668 -0.61383,-1.333502 -0.59267,-0.508001 -1.41817,-0.508001 -0.78317,0 -1.43934,0.338667 -0.635,0.317501 -1.143,0.889002 l -1.69334,-1.73567 q 0.88901,-0.825501 2.07434,-1.227668 1.18534,-0.423334 2.45534,-0.423334 1.397,0 2.286,0.359834 0.91017,0.338667 1.43934,1.016001 0.55033,0.677335 0.762,1.672169 0.21167,0.973669 0.21167,2.264837 v 5.228175 h -2.92101 z m -0.78317,-3.217339 q -0.35983,0 -0.91016,0.04233 -0.52917,0.02117 -1.03717,0.169333 -0.48684,0.148167 -0.84667,0.444501 -0.33867,0.296334 -0.33867,0.825501 0,0.571501 0.48684,0.846668 0.48683,0.275167 1.016,0.275167 0.46567,0 0.889,-0.127 0.4445,-0.127 0.78317,-0.359834 0.33866,-0.232833 0.52916,-0.592667 0.21167,-0.359834 0.21167,-0.846668 v -0.677335 z m 5.73619,-11.493518 h 3.17501 v 16.002025 h -3.17501 z m 15.36703,16.002025 h -3.048 v -1.397002 h -0.0423 q -0.16934,0.296334 -0.4445,0.592668 -0.254,0.296334 -0.63501,0.529167 -0.381,0.232834 -0.86783,0.381001 -0.48683,0.148167 -1.05834,0.148167 -1.2065,0 -1.9685,-0.359834 -0.74083,-0.381001 -1.16417,-1.037168 -0.40216,-0.656168 -0.55033,-1.54517 -0.127,-0.889001 -0.127,-1.926169 v -5.672676 h 3.175 v 5.037675 q 0,0.4445 0.0212,0.931335 0.0423,0.465667 0.1905,0.867834 0.16933,0.402168 0.48683,0.656168 0.33867,0.254 0.95251,0.254 0.61383,0 0.99483,-0.211667 0.381,-0.232833 0.5715,-0.592667 0.21167,-0.381001 0.27517,-0.846668 0.0635,-0.465668 0.0635,-0.973668 v -5.122342 h 3.175 z m 11.98035,-1.778002 q -0.762,0.973668 -1.92617,1.502835 -1.16417,0.529168 -2.413,0.529168 -1.18534,0 -2.24367,-0.381001 -1.03717,-0.381 -1.82034,-1.079502 -0.762,-0.719667 -1.2065,-1.714502 -0.4445,-0.994835 -0.4445,-2.222504 0,-1.227668 0.4445,-2.222503 0.4445,-0.994835 1.2065,-1.693336 0.78317,-0.719668 1.82034,-1.100669 1.05833,-0.381 2.24367,-0.381 1.10067,0 1.98967,0.381 0.91017,0.381001 1.524,1.100669 0.635,0.698501 0.97367,1.693336 0.33867,0.994835 0.33867,2.222503 v 0.994835 h -7.36602 q 0.1905,0.910168 0.82551,1.460502 0.635,0.529168 1.56633,0.529168 0.78317,0 1.31234,-0.338667 0.55033,-0.359834 0.9525,-0.910168 z m -2.68817,-4.529674 q 0.0212,-0.804335 -0.52917,-1.375836 -0.55033,-0.571501 -1.41817,-0.571501 -0.52916,0 -0.93133,0.169334 -0.40217,0.169333 -0.6985,0.444501 -0.27517,0.254 -0.4445,0.613834 -0.14817,0.338667 -0.16934,0.719668 z m 22.1615,6.307676 h -2.921 v -1.354668 h -0.0423 q -0.1905,0.275167 -0.508,0.5715 -0.29633,0.275168 -0.71967,0.508001 -0.40216,0.232834 -0.91016,0.381001 -0.48684,0.148167 -1.01601,0.148167 -1.143,0 -2.07433,-0.381001 -0.93134,-0.402167 -1.60867,-1.100668 -0.65617,-0.719668 -1.016,-1.693336 -0.35984,-0.973668 -0.35984,-2.137837 0,-1.079502 0.3175,-2.05317 0.33867,-0.994835 0.93134,-1.756836 0.61383,-0.762001 1.48167,-1.206502 0.86783,-0.465667 1.9685,-0.465667 0.99483,0 1.8415,0.3175 0.86784,0.296334 1.41817,1.037168 h 0.0423 V 25.27549 h 3.175 z m -2.921,-5.143508 q 0,-1.164168 -0.67734,-1.883836 -0.65617,-0.719668 -1.86267,-0.719668 -1.2065,0 -1.88383,0.719668 -0.65617,0.719668 -0.65617,1.883836 0,1.164169 0.65617,1.883837 0.67733,0.719667 1.88383,0.719667 1.2065,0 1.86267,-0.719667 0.67734,-0.719668 0.67734,-1.883837 z m 11.91683,3.85234 h -0.0423 q -0.52917,0.825501 -1.41817,1.185335 -0.86783,0.359834 -1.8415,0.359834 -0.71967,0 -1.397,-0.211667 -0.65617,-0.1905 -1.16417,-0.592668 -0.508,-0.402167 -0.80434,-0.994835 -0.29633,-0.592667 -0.29633,-1.375835 0,-0.889002 0.3175,-1.502836 0.33867,-0.613834 0.889,-1.016002 0.5715,-0.402167 1.29117,-0.613834 0.71967,-0.232834 1.48167,-0.338667 0.78317,-0.105834 1.54517,-0.127 0.78317,-0.02117 1.43933,-0.02117 0,-0.846668 -0.61383,-1.333502 -0.59267,-0.508001 -1.41817,-0.508001 -0.78317,0 -1.43934,0.338667 -0.635,0.317501 -1.143,0.889002 l -1.69333,-1.73567 q 0.889,-0.825501 2.07433,-1.227668 1.18534,-0.423334 2.45534,-0.423334 1.397,0 2.286,0.359834 0.91017,0.338667 1.43934,1.016001 0.55033,0.677335 0.762,1.672169 0.21167,0.973669 0.21167,2.264837 v 5.228175 h -2.92101 z m -0.78316,-3.217339 q -0.35984,0 -0.91017,0.04233 -0.52917,0.02117 -1.03717,0.169333 -0.48684,0.148167 -0.84667,0.444501 -0.33867,0.296334 -0.33867,0.825501 0,0.571501 0.48684,0.846668 0.48683,0.275167 1.016,0.275167 0.46567,0 0.889,-0.127 0.4445,-0.127 0.78317,-0.359834 0.33867,-0.232833 0.52917,-0.592667 0.21166,-0.359834 0.21166,-0.846668 v -0.677335 z m 5.73618,-5.778509 h 3.17501 v 10.287016 h -3.17501 z m -0.254,-3.238505 q 0,-0.762001 0.52917,-1.291169 0.55034,-0.550334 1.31234,-0.550334 0.762,0 1.29117,0.550334 0.55033,0.529168 0.55033,1.291169 0,0.762001 -0.55033,1.312335 -0.52917,0.529168 -1.29117,0.529168 -0.762,0 -1.31234,-0.529168 -0.52917,-0.550334 -0.52917,-1.312335 z m 5.75736,-2.476504 h 3.17501 v 16.002025 h -3.17501 z m 11.38769,17.674195 q -0.3175,0.825501 -0.61384,1.460502 -0.29633,0.635001 -0.762,1.058335 -0.4445,0.444501 -1.143,0.656168 -0.6985,0.232833 -1.8415,0.232833 -1.22767,0 -2.37067,-0.381 l 0.42333,-2.603504 q 0.71967,0.3175 1.48167,0.3175 0.52917,0 0.86783,-0.127 0.33867,-0.105833 0.55034,-0.338667 0.23283,-0.211667 0.381,-0.529168 0.14816,-0.3175 0.3175,-0.740834 l 0.23283,-0.592668 -4.50851,-10.371683 h 3.42901 l 2.64584,6.794511 h 0.0423 l 2.26484,-6.794511 h 3.25967 z m 11.34534,-16.658193 h 2.667 v 5.969009 h -2.667 z m -4.91068,0 h 2.66701 v 5.969009 h -2.66701 z"
       id="text2"
       aria-label="&quot;Deliver value daily&quot;" />
    <path
       d="m 29.224718,96.48626 h 5.198523 l -2.590794,-6.299187 z m -1.777996,4.26719 h -1.422397 l 5.215456,-11.988774 h 1.185331 l 5.215456,11.988774 h -1.422397 l -1.320797,-3.149592 h -6.129855 z m 22.910767,-3.96239 q 0,-0.660399 -0.220133,-1.236131 -0.2032,-0.575732 -0.592666,-0.999065 -0.389465,-0.423332 -0.948264,-0.660398 -0.541866,-0.254 -1.236131,-0.254 -0.694266,0 -1.253064,0.254 -0.541866,0.237066 -0.931332,0.660398 -0.372533,0.423333 -0.592665,0.999065 -0.2032,0.575732 -0.2032,1.236131 0,0.660399 0.2032,1.236131 0.220132,0.575732 0.592665,0.99906 0.389466,0.42334 0.931332,0.67734 0.558798,0.23706 1.253064,0.23706 0.694265,0 1.236131,-0.23706 0.558799,-0.254 0.948264,-0.67734 0.389466,-0.423328 0.592666,-0.99906 0.220133,-0.575732 0.220133,-1.236131 z m 1.219197,0 q 0,0.897465 -0.321732,1.659463 -0.3048,0.761998 -0.863599,1.320798 -0.558798,0.558799 -1.33773,0.880529 -0.761999,0.3048 -1.69333,0.3048 -0.914398,0 -1.69333,-0.3048 -0.761999,-0.32173 -1.320798,-0.880529 -0.558799,-0.5588 -0.880531,-1.320798 -0.3048,-0.761998 -0.3048,-1.659463 0,-0.897465 0.3048,-1.659464 0.321732,-0.761998 0.880531,-1.320797 0.558799,-0.558799 1.320798,-0.863598 0.778932,-0.321733 1.69333,-0.321733 0.931331,0 1.69333,0.321733 0.778932,0.304799 1.33773,0.863598 0.558799,0.558799 0.863599,1.320797 0.321732,0.761999 0.321732,1.659464 z m 3.098802,-3.962392 q 0.03387,0.321732 0.03387,0.643465 0.01693,0.304799 0.01693,0.626532 h 0.03387 q 0.186267,-0.321733 0.474133,-0.592665 0.287866,-0.270933 0.643465,-0.457199 0.355599,-0.2032 0.745065,-0.3048 0.406399,-0.118533 0.795865,-0.118533 1.523997,0 2.252129,0.812798 0.728132,0.795866 0.728132,2.285996 v 5.029188 h -1.117598 v -4.385723 q 0,-1.320797 -0.457199,-2.015062 -0.457199,-0.711199 -1.69333,-0.711199 -0.08467,0 -0.474132,0.06773 -0.389466,0.06773 -0.829732,0.372533 -0.423332,0.304799 -0.761998,0.914398 -0.338666,0.609599 -0.338666,1.69333 v 4.063993 h -1.117598 v -6.180655 q 0,-0.321733 -0.03387,-0.812799 -0.01693,-0.491066 -0.0508,-0.931331 z m 14.511834,3.352793 q 0,-1.134531 -0.677332,-1.828796 -0.677332,-0.711199 -1.896529,-0.711199 -0.541866,0 -1.049865,0.220133 -0.507999,0.2032 -0.897465,0.558799 -0.372532,0.355599 -0.609599,0.812798 -0.220132,0.457199 -0.220132,0.948265 z m -5.384789,0.914398 q 0.0508,0.592666 0.287866,1.117598 0.237066,0.524934 0.626532,0.914394 0.389466,0.37254 0.897465,0.59267 0.507999,0.22013 1.100665,0.22013 0.897464,0 1.54093,-0.4064 0.660399,-0.42333 0.999065,-0.965195 l 0.863598,0.711195 q -0.711199,0.897469 -1.574797,1.286929 -0.846665,0.38947 -1.828796,0.38947 -0.880532,0 -1.642531,-0.3048 -0.745065,-0.32173 -1.28693,-0.880529 -0.541866,-0.5588 -0.863599,-1.320798 -0.304799,-0.761998 -0.304799,-1.659463 0,-0.897465 0.304799,-1.659464 0.3048,-0.761998 0.846665,-1.320797 0.541866,-0.558799 1.269998,-0.863598 0.728132,-0.321733 1.574797,-0.321733 0.897465,0 1.608663,0.321733 0.711199,0.321732 1.185331,0.863598 0.491066,0.524932 0.745065,1.253064 0.254,0.711199 0.254,1.523997 v 0.507999 z m 12.412103,0.1524 h -4.351858 v -1.117598 h 4.351858 z M 85.30782,96.79106 q 0,-0.660399 -0.220133,-1.236131 -0.2032,-0.575732 -0.592666,-0.999065 -0.389466,-0.423332 -0.948264,-0.660398 -0.541866,-0.254 -1.236131,-0.254 -0.694266,0 -1.269998,0.254 -0.575732,0.237066 -0.999065,0.660398 -0.423332,0.423333 -0.660398,0.999065 -0.237066,0.575732 -0.237066,1.236131 0,0.660399 0.237066,1.236131 0.237066,0.575732 0.660398,0.99906 0.423333,0.42334 0.999065,0.67734 0.575732,0.23706 1.269998,0.23706 0.694265,0 1.236131,-0.23706 0.558798,-0.254 0.948264,-0.67734 0.389466,-0.423328 0.592666,-0.99906 0.220133,-0.575732 0.220133,-1.236131 z m -7.230519,-3.962392 h 1.117597 v 1.320797 h 0.03387 q 0.270933,-0.406399 0.643465,-0.694265 0.372533,-0.287866 0.778932,-0.474133 0.406399,-0.186266 0.829732,-0.270932 0.440266,-0.08467 0.829732,-0.08467 0.931331,0 1.69333,0.321733 0.778931,0.304799 1.33773,0.863598 0.558799,0.558799 0.863599,1.320797 0.321732,0.761999 0.321732,1.659464 0,0.897465 -0.321732,1.659463 -0.3048,0.761998 -0.863599,1.320798 -0.558799,0.558802 -1.33773,0.880532 -0.761999,0.3048 -1.69333,0.3048 -0.389466,0 -0.829732,-0.0847 -0.423333,-0.0847 -0.829732,-0.27093 -0.406399,-0.18626 -0.778932,-0.47413 -0.372532,-0.287872 -0.643465,-0.694272 h -0.03387 v 6.197592 h -1.117597 z m 10.464781,2.472261 q 0,-0.524932 -0.03387,-1.066797 -0.01693,-0.541866 -0.03387,-1.405464 h 1.100665 v 1.473197 h 0.03387 q 0.118533,-0.321733 0.338666,-0.609599 0.220133,-0.304799 0.524933,-0.541866 0.321732,-0.237066 0.728131,-0.372532 0.423333,-0.1524 0.948265,-0.1524 0.474133,0 0.829732,0.1016 l -0.220133,1.100664 q -0.220133,-0.08467 -0.643465,-0.08467 -0.643466,0 -1.100665,0.253999 -0.457199,0.237067 -0.761998,0.626532 -0.3048,0.372533 -0.457199,0.812799 -0.135467,0.440266 -0.135467,0.846665 v 4.470393 h -1.117598 z m 7.128932,-5.520255 q 0,0.355599 -0.253999,0.592665 -0.254,0.220133 -0.558799,0.220133 -0.3048,0 -0.558799,-0.220133 -0.254,-0.237066 -0.254,-0.592665 0,-0.3556 0.254,-0.575733 0.253999,-0.237066 0.558799,-0.237066 0.304799,0 0.558799,0.237066 0.253999,0.220133 0.253999,0.575733 z m -0.253999,10.972776 h -1.117598 v -7.924782 h 1.117598 z m 3.759184,-7.924782 q 0.0339,0.321732 0.0339,0.643465 0.0169,0.304799 0.0169,0.626532 h 0.0339 q 0.18627,-0.321733 0.47413,-0.592665 0.287871,-0.270933 0.643471,-0.457199 0.3556,-0.2032 0.74506,-0.3048 0.4064,-0.118533 0.79587,-0.118533 1.524,0 2.25213,0.812798 0.72813,0.795866 0.72813,2.285996 v 5.029188 h -1.1176 v -4.385723 q 0,-1.320797 -0.4572,-2.015062 -0.4572,-0.711199 -1.69333,-0.711199 -0.0847,0 -0.47413,0.06773 -0.38947,0.06773 -0.82973,0.372533 -0.423331,0.304799 -0.762001,0.914398 -0.33867,0.609599 -0.33867,1.69333 v 4.063993 h -1.11759 v -6.180655 q 0,-0.321733 -0.0339,-0.812799 -0.0169,-0.491066 -0.0508,-0.931331 z m 14.122371,1.862663 q -0.28787,-0.440266 -0.8128,-0.745066 -0.508,-0.304799 -1.1684,-0.304799 -0.69426,-0.01693 -1.25306,0.220133 -0.54187,0.237066 -0.93133,0.660399 -0.38947,0.423332 -0.59267,1.015998 -0.2032,0.575732 -0.2032,1.253064 0,0.677332 0.2032,1.269997 0.2032,0.575733 0.59267,0.999064 0.38946,0.42333 0.93133,0.6604 0.5588,0.23707 1.25306,0.22013 0.6604,0 1.1684,-0.3048 0.52493,-0.3048 0.8128,-0.74506 l 0.9144,0.69426 q -0.59267,0.694269 -1.33773,1.032929 -0.74507,0.32174 -1.55787,0.33867 -0.96519,0.0169 -1.74413,-0.28787 -0.77893,-0.32173 -1.33773,-0.880529 -0.54186,-0.5588 -0.82973,-1.320794 -0.28786,-0.778932 -0.28786,-1.676397 0,-0.897465 0.28786,-1.659464 0.28787,-0.778931 0.82973,-1.33773 0.5588,-0.558799 1.33773,-0.863599 0.77894,-0.321732 1.74413,-0.304799 0.8128,0.01693 1.55787,0.355599 0.74506,0.321733 1.33773,1.015998 z m 4.0132,-4.910657 q 0,0.355599 -0.254,0.592665 -0.254,0.220133 -0.5588,0.220133 -0.3048,0 -0.5588,-0.220133 -0.254,-0.237066 -0.254,-0.592665 0,-0.3556 0.254,-0.575733 0.254,-0.237066 0.5588,-0.237066 0.3048,0 0.5588,0.237066 0.254,0.220133 0.254,0.575733 z m -0.254,10.972776 h -1.1176 v -7.924782 h 1.1176 z m 9.92291,-3.96239 q 0,-0.660399 -0.22013,-1.236131 -0.2032,-0.575732 -0.59267,-0.999065 -0.38946,-0.423332 -0.94826,-0.660398 -0.54187,-0.254 -1.23613,-0.254 -0.69427,0 -1.27,0.254 -0.57573,0.237066 -0.99907,0.660398 -0.42333,0.423333 -0.6604,0.999065 -0.23706,0.575732 -0.23706,1.236131 0,0.660399 0.23706,1.236131 0.23707,0.575732 0.6604,0.99906 0.42334,0.42334 0.99907,0.67734 0.57573,0.23706 1.27,0.23706 0.69426,0 1.23613,-0.23706 0.5588,-0.254 0.94826,-0.67734 0.38947,-0.423328 0.59267,-0.99906 0.22013,-0.575732 0.22013,-1.236131 z m -7.23052,-3.962392 h 1.1176 v 1.320797 h 0.0339 q 0.27093,-0.406399 0.64346,-0.694265 0.37253,-0.287866 0.77893,-0.474133 0.4064,-0.186266 0.82973,-0.270932 0.44027,-0.08467 0.82974,-0.08467 0.93133,0 1.69333,0.321733 0.77893,0.304799 1.33773,0.863598 0.5588,0.558799 0.86359,1.320797 0.32174,0.761999 0.32174,1.659464 0,0.897465 -0.32174,1.659463 -0.30479,0.761998 -0.86359,1.320798 -0.5588,0.558802 -1.33773,0.880532 -0.762,0.3048 -1.69333,0.3048 -0.38947,0 -0.82974,-0.0847 -0.42333,-0.0847 -0.82973,-0.27093 -0.4064,-0.18626 -0.77893,-0.47413 -0.37253,-0.287872 -0.64346,-0.694272 h -0.0339 v 6.197592 h -1.1176 z m 11.71785,7.924782 h -1.1176 V 87.951877 h 1.1176 z m 8.85611,-4.571989 q 0,-1.134531 -0.67733,-1.828796 -0.67733,-0.711199 -1.89653,-0.711199 -0.54187,0 -1.04986,0.220133 -0.508,0.2032 -0.89747,0.558799 -0.37253,0.355599 -0.6096,0.812798 -0.22013,0.457199 -0.22013,0.948265 z m -5.38479,0.914398 q 0.0508,0.592666 0.28787,1.117598 0.23707,0.524934 0.62653,0.914394 0.38947,0.37254 0.89747,0.59267 0.50799,0.22013 1.10066,0.22013 0.89747,0 1.54093,-0.4064 0.6604,-0.42333 0.99907,-0.965195 l 0.86359,0.711195 q -0.71119,0.897469 -1.57479,1.286929 -0.84667,0.38947 -1.8288,0.38947 -0.88053,0 -1.64253,-0.3048 -0.74506,-0.32173 -1.28693,-0.880529 -0.54187,-0.5588 -0.8636,-1.320798 -0.3048,-0.761998 -0.3048,-1.659463 0,-0.897465 0.3048,-1.659464 0.3048,-0.761998 0.84667,-1.320797 0.54186,-0.558799 1.26999,-0.863598 0.72814,-0.321733 1.5748,-0.321733 0.89747,0 1.60866,0.321733 0.7112,0.321732 1.18534,0.863598 0.49106,0.524932 0.74506,1.253064 0.254,0.711199 0.254,1.523997 v 0.507999 z M 27.243522,114.90969 q 0,-0.44027 -0.03387,-0.88053 -0.01693,-0.44027 -0.0508,-0.88054 h 1.202264 v 1.20227 h 0.03387 q 0.406399,-0.69427 1.117597,-1.04987 0.728132,-0.35559 1.439331,-0.35559 0.321733,0 0.677332,0.0677 0.372533,0.0677 0.711199,0.254 0.338666,0.16933 0.626532,0.49106 0.304799,0.32174 0.507999,0.82974 0.338666,-0.762 1.066798,-1.20227 0.745065,-0.44026 1.54093,-0.44026 1.523997,0 2.252129,0.81279 0.728132,0.79587 0.728132,2.286 v 5.02919 h -1.117598 v -4.62279 q 0,-1.20227 -0.423333,-1.84573 -0.423332,-0.64347 -1.574797,-0.64347 -0.626532,0 -1.049864,0.254 -0.423333,0.23707 -0.694265,0.64347 -0.254,0.4064 -0.372533,0.93133 -0.118533,0.508 -0.118533,1.0668 v 4.21639 h -1.117598 v -4.62279 q 0,-1.20227 -0.423332,-1.84573 -0.423333,-0.64347 -1.574797,-0.64347 -0.1016,0 -0.474133,0.0677 -0.355599,0.0677 -0.745065,0.37253 -0.389466,0.3048 -0.711199,0.9144 -0.304799,0.6096 -0.304799,1.69333 v 4.06399 h -1.117598 z m 18.931417,2.21826 q -0.423332,0 -1.066798,0.0508 -0.626532,0.0339 -1.219197,0.2032 -0.575732,0.1524 -0.999065,0.49107 -0.406399,0.33866 -0.406399,0.93133 0,0.38946 0.1524,0.67733 0.169333,0.27093 0.440265,0.4572 0.270933,0.16933 0.592666,0.254 0.338666,0.0677 0.677332,0.0677 0.609599,0 1.049865,-0.2032 0.457199,-0.2032 0.761998,-0.54186 0.304799,-0.3556 0.440266,-0.8128 0.1524,-0.47414 0.1524,-0.99907 v -0.57573 z m 0.575733,-0.9144 v -0.2032 q 0,-2.04893 -2.031996,-2.04893 -1.388531,0 -2.421462,0.93133 l -0.677332,-0.79586 q 1.117597,-1.15146 3.352793,-1.15146 0.575732,0 1.100665,0.16933 0.541865,0.16933 0.931331,0.52493 0.389466,0.33867 0.626532,0.8636 0.237066,0.52493 0.237066,1.25306 v 3.53906 q 0,0.4572 0.03387,0.9652 0.0508,0.49107 0.1016,0.8128 h -1.083731 q -0.0508,-0.28787 -0.08467,-0.62653 -0.01693,-0.33867 -0.01693,-0.6604 h -0.03387 q -0.491066,0.79586 -1.168398,1.15146 -0.660398,0.33867 -1.625596,0.33867 -0.524933,0 -1.015998,-0.1524 -0.491066,-0.13547 -0.880532,-0.42333 -0.372533,-0.3048 -0.609599,-0.72814 -0.220133,-0.44026 -0.220133,-1.01599 0,-0.9652 0.491066,-1.50707 0.507999,-0.5588 1.253064,-0.82973 0.761999,-0.27093 1.608664,-0.33866 0.863598,-0.0677 1.574797,-0.0677 z m 4.775175,-3.06493 q 0.03387,0.32174 0.03387,0.64347 0.01693,0.3048 0.01693,0.62653 h 0.03387 q 0.186267,-0.32173 0.474133,-0.59266 0.287866,-0.27094 0.643465,-0.4572 0.355599,-0.2032 0.745065,-0.3048 0.406399,-0.11853 0.795865,-0.11853 1.523997,0 2.252129,0.81279 0.728132,0.79587 0.728132,2.286 v 5.02919 h -1.117598 v -4.38573 q 0,-1.32079 -0.457199,-2.01506 -0.457199,-0.7112 -1.69333,-0.7112 -0.08467,0 -0.474132,0.0677 -0.389466,0.0677 -0.829732,0.37253 -0.423332,0.3048 -0.761998,0.9144 -0.338666,0.6096 -0.338666,1.69333 v 4.06403 h -1.117602 v -6.18066 q 0,-0.32173 -0.03387,-0.81279 -0.01693,-0.49107 -0.0508,-0.93134 z m 9.973708,-3.04799 q 0,0.3556 -0.254,0.59267 -0.253999,0.22013 -0.558798,0.22013 -0.3048,0 -0.558799,-0.22013 -0.254,-0.23707 -0.254,-0.59267 0,-0.3556 0.254,-0.57573 0.253999,-0.23707 0.558799,-0.23707 0.304799,0 0.558798,0.23707 0.254,0.22013 0.254,0.57573 z m -0.254,10.97278 h -1.117597 v -7.92479 h 1.117597 z m 6.38385,-6.90879 h -1.879596 v 6.90879 h -1.117598 v -6.90879 h -1.676396 v -1.016 h 1.676396 v -2.16746 q 0,-1.57479 0.728132,-2.23519 0.728132,-0.67734 1.930396,-0.67734 0.237067,0 0.474133,0.0339 0.253999,0.0339 0.491065,0.0847 l -0.203199,1.016 q -0.2032,-0.0508 -0.423333,-0.0847 -0.220133,-0.0339 -0.440265,-0.0339 -0.4572,0 -0.745066,0.1524 -0.287866,0.1524 -0.440265,0.44027 -0.1524,0.27093 -0.2032,0.64346 -0.0508,0.37254 -0.0508,0.79587 v 2.03199 h 1.879596 z m 7.484511,2.3368 q 0,-1.13453 -0.677332,-1.8288 -0.677332,-0.7112 -1.89653,-0.7112 -0.541865,0 -1.049864,0.22014 -0.507999,0.2032 -0.897465,0.5588 -0.372533,0.35559 -0.609599,0.81279 -0.220133,0.4572 -0.220133,0.94827 z m -5.384789,0.9144 q 0.0508,0.59266 0.287866,1.11759 0.237066,0.52494 0.626532,0.9144 0.389466,0.37254 0.897465,0.59267 0.507999,0.22013 1.100664,0.22013 0.897465,0 1.540931,-0.4064 0.660398,-0.42333 0.999064,-0.9652 l 0.863599,0.7112 q -0.711199,0.89747 -1.574797,1.28693 -0.846665,0.38947 -1.828797,0.38947 -0.880531,0 -1.64253,-0.3048 -0.745065,-0.32173 -1.286931,-0.88053 -0.541865,-0.5588 -0.863598,-1.3208 -0.304799,-0.762 -0.304799,-1.65946 0,-0.89747 0.304799,-1.65947 0.304799,-0.76199 0.846665,-1.32079 0.541866,-0.5588 1.269998,-0.8636 0.728131,-0.32173 1.574796,-0.32173 0.897465,0 1.608664,0.32173 0.711199,0.32173 1.185331,0.8636 0.491066,0.52493 0.745065,1.25306 0.254,0.7112 0.254,1.524 v 0.508 z m 12.835439,-2.3876 q -0.253999,-0.49106 -0.677332,-0.77893 -0.423332,-0.28787 -1.032931,-0.28787 -0.287866,0 -0.592665,0.0677 -0.287866,0.0677 -0.524933,0.22013 -0.237066,0.13547 -0.389466,0.3556 -0.135466,0.22013 -0.135466,0.54186 0,0.5588 0.389466,0.8128 0.389466,0.254 1.168398,0.44027 l 1.134531,0.27093 q 0.829731,0.18627 1.371597,0.762 0.558799,0.5588 0.558799,1.40546 0,0.64347 -0.270933,1.1176 -0.253999,0.4572 -0.694265,0.762 -0.423333,0.28787 -0.982132,0.42333 -0.558798,0.13547 -1.134531,0.13547 -0.914398,0 -1.710263,-0.33867 -0.778932,-0.3556 -1.337731,-1.20226 l 0.965198,-0.6604 q 0.338666,0.54187 0.846665,0.8636 0.524933,0.32173 1.236131,0.32173 0.338666,0 0.677332,-0.0677 0.338666,-0.0847 0.592666,-0.23707 0.270933,-0.16933 0.423332,-0.42333 0.169333,-0.254 0.169333,-0.59267 0,-0.59266 -0.440265,-0.84666 -0.440266,-0.27093 -1.066798,-0.42333 l -1.083732,-0.254 q -0.203199,-0.0508 -0.558798,-0.16934 -0.338666,-0.11853 -0.677332,-0.3556 -0.321733,-0.23706 -0.558799,-0.60959 -0.237067,-0.38947 -0.237067,-0.94827 0,-0.6096 0.237067,-1.0668 0.253999,-0.4572 0.660398,-0.74506 0.423333,-0.28787 0.948265,-0.42333 0.524932,-0.1524 1.083731,-0.1524 0.829732,0 1.540931,0.32173 0.711198,0.32173 1.100664,1.10066 z m 7.111997,-0.8636 h -2.285995 v 4.67359 q 0,0.44027 0.08467,0.72814 0.08467,0.27093 0.237066,0.42333 0.1524,0.1524 0.3556,0.22013 0.220132,0.0508 0.474132,0.0508 0.287866,0 0.592665,-0.0847 0.3048,-0.0847 0.558799,-0.22013 l 0.0508,1.03293 q -0.626532,0.28787 -1.507063,0.28787 -0.321733,0 -0.677332,-0.0847 -0.338666,-0.0847 -0.626533,-0.32173 -0.287866,-0.23707 -0.474132,-0.64347 -0.186266,-0.40639 -0.186266,-1.06679 v -4.99533 h -1.676397 v -1.016 h 1.676397 v -2.23519 h 1.117598 v 2.23519 h 2.285995 z m 8.314256,2.9464 q 0,-0.6604 -0.22013,-1.23613 -0.2032,-0.57574 -0.59267,-0.99907 -0.38946,-0.42333 -0.94826,-0.6604 -0.541866,-0.254 -1.236131,-0.254 -0.694265,0 -1.253064,0.254 -0.541866,0.23707 -0.931332,0.6604 -0.372532,0.42333 -0.592665,0.99907 -0.2032,0.57573 -0.2032,1.23613 0,0.6604 0.2032,1.23613 0.220133,0.57573 0.592665,0.99906 0.389466,0.42334 0.931332,0.67733 0.558799,0.23707 1.253064,0.23707 0.694265,0 1.236131,-0.23707 0.5588,-0.25399 0.94826,-0.67733 0.38947,-0.42333 0.59267,-0.99906 0.22013,-0.57573 0.22013,-1.23613 z m 1.2192,0 q 0,0.89746 -0.32173,1.65946 -0.3048,0.762 -0.8636,1.3208 -0.5588,0.5588 -1.33773,0.88053 -0.762,0.3048 -1.693331,0.3048 -0.914398,0 -1.69333,-0.3048 -0.761999,-0.32173 -1.320797,-0.88053 -0.558799,-0.5588 -0.880532,-1.3208 -0.304799,-0.762 -0.304799,-1.65946 0,-0.89747 0.304799,-1.65947 0.321733,-0.76199 0.880532,-1.32079 0.558798,-0.5588 1.320797,-0.8636 0.778932,-0.32173 1.69333,-0.32173 0.931331,0 1.693331,0.32173 0.77893,0.3048 1.33773,0.8636 0.5588,0.5588 0.8636,1.32079 0.32173,0.762 0.32173,1.65947 z m 10.430921,-2.9464 h -1.8796 v 6.90879 h -1.1176 v -6.90879 h -1.67639 v -1.016 h 1.67639 v -2.16746 q 0,-1.57479 0.72814,-2.23519 0.72813,-0.67734 1.93039,-0.67734 0.23707,0 0.47413,0.0339 0.254,0.0339 0.49107,0.0847 l -0.2032,1.016 q -0.2032,-0.0508 -0.42333,-0.0847 -0.22013,-0.0339 -0.44027,-0.0339 -0.4572,0 -0.74506,0.1524 -0.28787,0.1524 -0.44027,0.44027 -0.1524,0.27093 -0.2032,0.64346 -0.0508,0.37254 -0.0508,0.79587 v 2.03199 h 1.8796 z m 8.11104,2.9464 q 0,-0.6604 -0.22013,-1.23613 -0.2032,-0.57574 -0.59266,-0.99907 -0.38947,-0.42333 -0.94827,-0.6604 -0.54186,-0.254 -1.23613,-0.254 -0.69426,0 -1.25306,0.254 -0.54187,0.23707 -0.93133,0.6604 -0.37254,0.42333 -0.59267,0.99907 -0.2032,0.57573 -0.2032,1.23613 0,0.6604 0.2032,1.23613 0.22013,0.57573 0.59267,0.99906 0.38946,0.42334 0.93133,0.67733 0.5588,0.23707 1.25306,0.23707 0.69427,0 1.23613,-0.23707 0.5588,-0.25399 0.94827,-0.67733 0.38946,-0.42333 0.59266,-0.99906 0.22013,-0.57573 0.22013,-1.23613 z m 1.2192,0 q 0,0.89746 -0.32173,1.65946 -0.3048,0.762 -0.8636,1.3208 -0.5588,0.5588 -1.33773,0.88053 -0.762,0.3048 -1.69333,0.3048 -0.9144,0 -1.69333,-0.3048 -0.762,-0.32173 -1.3208,-0.88053 -0.5588,-0.5588 -0.88053,-1.3208 -0.3048,-0.762 -0.3048,-1.65946 0,-0.89747 0.3048,-1.65947 0.32173,-0.76199 0.88053,-1.32079 0.5588,-0.5588 1.3208,-0.8636 0.77893,-0.32173 1.69333,-0.32173 0.93133,0 1.69333,0.32173 0.77893,0.3048 1.33773,0.8636 0.5588,0.5588 0.8636,1.32079 0.32173,0.762 0.32173,1.65947 z m 2.15054,-1.49013 q 0,-0.52494 -0.0339,-1.0668 -0.0169,-0.54187 -0.0339,-1.40547 h 1.10067 v 1.4732 h 0.0339 q 0.11854,-0.32173 0.33867,-0.6096 0.22013,-0.3048 0.52493,-0.54186 0.32173,-0.23707 0.72813,-0.37253 0.42334,-0.1524 0.94827,-0.1524 0.47413,0 0.82973,0.1016 l -0.22013,1.10066 q -0.22014,-0.0847 -0.64347,-0.0847 -0.64346,0 -1.10066,0.254 -0.4572,0.23707 -0.762,0.62653 -0.3048,0.37254 -0.4572,0.8128 -0.13547,0.44027 -0.13547,0.84667 v 4.47039 h -1.11759 z m 14.71504,1.50706 q -0.42333,0 -1.0668,0.0508 -0.62653,0.0339 -1.21919,0.2032 -0.57574,0.1524 -0.99907,0.49107 -0.4064,0.33866 -0.4064,0.93133 0,0.38946 0.1524,0.67733 0.16934,0.27093 0.44027,0.4572 0.27093,0.16933 0.59266,0.254 0.33867,0.0677 0.67734,0.0677 0.6096,0 1.04986,-0.2032 0.4572,-0.2032 0.762,-0.54186 0.3048,-0.3556 0.44027,-0.8128 0.15239,-0.47414 0.15239,-0.99907 v -0.57573 z m 0.57573,-0.9144 v -0.2032 q 0,-2.04893 -2.03199,-2.04893 -1.38853,0 -2.42146,0.93133 l -0.67734,-0.79586 q 1.1176,-1.15146 3.3528,-1.15146 0.57573,0 1.10066,0.16933 0.54187,0.16933 0.93133,0.52493 0.38947,0.33867 0.62654,0.8636 0.23706,0.52493 0.23706,1.25306 v 3.53906 q 0,0.4572 0.0339,0.9652 0.0508,0.49107 0.1016,0.8128 h -1.08373 q -0.0508,-0.28787 -0.0847,-0.62653 -0.0169,-0.33867 -0.0169,-0.6604 h -0.0339 q -0.49106,0.79586 -1.1684,1.15146 -0.66039,0.33867 -1.62559,0.33867 -0.52494,0 -1.016,-0.1524 -0.49107,-0.13547 -0.88053,-0.42333 -0.37254,-0.3048 -0.6096,-0.72814 -0.22013,-0.44026 -0.22013,-1.01599 0,-0.9652 0.49106,-1.50707 0.508,-0.5588 1.25307,-0.82973 0.76199,-0.27093 1.60866,-0.33866 0.8636,-0.0677 1.5748,-0.0677 z m 4.52118,0.79587 q 0,0.62653 0.22013,1.18533 0.23707,0.54186 0.62654,0.9652 0.4064,0.4064 0.93133,0.6604 0.54186,0.23706 1.1684,0.23706 0.60959,0 1.15146,-0.22013 0.5588,-0.22013 0.98213,-0.6096 0.42333,-0.4064 0.64347,-0.9652 0.23706,-0.5588 0.22013,-1.25306 0,-0.62653 -0.2032,-1.1684 -0.2032,-0.5588 -0.59267,-0.9652 -0.38946,-0.42333 -0.94826,-0.6604 -0.5588,-0.254 -1.25306,-0.254 -0.62654,0 -1.1684,0.254 -0.52493,0.23707 -0.93133,0.6604 -0.38947,0.4064 -0.62654,0.9652 -0.22013,0.54187 -0.22013,1.1684 z m -0.2032,5.65572 q 0.49107,0.6604 1.27,1.04986 0.79586,0.4064 1.76106,0.4064 0.84667,0 1.43933,-0.254 0.59267,-0.23706 0.94827,-0.66039 0.37253,-0.42334 0.52493,-0.99907 0.16933,-0.5588 0.16933,-1.20226 v -1.4224 h -0.0339 q -0.54187,0.8128 -1.3208,1.15146 -0.77893,0.33867 -1.64253,0.33867 -0.8636,0 -1.6256,-0.3048 -0.74506,-0.3048 -1.30386,-0.82973 -0.5588,-0.54187 -0.88053,-1.28693 -0.32174,-0.74507 -0.32174,-1.60867 0,-0.86359 0.3048,-1.60866 0.3048,-0.74506 0.82973,-1.30386 0.54187,-0.5588 1.27,-0.8636 0.74507,-0.32173 1.6256,-0.32173 0.3556,0 0.74506,0.0677 0.4064,0.0677 0.79587,0.23706 0.4064,0.16934 0.79586,0.47414 0.38947,0.28786 0.72814,0.74506 h 0.0339 v -1.3208 h 1.1176 v 7.85706 q 0,0.64346 -0.16933,1.37159 -0.1524,0.72814 -0.62653,1.33773 -0.4572,0.6096 -1.28693,1.016 -0.82974,0.4064 -2.16747,0.4064 -1.18533,0 -2.11666,-0.38946 -0.93133,-0.38947 -1.69333,-1.20227 z m 11.36225,-12.56451 q 0,0.3556 -0.254,0.59267 -0.254,0.22013 -0.5588,0.22013 -0.3048,0 -0.55879,-0.22013 -0.254,-0.23707 -0.254,-0.59267 0,-0.3556 0.254,-0.57573 0.25399,-0.23707 0.55879,-0.23707 0.3048,0 0.5588,0.23707 0.254,0.22013 0.254,0.57573 z m -0.254,10.97278 h -1.11759 v -7.92479 h 1.11759 z m 4.06399,0 h -1.1176 v -12.80158 h 1.1176 z m 8.85611,-4.57199 q 0,-1.13453 -0.67733,-1.8288 -0.67733,-0.7112 -1.89653,-0.7112 -0.54187,0 -1.04986,0.22014 -0.508,0.2032 -0.89747,0.5588 -0.37253,0.35559 -0.6096,0.81279 -0.22013,0.4572 -0.22013,0.94827 z m -5.38479,0.9144 q 0.0508,0.59266 0.28787,1.11759 0.23707,0.52494 0.62653,0.9144 0.38947,0.37254 0.89747,0.59267 0.50799,0.22013 1.10066,0.22013 0.89747,0 1.54093,-0.4064 0.6604,-0.42333 0.99907,-0.9652 l 0.86359,0.7112 q -0.71119,0.89747 -1.57479,1.28693 -0.84667,0.38947 -1.8288,0.38947 -0.88053,0 -1.64253,-0.3048 -0.74506,-0.32173 -1.28693,-0.88053 -0.54187,-0.5588 -0.8636,-1.3208 -0.3048,-0.762 -0.3048,-1.65946 0,-0.89747 0.3048,-1.65947 0.3048,-0.76199 0.84667,-1.32079 0.54186,-0.5588 1.26999,-0.8636 0.72814,-0.32173 1.5748,-0.32173 0.89747,0 1.60866,0.32173 0.7112,0.32173 1.18534,0.8636 0.49106,0.52493 0.74506,1.25306 0.254,0.7112 0.254,1.524 v 0.508 z M 31.442981,135.34819 q -0.254,-0.49107 -0.677332,-0.77893 -0.423333,-0.28787 -1.032932,-0.28787 -0.287866,0 -0.592665,0.0677 -0.287866,0.0677 -0.524932,0.22013 -0.237067,0.13547 -0.389466,0.3556 -0.135467,0.22013 -0.135467,0.54186 0,0.5588 0.389466,0.8128 0.389466,0.254 1.168398,0.44027 l 1.134531,0.27093 q 0.829732,0.18627 1.371597,0.762 0.558799,0.5588 0.558799,1.40546 0,0.64347 -0.270933,1.1176 -0.253999,0.4572 -0.694265,0.762 -0.423332,0.28787 -0.982131,0.42333 -0.558799,0.13547 -1.134531,0.13547 -0.914399,0 -1.710264,-0.33867 -0.778932,-0.3556 -1.33773,-1.20226 l 0.965198,-0.6604 q 0.338666,0.54186 0.846665,0.8636 0.524932,0.32173 1.236131,0.32173 0.338666,0 0.677332,-0.0677 0.338666,-0.0847 0.592665,-0.23707 0.270933,-0.16933 0.423333,-0.42333 0.169333,-0.254 0.169333,-0.59267 0,-0.59266 -0.440266,-0.84666 -0.440266,-0.27094 -1.066798,-0.42333 l -1.083731,-0.254 q -0.2032,-0.0508 -0.558799,-0.16934 -0.338666,-0.11853 -0.677332,-0.3556 -0.321733,-0.23706 -0.558799,-0.6096 -0.237066,-0.38946 -0.237066,-0.94826 0,-0.6096 0.237066,-1.0668 0.253999,-0.4572 0.660399,-0.74506 0.423332,-0.28787 0.948264,-0.42334 0.524933,-0.1524 1.083732,-0.1524 0.829731,0 1.54093,0.32174 0.711198,0.32173 1.100664,1.10066 z m 9.80439,2.0828 q 0,-0.6604 -0.220132,-1.23613 -0.2032,-0.57574 -0.592666,-0.99907 -0.389466,-0.42333 -0.948265,-0.6604 -0.541865,-0.254 -1.236131,-0.254 -0.694265,0 -1.253064,0.254 -0.541866,0.23707 -0.931331,0.6604 -0.372533,0.42333 -0.592666,0.99907 -0.2032,0.57573 -0.2032,1.23613 0,0.6604 0.2032,1.23613 0.220133,0.57573 0.592666,0.99906 0.389465,0.42333 0.931331,0.67733 0.558799,0.23707 1.253064,0.23707 0.694266,0 1.236131,-0.23707 0.558799,-0.254 0.948265,-0.67733 0.389466,-0.42333 0.592666,-0.99906 0.220132,-0.57573 0.220132,-1.23613 z m 1.219198,0 q 0,0.89746 -0.321733,1.65946 -0.304799,0.762 -0.863598,1.3208 -0.558799,0.5588 -1.337731,0.88053 -0.761998,0.3048 -1.69333,0.3048 -0.914398,0 -1.69333,-0.3048 -0.761998,-0.32173 -1.320797,-0.88053 -0.558799,-0.5588 -0.880532,-1.3208 -0.304799,-0.762 -0.304799,-1.65946 0,-0.89747 0.304799,-1.65947 0.321733,-0.762 0.880532,-1.32079 0.558799,-0.5588 1.320797,-0.8636 0.778932,-0.32174 1.69333,-0.32174 0.931332,0 1.69333,0.32174 0.778932,0.3048 1.337731,0.8636 0.558799,0.55879 0.863598,1.32079 0.321733,0.762 0.321733,1.65947 z m 5.723463,-2.9464 h -1.879596 v 6.90879 h -1.117598 v -6.90879 h -1.676397 v -1.016 h 1.676397 v -2.16746 q 0,-1.5748 0.728132,-2.23519 0.728132,-0.67734 1.930396,-0.67734 0.237066,0 0.474133,0.0339 0.253999,0.0339 0.491065,0.0847 l -0.203199,1.016 q -0.2032,-0.0508 -0.423333,-0.0847 -0.220133,-0.0339 -0.440266,-0.0339 -0.457199,0 -0.745065,0.1524 -0.287866,0.1524 -0.440266,0.44027 -0.152399,0.27093 -0.203199,0.64346 -0.0508,0.37254 -0.0508,0.79587 v 2.03199 h 1.879596 z m 5.418648,0 h -2.285995 v 4.67359 q 0,0.44027 0.08467,0.72813 0.08467,0.27094 0.237067,0.42334 0.152399,0.1524 0.355599,0.22013 0.220133,0.0508 0.474132,0.0508 0.287866,0 0.592666,-0.0847 0.304799,-0.0847 0.558799,-0.22013 l 0.0508,1.03293 q -0.626532,0.28787 -1.507064,0.28787 -0.321733,0 -0.677332,-0.0847 -0.338666,-0.0847 -0.626532,-0.32173 -0.287866,-0.23707 -0.474133,-0.64347 -0.186266,-0.4064 -0.186266,-1.06679 v -4.99533 h -1.676397 v -1.016 h 1.676397 v -2.23519 h 1.117598 v 2.23519 h 2.285995 z m 1.862676,-1.016 1.828796,6.43466 h 0.03387 l 2.116663,-6.43466 h 1.151464 l 2.116662,6.43466 h 0.03387 l 1.828796,-6.43466 h 1.320798 l -2.506129,7.92479 h -1.253064 l -2.099729,-6.50239 h -0.03387 l -2.099729,6.50239 H 56.65669 l -2.506128,-7.92479 z m 16.391437,3.97933 q -0.423332,0 -1.066798,0.0508 -0.626532,0.0339 -1.219197,0.2032 -0.575733,0.1524 -0.999065,0.49106 -0.406399,0.33867 -0.406399,0.93134 0,0.38946 0.152399,0.67733 0.169333,0.27093 0.440266,0.4572 0.270933,0.16933 0.592666,0.254 0.338666,0.0677 0.677332,0.0677 0.609599,0 1.049864,-0.2032 0.457199,-0.2032 0.761999,-0.54187 0.304799,-0.35559 0.440266,-0.81279 0.152399,-0.47414 0.152399,-0.99907 v -0.57573 z m 0.575732,-0.9144 v -0.2032 q 0,-2.04893 -2.031996,-2.04893 -1.38853,0 -2.421462,0.93133 l -0.677332,-0.79586 q 1.117598,-1.15147 3.352794,-1.15147 0.575732,0 1.100664,0.16934 0.541866,0.16933 0.931332,0.52493 0.389466,0.33867 0.626532,0.8636 0.237066,0.52493 0.237066,1.25306 v 3.53906 q 0,0.4572 0.03387,0.9652 0.0508,0.49107 0.1016,0.8128 h -1.083732 q -0.0508,-0.28787 -0.08467,-0.62653 -0.01693,-0.33867 -0.01693,-0.6604 h -0.03387 q -0.491066,0.79586 -1.168398,1.15146 -0.660398,0.33867 -1.625597,0.33867 -0.524932,0 -1.015998,-0.1524 -0.491065,-0.13547 -0.880531,-0.42333 -0.372533,-0.3048 -0.609599,-0.72814 -0.220133,-0.44026 -0.220133,-1.01599 0,-0.9652 0.491066,-1.50707 0.507999,-0.5588 1.253064,-0.82973 0.761999,-0.27093 1.608664,-0.33867 0.863598,-0.0677 1.574796,-0.0677 z m 3.826908,-0.59266 q 0,-0.52494 -0.03387,-1.0668 -0.01693,-0.54187 -0.03387,-1.40547 h 1.100664 v 1.4732 h 0.03387 q 0.118533,-0.32173 0.338666,-0.6096 0.220133,-0.3048 0.524932,-0.54186 0.321733,-0.23707 0.728132,-0.37254 0.423332,-0.1524 0.948265,-0.1524 0.474132,0 0.829731,0.1016 l -0.220132,1.10067 q -0.220133,-0.0847 -0.643466,-0.0847 -0.643465,0 -1.100664,0.254 -0.457199,0.23707 -0.761999,0.62653 -0.304799,0.37254 -0.457199,0.8128 -0.135466,0.44027 -0.135466,0.84667 v 4.47039 h -1.117598 z m 11.362266,0.88053 q 0,-1.13453 -0.677332,-1.8288 -0.677332,-0.7112 -1.89653,-0.7112 -0.541866,0 -1.049865,0.22014 -0.507999,0.2032 -0.897465,0.55879 -0.372532,0.3556 -0.609598,0.8128 -0.220133,0.4572 -0.220133,0.94827 z m -5.38479,0.9144 q 0.0508,0.59266 0.287866,1.11759 0.237066,0.52494 0.626532,0.9144 0.389466,0.37253 0.897465,0.59267 0.507999,0.22013 1.100665,0.22013 0.897465,0 1.54093,-0.4064 0.660399,-0.42333 0.999065,-0.9652 l 0.863598,0.7112 q -0.711198,0.89747 -1.574797,1.28693 -0.846665,0.38947 -1.828796,0.38947 -0.880532,0 -1.64253,-0.3048 -0.745066,-0.32173 -1.286931,-0.88053 -0.541866,-0.5588 -0.863598,-1.3208 -0.3048,-0.762 -0.3048,-1.65946 0,-0.89747 0.3048,-1.65947 0.304799,-0.762 0.846665,-1.32079 0.541865,-0.5588 1.269997,-0.8636 0.728132,-0.32174 1.574797,-0.32174 0.897465,0 1.608664,0.32174 0.711198,0.32173 1.185331,0.8636 0.491065,0.52493 0.745065,1.25306 0.253999,0.7112 0.253999,1.524 v 0.508 z m 14.020764,-0.3048 q 0,0.6604 0.2032,1.23613 0.220136,0.57573 0.609596,0.99906 0.38947,0.42333 0.93133,0.67733 0.5588,0.23707 1.25307,0.23707 0.67733,0 1.253061,-0.23707 0.59267,-0.254 1.016,-0.67733 0.42333,-0.42333 0.6604,-0.99906 0.23707,-0.57573 0.23707,-1.23613 0,-0.6604 -0.23707,-1.23613 -0.23707,-0.57574 -0.6604,-0.99907 -0.42333,-0.42333 -1.016,-0.6604 -0.575731,-0.254 -1.253061,-0.254 -0.69427,0 -1.25307,0.254 -0.54186,0.23707 -0.93133,0.6604 -0.38946,0.42333 -0.609596,0.99907 -0.2032,0.57573 -0.2032,1.23613 z m 7.230517,3.96239 h -1.11759 v -1.3208 h -0.0339 q -0.27093,0.4064 -0.64347,0.69427 -0.37253,0.28786 -0.77893,0.47413 -0.4064,0.18627 -0.84666,0.27093 -0.423341,0.0847 -0.812801,0.0847 -0.93133,0 -1.71026,-0.3048 -0.762,-0.32173 -1.320802,-0.88053 -0.558799,-0.5588 -0.880532,-1.3208 -0.304799,-0.762 -0.304799,-1.65946 0,-0.89747 0.304799,-1.65947 0.321733,-0.762 0.880532,-1.32079 0.558802,-0.5588 1.320802,-0.8636 0.77893,-0.32174 1.71026,-0.32174 0.38946,0 0.812801,0.0847 0.44026,0.0847 0.84666,0.27093 0.4064,0.18627 0.77893,0.47414 0.37254,0.28786 0.64347,0.69426 h 0.0339 v -6.19759 h 1.11759 z m 8.60212,-4.57199 q 0,-1.13453 -0.67733,-1.8288 -0.67734,-0.7112 -1.89653,-0.7112 -0.54187,0 -1.04987,0.22014 -0.508,0.2032 -0.89746,0.55879 -0.37254,0.3556 -0.6096,0.8128 -0.22013,0.4572 -0.22013,0.94827 z m -5.38479,0.9144 q 0.0508,0.59266 0.28787,1.11759 0.23706,0.52494 0.62653,0.9144 0.38946,0.37253 0.89746,0.59267 0.508,0.22013 1.10067,0.22013 0.89746,0 1.54093,-0.4064 0.6604,-0.42333 0.99906,-0.9652 l 0.8636,0.7112 q -0.7112,0.89747 -1.5748,1.28693 -0.84666,0.38947 -1.82879,0.38947 -0.88053,0 -1.64253,-0.3048 -0.74507,-0.32173 -1.28693,-0.88053 -0.54187,-0.5588 -0.8636,-1.3208 -0.3048,-0.762 -0.3048,-1.65946 0,-0.89747 0.3048,-1.65947 0.3048,-0.762 0.84666,-1.32079 0.54187,-0.5588 1.27,-0.8636 0.72813,-0.32174 1.5748,-0.32174 0.89746,0 1.60866,0.32174 0.7112,0.32173 1.18533,0.8636 0.49107,0.52493 0.74507,1.25306 0.254,0.7112 0.254,1.524 v 0.508 z m 12.12424,3.65759 h -1.25307 l -3.21732,-7.92479 h 1.33773 l 2.52306,6.67172 h 0.0339 l 2.52307,-6.67172 h 1.26999 z m 10.83732,-4.57199 q 0,-1.13453 -0.67734,-1.8288 -0.67733,-0.7112 -1.89653,-0.7112 -0.54186,0 -1.04986,0.22014 -0.508,0.2032 -0.89747,0.55879 -0.37253,0.3556 -0.60959,0.8128 -0.22014,0.4572 -0.22014,0.94827 z m -5.38479,0.9144 q 0.0508,0.59266 0.28786,1.11759 0.23707,0.52494 0.62653,0.9144 0.38947,0.37253 0.89747,0.59267 0.508,0.22013 1.10066,0.22013 0.89747,0 1.54093,-0.4064 0.6604,-0.42333 0.99907,-0.9652 l 0.8636,0.7112 q -0.7112,0.89747 -1.5748,1.28693 -0.84666,0.38947 -1.8288,0.38947 -0.88053,0 -1.64253,-0.3048 -0.74506,-0.32173 -1.28693,-0.88053 -0.54186,-0.5588 -0.8636,-1.3208 -0.30479,-0.762 -0.30479,-1.65946 0,-0.89747 0.30479,-1.65947 0.3048,-0.762 0.84667,-1.32079 0.54187,-0.5588 1.27,-0.8636 0.72813,-0.32174 1.57479,-0.32174 0.89747,0 1.60867,0.32174 0.7112,0.32173 1.18533,0.8636 0.49106,0.52493 0.74506,1.25306 0.254,0.7112 0.254,1.524 v 0.508 z m 10.00757,3.65759 h -1.1176 V 128.5918 h 1.1176 z m 9.48265,-3.96239 q 0,-0.6604 -0.22013,-1.23613 -0.2032,-0.57574 -0.59267,-0.99907 -0.38946,-0.42333 -0.94826,-0.6604 -0.54187,-0.254 -1.23613,-0.254 -0.69427,0 -1.25307,0.254 -0.54186,0.23707 -0.93133,0.6604 -0.37253,0.42333 -0.59266,0.99907 -0.2032,0.57573 -0.2032,1.23613 0,0.6604 0.2032,1.23613 0.22013,0.57573 0.59266,0.99906 0.38947,0.42333 0.93133,0.67733 0.5588,0.23707 1.25307,0.23707 0.69426,0 1.23613,-0.23707 0.5588,-0.254 0.94826,-0.67733 0.38947,-0.42333 0.59267,-0.99906 0.22013,-0.57573 0.22013,-1.23613 z m 1.2192,0 q 0,0.89746 -0.32173,1.65946 -0.3048,0.762 -0.8636,1.3208 -0.5588,0.5588 -1.33773,0.88053 -0.762,0.3048 -1.69333,0.3048 -0.9144,0 -1.69333,-0.3048 -0.762,-0.32173 -1.3208,-0.88053 -0.5588,-0.5588 -0.88053,-1.3208 -0.3048,-0.762 -0.3048,-1.65946 0,-0.89747 0.3048,-1.65947 0.32173,-0.762 0.88053,-1.32079 0.5588,-0.5588 1.3208,-0.8636 0.77893,-0.32174 1.69333,-0.32174 0.93133,0 1.69333,0.32174 0.77893,0.3048 1.33773,0.8636 0.5588,0.55879 0.8636,1.32079 0.32173,0.762 0.32173,1.65947 z m 9.26252,0 q 0,-0.6604 -0.22013,-1.23613 -0.2032,-0.57574 -0.59267,-0.99907 -0.38947,-0.42333 -0.94826,-0.6604 -0.54187,-0.254 -1.23614,-0.254 -0.69426,0 -1.26999,0.254 -0.57574,0.23707 -0.99907,0.6604 -0.42333,0.42333 -0.6604,0.99907 -0.23706,0.57573 -0.23706,1.23613 0,0.6604 0.23706,1.23613 0.23707,0.57573 0.6604,0.99906 0.42333,0.42333 0.99907,0.67733 0.57573,0.23707 1.26999,0.23707 0.69427,0 1.23614,-0.23707 0.55879,-0.254 0.94826,-0.67733 0.38947,-0.42333 0.59267,-0.99906 0.22013,-0.57573 0.22013,-1.23613 z m -7.23052,-3.9624 h 1.1176 v 1.3208 h 0.0339 q 0.27094,-0.4064 0.64347,-0.69426 0.37253,-0.28787 0.77893,-0.47414 0.4064,-0.18626 0.82973,-0.27093 0.44027,-0.0847 0.82973,-0.0847 0.93134,0 1.69333,0.32174 0.77894,0.3048 1.33774,0.8636 0.55879,0.55879 0.86359,1.32079 0.32174,0.762 0.32174,1.65947 0,0.89746 -0.32174,1.65946 -0.3048,0.762 -0.86359,1.3208 -0.5588,0.5588 -1.33774,0.88053 -0.76199,0.3048 -1.69333,0.3048 -0.38946,0 -0.82973,-0.0847 -0.42333,-0.0847 -0.82973,-0.27093 -0.4064,-0.18627 -0.77893,-0.47413 -0.37253,-0.28787 -0.64347,-0.69427 h -0.0339 v 6.19759 h -1.1176 z m 10.34624,1.76107 q 0,-0.44027 -0.0339,-0.88053 -0.0169,-0.44027 -0.0508,-0.88054 h 1.20226 v 1.20227 h 0.0339 q 0.4064,-0.69427 1.1176,-1.04987 0.72813,-0.3556 1.43933,-0.3556 0.32173,0 0.67733,0.0677 0.37253,0.0677 0.7112,0.254 0.33866,0.16933 0.62653,0.49106 0.3048,0.32174 0.508,0.82973 0.33866,-0.76199 1.0668,-1.20226 0.74506,-0.44027 1.54093,-0.44027 1.52399,0 2.25213,0.8128 0.72813,0.79587 0.72813,2.286 v 5.02919 h -1.1176 v -4.62279 q 0,-1.20227 -0.42333,-1.84573 -0.42334,-0.64347 -1.5748,-0.64347 -0.62653,0 -1.04986,0.254 -0.42334,0.23707 -0.69427,0.64347 -0.254,0.4064 -0.37253,0.93133 -0.11854,0.508 -0.11854,1.0668 v 4.21639 h -1.11759 v -4.62279 q 0,-1.20227 -0.42334,-1.84573 -0.42333,-0.64347 -1.57479,-0.64347 -0.1016,0 -0.47413,0.0677 -0.3556,0.0677 -0.74507,0.37253 -0.38947,0.3048 -0.7112,0.9144 -0.3048,0.6096 -0.3048,1.69333 v 4.06399 h -1.1176 z m 20.5909,1.59173 q 0,-1.13453 -0.67734,-1.8288 -0.67733,-0.7112 -1.89653,-0.7112 -0.54186,0 -1.04986,0.22014 -0.508,0.2032 -0.89747,0.55879 -0.37253,0.3556 -0.60959,0.8128 -0.22014,0.4572 -0.22014,0.94827 z m -5.38479,0.9144 q 0.0508,0.59266 0.28786,1.11759 0.23707,0.52494 0.62653,0.9144 0.38947,0.37253 0.89747,0.59267 0.508,0.22013 1.10066,0.22013 0.89747,0 1.54093,-0.4064 0.6604,-0.42333 0.99907,-0.9652 l 0.8636,0.7112 q -0.7112,0.89747 -1.5748,1.28693 -0.84667,0.38947 -1.8288,0.38947 -0.88053,0 -1.64253,-0.3048 -0.74506,-0.32173 -1.28693,-0.88053 -0.54186,-0.5588 -0.8636,-1.3208 -0.3048,-0.762 -0.3048,-1.65946 0,-0.89747 0.3048,-1.65947 0.3048,-0.762 0.84667,-1.32079 0.54186,-0.5588 1.27,-0.8636 0.72813,-0.32174 1.57479,-0.32174 0.89747,0 1.60867,0.32174 0.7112,0.32173 1.18533,0.8636 0.49106,0.52493 0.74506,1.25306 0.254,0.7112 0.254,1.524 v 0.508 z m 9.70276,-4.2672 q 0.0339,0.32174 0.0339,0.64347 0.0169,0.3048 0.0169,0.62653 h 0.0339 q 0.18627,-0.32173 0.47413,-0.59266 0.28787,-0.27094 0.64347,-0.4572 0.3556,-0.2032 0.74506,-0.3048 0.4064,-0.11854 0.79587,-0.11854 1.524,0 2.25213,0.8128 0.72813,0.79587 0.72813,2.286 v 5.02919 h -1.1176 v -4.38573 q 0,-1.32079 -0.4572,-2.01506 -0.4572,-0.7112 -1.69333,-0.7112 -0.0847,0 -0.47413,0.0677 -0.38947,0.0677 -0.82973,0.37253 -0.42333,0.3048 -0.762,0.9144 -0.33867,0.6096 -0.33867,1.69333 v 4.06399 h -1.11759 v -6.18066 q 0,-0.32173 -0.0339,-0.81279 -0.0169,-0.49107 -0.0508,-0.93134 z m 12.44598,1.016 h -2.28599 v 4.67359 q 0,0.44027 0.0847,0.72813 0.0847,0.27094 0.23707,0.42334 0.1524,0.1524 0.3556,0.22013 0.22013,0.0508 0.47413,0.0508 0.28787,0 0.59267,-0.0847 0.3048,-0.0847 0.55879,-0.22013 l 0.0508,1.03293 q -0.62653,0.28787 -1.50706,0.28787 -0.32173,0 -0.67733,-0.0847 -0.33867,-0.0847 -0.62653,-0.32173 -0.28787,-0.23707 -0.47414,-0.64347 -0.18626,-0.4064 -0.18626,-1.06679 v -4.99533 h -1.6764 v -1.016 h 1.6764 v -2.23519 h 1.1176 v 2.23519 h 2.28599 z"
       id="text7"
       style="font-size:16.9333px;line-height:1.2;font-family:Avenir;-inkscape-font-specification:Avenir;letter-spacing:0px;word-spacing:0px;white-space:pre;inline-size:181.037;stroke-width:0.537898;stroke-linejoin:round;paint-order:markers fill stroke"
       aria-label="A one-principle manifesto for agile software development" />
  </g>
</svg>
