<?xml version="1.0" encoding="UTF-8" standalone="no"?>
<!-- Created with Inkscape (http://www.inkscape.org/) -->

<svg
   width="1200"
   height="630"
   viewBox="0 0 317.5 166.6875"
   version="1.1"
   id="svg1"
   inkscape:version="1.4 (e7c3feb1, 2024-10-09)"
   sodipodi:docname="og.svg"
   xmlns:inkscape="http://www.inkscape.org/namespaces/inkscape"
   xmlns:sodipodi="http://sodipodi.sourceforge.net/DTD/sodipodi-0.dtd"
   xmlns:xlink="http://www.w3.org/1999/xlink"
   xmlns="http://www.w3.org/2000/svg"
   xmlns:svg="http://www.w3.org/2000/svg">
  <sodipodi:namedview
     id="namedview1"
     pagecolor="#ffffff"
     bordercolor="#000000"
     borderopacity="0.25"
     inkscape:showpageshadow="2"
     inkscape:pageopacity="0.0"
     inkscape:pagecheckerboard="true"
     inkscape:deskcolor="#d1d1d1"
     inkscape:document-units="mm"
     inkscape:zoom="1"
     inkscape:cx="651.5"
     inkscape:cy="362"
     inkscape:window-width="1344"
     inkscape:window-height="643"
     inkscape:window-x="43"
     inkscape:window-y="68"
     inkscape:window-maximized="0"
     inkscape:current-layer="layer1" />
  <defs
     id="defs1">
    <rect
       x="275.24686"
       y="248.7002"
       width="1015.4699"
       height="198.83507"
       id="rect3" />
    <linearGradient
       id="linearGradient1"
       inkscape:collect="always">
      <stop
         style="stop-color:#fabb02;stop-opacity:1;"
         offset="0"
         id="stop1" />
      <stop
         style="stop-color:#ffe645;stop-opacity:1;"
         offset="1"
         id="stop2" />
    </linearGradient>
    <linearGradient
       inkscape:collect="always"
       xlink:href="#linearGradient1"
       id="linearGradient2"
       x1="46.496815"
       y1="195.59692"
       x2="271.0032"
       y2="-28.909466"
       gradientUnits="userSpaceOnUse" />
    <rect
       x="275.24686"
       y="248.7002"
       width="679.82898"
       height="84.678576"
       id="rect4" />
    <rect
       x="275.24686"
       y="248.7002"
       width="1068.4237"
       height="67.72262"
       id="rect5" />
  </defs>
  <g
     inkscape:label="Layer 1"
     inkscape:groupmode="layer"
     id="layer1">
    <rect
       style="fill:url(#linearGradient2);stroke-width:0.537898;stroke-linejoin:round;paint-order:markers fill stroke"
       id="rect1"
       width="317.5"
       height="166.6875"
       x="0"
       y="0" />
    <path
       style="font-weight:800;font-size:72px;line-height:1;font-family:Avenir;-inkscape-font-specification:'Avenir, Ultra-Bold';text-align:center;letter-spacing:0px;word-spacing:0px;text-anchor:middle;white-space:pre;stroke-width:0.536491;stroke-linejoin:round;paint-order:markers fill stroke"
       d="m 71.396502,68.9504 h 2.387755 v 5.3721 H 71.396502 Z M 67,68.9504 h 2.387755 v 5.3721 H 67 Z m 9.683682,0 h 4.434403 q 1.610788,0 3.051021,0.36195 1.459184,0.36195 2.539359,1.1811 1.080175,0.8001 1.705539,2.0955 0.644315,1.2954 0.644315,3.14325 0,1.6383 -0.625364,2.8956 -0.606414,1.238249 -1.648688,2.095499 -1.042274,0.8382 -2.406706,1.27635 -1.364432,0.43815 -2.861516,0.43815 h -4.832363 z m 2.956269,10.744199 h 1.534986 q 1.023323,0 1.895044,-0.20955 0.89067,-0.209549 1.534985,-0.685799 0.644315,-0.4953 1.004373,-1.27635 0.379009,-0.8001 0.379009,-1.9431 0,-0.9906 -0.379009,-1.7145 -0.360058,-0.74295 -0.985422,-1.2192 -0.625365,-0.47625 -1.478135,-0.70485 -0.833819,-0.24765 -1.762391,-0.24765 h -1.74344 z m 19.784275,1.143 q -0.682216,0.8763 -1.72449,1.35255 -1.042274,0.47625 -2.16035,0.47625 -1.061225,0 -2.008747,-0.3429 -0.928572,-0.3429 -1.629738,-0.97155 -0.682216,-0.6477 -1.080175,-1.54305 -0.397959,-0.895349 -0.397959,-2.000249 0,-1.1049 0.397959,-2.00025 0.397959,-0.89535 1.080175,-1.524 0.701166,-0.6477 1.629738,-0.9906 0.947522,-0.3429 2.008747,-0.3429 0.985422,0 1.781341,0.3429 0.814869,0.3429 1.364432,0.9906 0.568513,0.62865 0.87172,1.524 0.303213,0.89535 0.303213,2.00025 V 78.704 h -6.594759 q 0.170554,0.819149 0.739067,1.314449 0.568513,0.47625 1.402333,0.47625 0.701166,0 1.174927,-0.3048 0.492711,-0.32385 0.85277,-0.819149 z M 97.01752,76.7609 q 0.01895,-0.7239 -0.473761,-1.23825 -0.492712,-0.51435 -1.26968,-0.51435 -0.473761,0 -0.833819,0.1524 -0.360058,0.1524 -0.625364,0.40005 -0.246356,0.2286 -0.39796,0.55245 -0.132653,0.3048 -0.151603,0.6477 z m 4.60494,-8.7249 h 2.84257 v 14.401799 h -2.84257 z m 4.92713,5.1435 h 2.84256 v 9.258299 h -2.84256 z m -0.22741,-2.91465 q 0,-0.6858 0.47376,-1.16205 0.49271,-0.4953 1.17493,-0.4953 0.68222,0 1.15598,0.4953 0.49271,0.47625 0.49271,1.16205 0,0.6858 -0.49271,1.1811 -0.47376,0.47625 -1.15598,0.47625 -0.68222,0 -1.17493,-0.47625 -0.47376,-0.4953 -0.47376,-1.1811 z m 4.15015,2.91465 h 3.06997 l 2.3309,6.286499 h 0.0379 l 2.16035,-6.286499 h 2.86152 l -3.63848,9.258299 h -3.01312 z m 20.22012,7.658099 q -0.68222,0.8763 -1.72449,1.35255 -1.04228,0.47625 -2.16035,0.47625 -1.06123,0 -2.00875,-0.3429 -0.92857,-0.3429 -1.62974,-0.97155 -0.68221,-0.6477 -1.08017,-1.54305 -0.39796,-0.895349 -0.39796,-2.000249 0,-1.1049 0.39796,-2.00025 0.39796,-0.89535 1.08017,-1.524 0.70117,-0.6477 1.62974,-0.9906 0.94752,-0.3429 2.00875,-0.3429 0.98542,0 1.78134,0.3429 0.81487,0.3429 1.36443,0.9906 0.56851,0.62865 0.87172,1.524 0.30321,0.89535 0.30321,2.00025 V 78.704 h -6.59476 q 0.17056,0.819149 0.73907,1.314449 0.56851,0.47625 1.40233,0.47625 0.70117,0 1.17493,-0.3048 0.49271,-0.32385 0.85277,-0.819149 z M 128.28574,76.7609 q 0.019,-0.7239 -0.47376,-1.23825 -0.49271,-0.51435 -1.26968,-0.51435 -0.47376,0 -0.83382,0.1524 -0.36006,0.1524 -0.62536,0.40005 -0.24636,0.2286 -0.39796,0.55245 -0.13266,0.3048 -0.15161,0.6477 z m 4.56705,-3.5814 h 2.84256 v 1.4859 h 0.0379 q 0.45481,-0.85725 1.08018,-1.27635 0.62536,-0.43815 1.57289,-0.43815 0.24635,0 0.49271,0.01905 0.24635,0.01905 0.45481,0.0762 V 75.656 q -0.30321,-0.09525 -0.60642,-0.13335 -0.28425,-0.05715 -0.60641,-0.05715 -0.81487,0 -1.28863,0.2286 -0.47376,0.2286 -0.73907,0.6477 -0.24635,0.40005 -0.32216,0.97155 -0.0758,0.5715 -0.0758,1.2573 v 3.867149 h -2.84256 z m 12.35566,0 h 3.06997 l 2.33091,6.286499 h 0.0379 l 2.16035,-6.286499 h 2.86152 l -3.63849,9.258299 h -3.01312 z m 17.2828,8.096249 h -0.0379 q -0.47376,0.74295 -1.26968,1.0668 -0.77696,0.32385 -1.64868,0.32385 -0.64432,0 -1.25073,-0.1905 -0.58747,-0.17145 -1.04228,-0.5334 -0.45481,-0.36195 -0.72011,-0.89535 -0.26531,-0.5334 -0.26531,-1.23825 0,-0.800099 0.28426,-1.352549 0.3032,-0.55245 0.79591,-0.9144 0.51167,-0.36195 1.15598,-0.55245 0.64432,-0.20955 1.32653,-0.3048 0.70117,-0.09525 1.38338,-0.1143 0.70117,-0.01905 1.28863,-0.01905 0,-0.762 -0.54956,-1.20015 -0.53061,-0.4572 -1.26968,-0.4572 -0.70116,0 -1.28863,0.3048 -0.56851,0.28575 -1.02332,0.8001 l -1.51604,-1.5621 q 0.79592,-0.74295 1.85715,-1.1049 1.06122,-0.381 2.19825,-0.381 1.25073,0 2.04664,0.32385 0.81487,0.3048 1.28863,0.9144 0.49272,0.6096 0.68222,1.50495 0.1895,0.8763 0.1895,2.03835 v 4.705349 h -2.61516 z m -0.70116,-2.895599 q -0.32216,0 -0.81487,0.0381 -0.47376,0.01905 -0.92857,0.1524 -0.43586,0.13335 -0.75802,0.40005 -0.30321,0.2667 -0.30321,0.742949 0,0.51435 0.43586,0.762 0.43586,0.24765 0.90962,0.24765 0.41691,0 0.79592,-0.1143 0.39796,-0.1143 0.70117,-0.32385 0.30321,-0.20955 0.47376,-0.5334 0.1895,-0.323849 0.1895,-0.761999 v -0.6096 z M 166.92567,68.036 h 2.84256 v 14.401799 h -2.84256 z m 13.75802,14.401799 h -2.72887 v -1.2573 h -0.0379 q -0.1516,0.2667 -0.39796,0.5334 -0.2274,0.2667 -0.56851,0.47625 -0.34111,0.20955 -0.77697,0.3429 -0.43586,0.13335 -0.94752,0.13335 -1.08018,0 -1.76239,-0.32385 -0.66327,-0.3429 -1.04228,-0.93345 -0.36005,-0.59055 -0.49271,-1.39065 -0.1137,-0.800099 -0.1137,-1.733549 v -5.1054 h 2.84257 v 4.5339 q 0,0.40005 0.019,0.8382 0.0379,0.4191 0.17055,0.78105 0.1516,0.361949 0.43586,0.590549 0.30321,0.2286 0.85277,0.2286 0.54956,0 0.89067,-0.1905 0.34111,-0.20955 0.51166,-0.533399 0.18951,-0.3429 0.24636,-0.762 0.0569,-0.4191 0.0569,-0.8763 v -4.6101 h 2.84257 z m 10.72593,-1.6002 q -0.68221,0.8763 -1.72449,1.35255 -1.04227,0.47625 -2.16035,0.47625 -1.06122,0 -2.00874,-0.3429 -0.92857,-0.3429 -1.62974,-0.97155 -0.68222,-0.6477 -1.08017,-1.54305 -0.39796,-0.895349 -0.39796,-2.000249 0,-1.1049 0.39796,-2.00025 0.39795,-0.89535 1.08017,-1.524 0.70117,-0.6477 1.62974,-0.9906 0.94752,-0.3429 2.00874,-0.3429 0.98543,0 1.78135,0.3429 0.81486,0.3429 1.36443,0.9906 0.56851,0.62865 0.87172,1.524 0.3032,0.89535 0.3032,2.00025 V 78.704 h -6.59475 q 0.17056,0.819149 0.73907,1.314449 0.56851,0.47625 1.40233,0.47625 0.70117,0 1.17493,-0.3048 0.49271,-0.32385 0.85277,-0.819149 z m -2.4067,-4.076699 q 0.019,-0.7239 -0.47376,-1.23825 -0.49271,-0.51435 -1.26968,-0.51435 -0.47376,0 -0.83382,0.1524 -0.36006,0.1524 -0.62537,0.40005 -0.24635,0.2286 -0.39795,0.55245 -0.13266,0.3048 -0.15161,0.6477 z m 19.84109,5.676899 h -2.61516 v -1.2192 h -0.0379 q -0.17056,0.24765 -0.45481,0.51435 -0.26531,0.24765 -0.64432,0.4572 -0.36006,0.20955 -0.81487,0.3429 -0.43586,0.13335 -0.90962,0.13335 -1.02332,0 -1.85714,-0.3429 -0.83382,-0.36195 -1.44023,-0.9906 -0.58747,-0.6477 -0.90963,-1.524 -0.32215,-0.876299 -0.32215,-1.924049 0,-0.97155 0.28425,-1.84785 0.30321,-0.89535 0.83382,-1.58115 0.54957,-0.6858 1.32653,-1.08585 0.77697,-0.4191 1.76239,-0.4191 0.89068,0 1.64869,0.28575 0.77697,0.2667 1.26968,0.93345 h 0.0379 V 68.036 h 2.84257 z m -2.61516,-4.629149 q 0,-1.04775 -0.60642,-1.69545 -0.58746,-0.6477 -1.66763,-0.6477 -1.08018,0 -1.68659,0.6477 -0.58747,0.6477 -0.58747,1.69545 0,1.04775 0.58747,1.695449 0.60641,0.6477 1.68659,0.6477 1.08017,0 1.66763,-0.6477 0.60642,-0.647699 0.60642,-1.695449 z m 10.66908,3.467099 h -0.0379 q -0.47376,0.74295 -1.26967,1.0668 -0.77697,0.32385 -1.64869,0.32385 -0.64432,0 -1.25073,-0.1905 -0.58747,-0.17145 -1.04228,-0.5334 -0.45481,-0.36195 -0.72011,-0.89535 -0.26531,-0.5334 -0.26531,-1.23825 0,-0.800099 0.28426,-1.352549 0.3032,-0.55245 0.79592,-0.9144 0.51166,-0.36195 1.15597,-0.55245 0.64432,-0.20955 1.32653,-0.3048 0.70117,-0.09525 1.38339,-0.1143 0.70116,-0.01905 1.28863,-0.01905 0,-0.762 -0.54957,-1.20015 -0.53061,-0.4572 -1.26968,-0.4572 -0.70116,0 -1.28863,0.3048 -0.56851,0.28575 -1.02332,0.8001 l -1.51604,-1.5621 q 0.79592,-0.74295 1.85715,-1.1049 1.06122,-0.381 2.19825,-0.381 1.25073,0 2.04665,0.32385 0.81487,0.3048 1.28863,0.9144 0.49271,0.6096 0.68221,1.50495 0.18951,0.8763 0.18951,2.03835 v 4.705349 h -2.61516 z m -0.70117,-2.895599 q -0.32216,0 -0.81487,0.0381 -0.47376,0.01905 -0.92857,0.1524 -0.43586,0.13335 -0.75802,0.40005 -0.30321,0.2667 -0.30321,0.742949 0,0.51435 0.43586,0.762 0.43586,0.24765 0.90963,0.24765 0.41691,0 0.79591,-0.1143 0.39796,-0.1143 0.70117,-0.32385 0.30321,-0.20955 0.47376,-0.5334 0.18951,-0.323849 0.18951,-0.761999 v -0.6096 z m 5.1356,-5.20065 h 2.84256 v 9.258299 h -2.84256 z m -0.22741,-2.91465 q 0,-0.6858 0.47376,-1.16205 0.49272,-0.4953 1.17493,-0.4953 0.68222,0 1.15598,0.4953 0.49271,0.47625 0.49271,1.16205 0,0.6858 -0.49271,1.1811 -0.47376,0.47625 -1.15598,0.47625 -0.68221,0 -1.17493,-0.47625 -0.47376,-0.4953 -0.47376,-1.1811 z m 5.15452,-2.22885 h 2.84257 v 14.401799 h -2.84257 z m 10.19534,15.906749 q -0.28426,0.74295 -0.54956,1.31445 -0.26531,0.5715 -0.68222,0.9525 -0.39796,0.40005 -1.02332,0.59055 -0.62537,0.20955 -1.64869,0.20955 -1.09913,0 -2.12245,-0.3429 l 0.37901,-2.34315 q 0.64431,0.28575 1.32653,0.28575 0.47376,0 0.77697,-0.1143 0.3032,-0.09525 0.49271,-0.3048 0.20845,-0.1905 0.34111,-0.47625 0.13265,-0.28575 0.28425,-0.66675 l 0.20846,-0.5334 -4.03645,-9.334499 h 3.06998 l 2.3688,6.11505 h 0.0379 l 2.0277,-6.11505 h 2.91837 z M 246.61224,68.9504 H 249 v 5.3721 h -2.38776 z m -4.3965,0 h 2.38776 v 5.3721 h -2.38776 z"
       id="text3"
       aria-label="&quot;Deliver value daily&quot;" />
    <path
       style="font-size:37.3333px;line-height:1;font-family:Avenir;-inkscape-font-specification:Avenir;text-align:center;letter-spacing:0px;word-spacing:0px;text-anchor:middle;white-space:pre;stroke-width:0.537985;stroke-linejoin:round;paint-order:markers fill stroke"
       d="m 33.658541,98.096928 h 3.033455 l -1.511787,-3.674531 z m -1.037502,2.489202 h -0.830002 l 3.043338,-6.993463 h 0.691667 l 3.043337,6.993463 h -0.830001 l -0.770717,-1.837269 h -3.576907 z m 13.368949,-2.311402 q 0,-0.385233 -0.128452,-0.721077 -0.118572,-0.335843 -0.345832,-0.582787 -0.227263,-0.246946 -0.553336,-0.385233 -0.316189,-0.148167 -0.721309,-0.148167 -0.405121,0 -0.73119,0.148167 -0.316192,0.138287 -0.543456,0.385233 -0.21738,0.246944 -0.345832,0.582787 -0.118572,0.335844 -0.118572,0.721077 0,0.385233 0.118572,0.721077 0.128452,0.335846 0.345832,0.58279 0.227264,0.246943 0.543456,0.39511 0.326069,0.138295 0.73119,0.138295 0.40512,0 0.721309,-0.138295 0.326073,-0.148167 0.553336,-0.39511 0.22726,-0.246944 0.345832,-0.58279 0.128452,-0.335844 0.128452,-0.721077 z m 0.71143,0 q 0,0.523523 -0.187737,0.968023 -0.177858,0.444497 -0.50393,0.770469 -0.326073,0.32597 -0.780597,0.51364 -0.444643,0.17781 -0.988095,0.17781 -0.533572,0 -0.988096,-0.17781 -0.444644,-0.18767 -0.770716,-0.51364 -0.326073,-0.325972 -0.513809,-0.770469 -0.177858,-0.4445 -0.177858,-0.968023 0,-0.52352 0.177858,-0.96802 0.187736,-0.4445 0.513809,-0.770467 0.326072,-0.325967 0.770716,-0.503767 0.454524,-0.187677 0.988096,-0.187677 0.543452,0 0.988095,0.187677 0.454524,0.1778 0.780597,0.503767 0.326072,0.325967 0.50393,0.770467 0.187737,0.4445 0.187737,0.96802 z m 1.808221,-2.311397 q 0.01977,0.187677 0.01977,0.375356 0.0099,0.177797 0.0099,0.365477 h 0.01977 q 0.108689,-0.18768 0.276666,-0.345723 0.167975,-0.158044 0.375475,-0.2667 0.207501,-0.118533 0.434764,-0.1778 0.237144,-0.06914 0.464404,-0.06914 0.889288,0 1.314168,0.474134 0.424884,0.464253 0.424884,1.333497 v 2.933698 h -0.652145 v -2.558342 q 0,-0.770466 -0.266786,-1.175453 -0.266786,-0.414867 -0.988096,-0.414867 -0.04941,0 -0.276667,0.03951 -0.227262,0.03951 -0.484168,0.21731 -0.247024,0.1778 -0.444642,0.5334 -0.19762,0.3556 -0.19762,0.987777 v 2.370665 h -0.652144 v -3.605385 q 0,-0.187677 -0.01977,-0.474133 -0.0099,-0.286454 -0.02964,-0.543277 z m 8.467982,1.955797 q 0,-0.66181 -0.395238,-1.066797 -0.395238,-0.414867 -1.106668,-0.414867 -0.316192,0 -0.612619,0.12841 -0.296429,0.118534 -0.523692,0.325967 -0.21738,0.207433 -0.355715,0.474133 -0.128451,0.2667 -0.128451,0.553154 z m -3.142146,0.5334 q 0.02964,0.345723 0.167977,0.651933 0.138332,0.306211 0.365596,0.5334 0.227262,0.217311 0.523692,0.345721 0.296426,0.128418 0.642261,0.128418 0.52369,0 0.899167,-0.237072 0.385359,-0.246946 0.582978,-0.563033 l 0.503927,0.414866 q -0.415,0.523529 -0.918927,0.750719 -0.494049,0.22719 -1.067145,0.22719 -0.51381,0 -0.958453,-0.17781 -0.434764,-0.18767 -0.750953,-0.51364 -0.316192,-0.325972 -0.50393,-0.770469 -0.177857,-0.4445 -0.177857,-0.968023 0,-0.52352 0.177857,-0.96802 0.177858,-0.4445 0.49405,-0.770467 0.316189,-0.325967 0.74107,-0.503767 0.424884,-0.187677 0.91893,-0.187677 0.523693,0 0.938691,0.187677 0.415001,0.18768 0.691667,0.503767 0.286549,0.30621 0.434764,0.730956 0.148214,0.414864 0.148214,0.888998 v 0.296333 z m 7.242745,0.0889 h -2.539408 v -0.651933 h 2.539408 z m 5.306077,-0.2667 q 0,-0.385233 -0.128451,-0.721077 -0.118573,-0.335843 -0.345836,-0.582787 -0.227261,-0.246946 -0.553332,-0.385233 -0.316192,-0.148167 -0.72131,-0.148167 -0.405121,0 -0.741074,0.148167 -0.335951,0.138287 -0.582977,0.385233 -0.247024,0.246944 -0.385359,0.582787 -0.138331,0.335844 -0.138331,0.721077 0,0.385233 0.138331,0.721077 0.138335,0.335846 0.385359,0.58279 0.247026,0.246943 0.582977,0.39511 0.335953,0.138295 0.741074,0.138295 0.405118,0 0.72131,-0.138295 0.326071,-0.148167 0.553332,-0.39511 0.227263,-0.246944 0.345836,-0.58279 0.128451,-0.335844 0.128451,-0.721077 z m -4.219172,-2.311397 h 0.652145 v 0.770466 h 0.01977 q 0.158095,-0.237066 0.375475,-0.404989 0.21738,-0.167921 0.454524,-0.276577 0.237142,-0.108657 0.484166,-0.158044 0.256906,-0.04939 0.48417,-0.04939 0.543452,0 0.988096,0.187677 0.454524,0.1778 0.780596,0.503767 0.326072,0.325967 0.503929,0.770467 0.187738,0.4445 0.187738,0.96802 0,0.523523 -0.187738,0.968023 -0.177857,0.444497 -0.503929,0.770459 -0.326072,0.32598 -0.780596,0.51365 -0.444644,0.17781 -0.988096,0.17781 -0.227264,0 -0.48417,-0.0494 -0.247024,-0.0494 -0.484166,-0.15805 -0.237144,-0.10865 -0.454524,-0.27658 -0.21738,-0.16792 -0.375475,-0.404989 h -0.01977 v 3.615269 h -0.652145 z m 6.106438,1.442153 q 0,-0.30621 -0.01977,-0.6223 -0.0099,-0.316087 -0.01978,-0.819853 h 0.642266 v 0.859366 h 0.01977 q 0.06916,-0.187679 0.197618,-0.3556 0.128452,-0.1778 0.306309,-0.316089 0.187741,-0.138288 0.424884,-0.217311 0.247023,-0.0889 0.553332,-0.0889 0.276667,0 0.484167,0.05927 l -0.128452,0.642054 q -0.128451,-0.04939 -0.375477,-0.04939 -0.375475,0 -0.642262,0.148166 -0.266786,0.138287 -0.444643,0.365477 -0.177858,0.21731 -0.266787,0.474134 -0.07904,0.25682 -0.07904,0.493887 v 2.607735 h -0.652145 z m 4.159894,-3.220151 q 0,0.207431 -0.148215,0.345721 -0.148214,0.12841 -0.326072,0.12841 -0.177857,0 -0.326072,-0.12841 -0.148215,-0.13829 -0.148215,-0.345721 0,-0.207433 0.148215,-0.335846 0.148215,-0.138287 0.326072,-0.138287 0.177858,0 0.326072,0.138287 0.148215,0.128413 0.148215,0.335846 z m -0.148215,6.400797 h -0.652144 v -4.622799 h 0.652144 z m 2.193568,-4.622799 q 0.01977,0.187677 0.01977,0.375356 0.0099,0.177797 0.0099,0.365477 h 0.01978 q 0.108691,-0.18768 0.276666,-0.345723 0.167977,-0.158044 0.375478,-0.2667 0.2075,-0.118533 0.434761,-0.1778 0.237143,-0.06914 0.464406,-0.06914 0.889285,0 1.314169,0.474134 0.42488,0.464253 0.42488,1.333497 v 2.933698 h -0.652144 v -2.558342 q 0,-0.770466 -0.266786,-1.175453 -0.266786,-0.414867 -0.988096,-0.414867 -0.04941,0 -0.276667,0.03951 -0.227263,0.03951 -0.484166,0.21731 -0.247026,0.1778 -0.444644,0.5334 -0.197621,0.3556 -0.197621,0.987777 v 2.370665 h -0.652143 v -3.605385 q 0,-0.187677 -0.01977,-0.474133 -0.0099,-0.286454 -0.02964,-0.543277 z m 8.240722,1.086553 q -0.167977,-0.25682 -0.474287,-0.43462 -0.296429,-0.1778 -0.681786,-0.1778 -0.405118,-0.0099 -0.731191,0.12841 -0.316192,0.13829 -0.543452,0.385234 -0.227264,0.246943 -0.345835,0.592666 -0.118571,0.335844 -0.118571,0.730954 0,0.39511 0.118571,0.740833 0.118571,0.335844 0.345835,0.582787 0.22726,0.246947 0.543452,0.385234 0.326073,0.138298 0.731191,0.128418 0.385357,0 0.681786,-0.177805 0.30631,-0.1778 0.474287,-0.434623 l 0.533573,0.404989 q -0.345835,0.404989 -0.780597,0.602549 -0.434763,0.18768 -0.909049,0.19756 -0.563216,0.01 -1.01774,-0.16793 -0.454523,-0.18768 -0.780596,-0.51365 -0.316189,-0.325962 -0.484166,-0.770462 -0.167977,-0.454377 -0.167977,-0.9779 0,-0.52352 0.167977,-0.96802 0.167977,-0.454377 0.484166,-0.780344 0.326073,-0.325967 0.780596,-0.503767 0.454524,-0.187677 1.01774,-0.1778 0.474286,0.0099 0.909049,0.207434 0.434762,0.187677 0.780597,0.592666 z m 2.341795,-2.864551 q 0,0.207431 -0.148214,0.345721 -0.148215,0.12841 -0.326072,0.12841 -0.177858,0 -0.326072,-0.12841 -0.148214,-0.13829 -0.148214,-0.345721 0,-0.207433 0.148214,-0.335846 0.148214,-0.138287 0.326072,-0.138287 0.177857,0 0.326072,0.138287 0.148214,0.128413 0.148214,0.335846 z m -0.148214,6.400797 h -0.652144 v -4.622799 h 0.652144 z m 5.790238,-2.311402 q 0,-0.385233 -0.128452,-0.721077 -0.118572,-0.335843 -0.345833,-0.582787 -0.227263,-0.246946 -0.553334,-0.385233 -0.31619,-0.148167 -0.72131,-0.148167 -0.405121,0 -0.741073,0.148167 -0.335953,0.138287 -0.582976,0.385233 -0.247026,0.246944 -0.385358,0.582787 -0.138335,0.335844 -0.138335,0.721077 0,0.385233 0.138335,0.721077 0.138332,0.335846 0.385358,0.58279 0.247023,0.246943 0.582976,0.39511 0.335952,0.138295 0.741073,0.138295 0.40512,0 0.72131,-0.138295 0.326071,-0.148167 0.553334,-0.39511 0.227261,-0.246944 0.345833,-0.58279 0.128452,-0.335844 0.128452,-0.721077 z m -4.219172,-2.311397 h 0.652145 v 0.770466 h 0.01977 q 0.158095,-0.237066 0.375476,-0.404989 0.217383,-0.167921 0.454526,-0.276577 0.237143,-0.108657 0.484167,-0.158044 0.256903,-0.04939 0.484167,-0.04939 0.543452,0 0.988096,0.187677 0.454524,0.1778 0.780595,0.503767 0.326073,0.325967 0.50393,0.770467 0.187738,0.4445 0.187738,0.96802 0,0.523523 -0.187738,0.968023 -0.177857,0.444497 -0.50393,0.770459 -0.326071,0.32598 -0.780595,0.51365 -0.444644,0.17781 -0.988096,0.17781 -0.227264,0 -0.484167,-0.0494 -0.247024,-0.0494 -0.484167,-0.15805 -0.237143,-0.10865 -0.454526,-0.27658 -0.217381,-0.16792 -0.375476,-0.404989 h -0.01977 v 3.615269 h -0.652145 z m 6.837631,4.622799 h -0.652145 v -7.467597 h 0.652145 z m 5.167739,-2.667002 q 0,-0.66181 -0.39524,-1.066797 -0.395239,-0.414867 -1.106669,-0.414867 -0.316189,0 -0.612618,0.12841 -0.296429,0.118534 -0.523692,0.325967 -0.217381,0.207433 -0.355712,0.474133 -0.128455,0.2667 -0.128455,0.553154 z m -3.142146,0.5334 q 0.02964,0.345723 0.167974,0.651933 0.138335,0.306211 0.365595,0.5334 0.227264,0.217311 0.523693,0.345721 0.296429,0.128418 0.642261,0.128418 0.523692,0 0.899168,-0.237072 0.385357,-0.246946 0.582978,-0.563033 l 0.503929,0.414866 q -0.415,0.523529 -0.91893,0.750719 -0.494047,0.22719 -1.067145,0.22719 -0.513809,0 -0.958453,-0.17781 -0.434761,-0.18767 -0.750953,-0.51365 -0.31619,-0.325962 -0.503929,-0.770459 -0.177858,-0.4445 -0.177858,-0.968023 0,-0.52352 0.177858,-0.96802 0.177857,-0.4445 0.494048,-0.770467 0.316193,-0.325967 0.741074,-0.503767 0.42488,-0.187677 0.918927,-0.187677 0.523693,0 0.938693,0.187677 0.415002,0.18768 0.691668,0.503767 0.286547,0.30621 0.43476,0.730956 0.148215,0.414864 0.148215,0.888998 v 0.296333 z m 7.786197,-1.46191 q 0,-0.256821 -0.0198,-0.513644 -0.01,-0.25682 -0.0296,-0.513643 h 0.70155 v 0.70132 h 0.0198 q 0.23713,-0.404987 0.65214,-0.61242 0.42487,-0.207434 0.83988,-0.207434 0.18774,0 0.39524,0.03951 0.21738,0.03951 0.415,0.148166 0.19761,0.09878 0.3656,0.286457 0.17786,0.187677 0.29642,0.48401 0.19762,-0.4445 0.6225,-0.701321 0.43477,-0.256823 0.89917,-0.256823 0.88928,0 1.31417,0.474134 0.42488,0.464253 0.42488,1.333497 v 2.933703 h -0.65214 v -2.696636 q 0,-0.701321 -0.24703,-1.076677 -0.24702,-0.375354 -0.91893,-0.375354 -0.3656,0 -0.61262,0.148167 -0.24702,0.138287 -0.40512,0.375353 -0.14821,0.237067 -0.21738,0.543277 -0.0691,0.296334 -0.0691,0.6223 v 2.45957 h -0.65215 v -2.696636 q 0,-0.701321 -0.24702,-1.076677 -0.24702,-0.375354 -0.91893,-0.375354 -0.0593,0 -0.27667,0.03951 -0.2075,0.03951 -0.43476,0.21731 -0.22726,0.1778 -0.415,0.5334 -0.17786,0.3556 -0.17786,0.987777 v 2.37067 h -0.65214 z m 11.04691,1.29399 q -0.24703,0 -0.6225,0.02963 -0.3656,0.01976 -0.71143,0.118533 -0.33596,0.0889 -0.58298,0.286454 -0.23715,0.197556 -0.23715,0.543277 0,0.22719 0.0889,0.39511 0.0988,0.158046 0.25691,0.2667 0.1581,0.09878 0.34584,0.148168 0.19761,0.0395 0.39523,0.0395 0.35572,0 0.61262,-0.118535 0.26679,-0.118533 0.44465,-0.316089 0.17785,-0.207434 0.2569,-0.474134 0.0889,-0.276577 0.0889,-0.582787 v -0.335843 z m 0.33595,-0.5334 v -0.118534 q 0,-1.19521 -1.18572,-1.19521 -0.81024,0 -1.41297,0.543277 l -0.39524,-0.464257 q 0.65214,-0.671687 1.95643,-0.671687 0.33595,0 0.64226,0.09878 0.31619,0.09878 0.54346,0.306213 0.22726,0.197554 0.36558,0.503764 0.13834,0.306213 0.13834,0.730957 v 2.064453 q 0,0.2667 0.0198,0.563036 0.0296,0.28645 0.0593,0.47413 h -0.63238 q -0.0296,-0.16792 -0.0494,-0.36548 -0.01,-0.19755 -0.01,-0.385232 h -0.0198 q -0.28655,0.464262 -0.68179,0.671692 -0.38535,0.19756 -0.94856,0.19756 -0.30632,0 -0.59286,-0.0889 -0.28656,-0.079 -0.51382,-0.24695 -0.21738,-0.1778 -0.35572,-0.424745 -0.12845,-0.256824 -0.12845,-0.592667 0,-0.563033 0.28656,-0.879121 0.29642,-0.325966 0.73118,-0.48401 0.44465,-0.158046 0.9387,-0.197556 0.50393,-0.03951 0.91892,-0.03951 z m 2.78642,-1.787877 q 0.0198,0.187677 0.0198,0.375356 0.01,0.177797 0.01,0.365477 h 0.0198 q 0.1087,-0.18768 0.27667,-0.345723 0.16798,-0.158044 0.37549,-0.2667 0.20749,-0.118533 0.43476,-0.1778 0.23713,-0.06914 0.4644,-0.06914 0.88928,0 1.31417,0.474134 0.42488,0.464253 0.42488,1.333497 v 2.933698 h -0.65214 v -2.558342 q 0,-0.770466 -0.26679,-1.175453 -0.26679,-0.414867 -0.9881,-0.414867 -0.0494,0 -0.27667,0.03951 -0.22726,0.03951 -0.48416,0.21731 -0.24702,0.1778 -0.44465,0.5334 -0.19761,0.3556 -0.19761,0.987777 v 2.370665 h -0.65215 v -3.605385 q 0,-0.187677 -0.0198,-0.474133 -0.01,-0.286454 -0.0296,-0.543277 z m 5.81989,-1.777998 q 0,0.207431 -0.14822,0.345721 -0.14821,0.12841 -0.32606,0.12841 -0.17786,0 -0.32608,-0.12841 -0.14822,-0.13829 -0.14822,-0.345721 0,-0.207433 0.14822,-0.335846 0.14822,-0.138287 0.32608,-0.138287 0.17785,0 0.32606,0.138287 0.14822,0.128413 0.14822,0.335846 z m -0.14822,6.400797 h -0.65214 v -4.622799 h 0.65214 z m 3.72512,-4.030133 h -1.09679 v 4.030133 h -0.65214 v -4.030133 h -0.97822 v -0.592666 h 0.97822 v -1.264354 q 0,-0.918633 0.42488,-1.303867 Q 125.7985,93 126.50005,93 q 0.13834,0 0.27667,0.01976 0.14821,0.01976 0.28654,0.04939 l -0.11856,0.592667 q -0.11857,-0.02963 -0.24703,-0.04939 -0.12846,-0.01976 -0.25691,-0.01976 -0.26678,0 -0.43476,0.0889 -0.16797,0.0889 -0.2569,0.25682 -0.0889,0.158047 -0.11857,0.375357 -0.0296,0.21731 -0.0296,0.464254 v 1.185333 h 1.09679 z m 4.36739,1.363131 q 0,-0.66181 -0.39524,-1.066797 -0.39524,-0.414867 -1.10667,-0.414867 -0.31619,0 -0.61262,0.12841 -0.29643,0.118534 -0.5237,0.325967 -0.21738,0.207433 -0.35571,0.474133 -0.12845,0.2667 -0.12845,0.553154 z m -3.14215,0.5334 q 0.0296,0.345723 0.16798,0.651933 0.13833,0.306211 0.36559,0.5334 0.22727,0.217311 0.52369,0.345721 0.29643,0.128418 0.64227,0.128418 0.52369,0 0.89916,-0.237072 0.38537,-0.246946 0.58298,-0.563033 l 0.50393,0.414866 q -0.415,0.523529 -0.91892,0.750719 -0.49405,0.22719 -1.06715,0.22719 -0.51382,0 -0.95846,-0.17781 -0.43476,-0.18767 -0.75095,-0.51365 -0.31619,-0.325962 -0.50393,-0.770459 -0.17786,-0.4445 -0.17786,-0.968023 0,-0.52352 0.17786,-0.96802 0.17785,-0.4445 0.49405,-0.770467 0.31619,-0.325967 0.74107,-0.503767 0.42488,-0.187677 0.91893,-0.187677 0.52369,0 0.93869,0.187677 0.415,0.18768 0.69167,0.503767 0.28655,0.30621 0.43476,0.730956 0.14822,0.414864 0.14822,0.888998 v 0.296333 z m 7.48976,-1.392764 q -0.14821,-0.286456 -0.39524,-0.45438 -0.24702,-0.16792 -0.60273,-0.16792 -0.16797,0 -0.34583,0.03951 -0.16799,0.03951 -0.30632,0.12841 -0.13833,0.07902 -0.22725,0.207434 -0.079,0.128413 -0.079,0.31609 0,0.325966 0.22726,0.474133 0.22727,0.148167 0.68179,0.25682 l 0.66203,0.158047 q 0.48416,0.108653 0.80036,0.4445 0.32606,0.325964 0.32606,0.819853 0,0.375354 -0.15809,0.651934 -0.14822,0.266705 -0.40512,0.444505 -0.24702,0.16792 -0.5731,0.24695 -0.32607,0.079 -0.66202,0.079 -0.53357,0 -0.99797,-0.19756 -0.45453,-0.20743 -0.7806,-0.701328 l 0.56322,-0.385231 q 0.19761,0.316087 0.49404,0.503764 0.30631,0.187685 0.72131,0.187685 0.19762,0 0.39524,-0.0395 0.19762,-0.0494 0.34583,-0.138292 0.1581,-0.09878 0.24703,-0.246947 0.0988,-0.148164 0.0988,-0.34572 0,-0.345723 -0.25691,-0.49389 -0.2569,-0.158043 -0.6225,-0.246943 l -0.63238,-0.148167 q -0.11858,-0.02963 -0.32607,-0.09878 -0.19762,-0.06914 -0.39524,-0.207433 -0.18774,-0.13829 -0.32608,-0.3556 -0.13833,-0.22719 -0.13833,-0.553154 0,-0.3556 0.13833,-0.6223 0.14822,-0.2667 0.38537,-0.434623 0.24702,-0.167921 0.55333,-0.246944 0.30631,-0.0889 0.63238,-0.0889 0.48417,0 0.89917,0.187677 0.415,0.18768 0.64226,0.642057 z m 4.15002,-0.503767 h -1.33393 v 2.726264 q 0,0.256823 0.0494,0.424744 0.0494,0.158043 0.13833,0.246943 0.0889,0.0889 0.2075,0.128412 0.12845,0.0296 0.27667,0.0296 0.16797,0 0.34583,-0.0494 0.17786,-0.0494 0.32607,-0.128409 l 0.0296,0.602549 q -0.3656,0.16793 -0.87941,0.16793 -0.18774,0 -0.39524,-0.0494 -0.19762,-0.0494 -0.36559,-0.18769 -0.16798,-0.13829 -0.27667,-0.37535 -0.1087,-0.237072 -0.1087,-0.622306 v -2.913941 h -0.9782 v -0.592666 h 0.9782 V 94.65941 h 0.65215 v 1.303867 h 1.33393 z m 4.85156,1.718731 q 0,-0.385233 -0.12845,-0.721077 -0.11858,-0.335843 -0.34584,-0.582787 -0.22726,-0.246946 -0.55333,-0.385233 -0.31619,-0.148167 -0.72131,-0.148167 -0.40512,0 -0.73119,0.148167 -0.31619,0.138287 -0.54346,0.385233 -0.21738,0.246944 -0.34583,0.582787 -0.11858,0.335844 -0.11858,0.721077 0,0.385233 0.11858,0.721077 0.12845,0.335846 0.34583,0.58279 0.22727,0.246943 0.54346,0.39511 0.32607,0.138295 0.73119,0.138295 0.40512,0 0.72131,-0.138295 0.32607,-0.148167 0.55333,-0.39511 0.22726,-0.246944 0.34584,-0.58279 0.12845,-0.335844 0.12845,-0.721077 z m 0.71143,0 q 0,0.523523 -0.18774,0.968023 -0.17786,0.444497 -0.50393,0.770469 -0.32607,0.32597 -0.78059,0.51364 -0.44465,0.17781 -0.9881,0.17781 -0.53358,0 -0.9881,-0.17781 -0.44465,-0.18767 -0.77071,-0.51364 -0.32608,-0.325972 -0.51382,-0.770469 -0.17786,-0.4445 -0.17786,-0.968023 0,-0.52352 0.17786,-0.96802 0.18774,-0.4445 0.51382,-0.770467 0.32606,-0.325967 0.77071,-0.503767 0.45452,-0.187677 0.9881,-0.187677 0.54345,0 0.9881,0.187677 0.45452,0.1778 0.78059,0.503767 0.32607,0.325967 0.50393,0.770467 0.18774,0.4445 0.18774,0.96802 z m 6.08667,-1.718731 h -1.09679 v 4.030133 h -0.65214 v -4.030133 h -0.97821 v -0.592666 h 0.97821 v -1.264354 q 0,-0.918633 0.42488,-1.303867 Q 150.31319,93 151.01474,93 q 0.13833,0 0.27665,0.01976 0.14822,0.01976 0.28656,0.04939 l -0.11857,0.592667 q -0.11858,-0.02963 -0.24703,-0.04939 -0.12845,-0.01976 -0.2569,-0.01976 -0.26679,0 -0.43476,0.0889 -0.16798,0.0889 -0.25691,0.25682 -0.0889,0.158047 -0.11858,0.375357 -0.0296,0.21731 -0.0296,0.464254 v 1.185333 h 1.09679 z m 4.73298,1.718731 q 0,-0.385233 -0.12845,-0.721077 -0.11857,-0.335843 -0.34583,-0.582787 -0.22727,-0.246946 -0.55333,-0.385233 -0.3162,-0.148167 -0.72132,-0.148167 -0.40512,0 -0.73119,0.148167 -0.31619,0.138287 -0.54345,0.385233 -0.21738,0.246944 -0.34584,0.582787 -0.11857,0.335844 -0.11857,0.721077 0,0.385233 0.11857,0.721077 0.12846,0.335846 0.34584,0.58279 0.22726,0.246943 0.54345,0.39511 0.32607,0.138295 0.73119,0.138295 0.40512,0 0.72132,-0.138295 0.32606,-0.148167 0.55333,-0.39511 0.22726,-0.246944 0.34583,-0.58279 0.12845,-0.335844 0.12845,-0.721077 z m 0.71143,0 q 0,0.523523 -0.18774,0.968023 -0.17785,0.444497 -0.50392,0.770469 -0.32608,0.32597 -0.7806,0.51364 -0.44464,0.17781 -0.9881,0.17781 -0.53357,0 -0.9881,-0.17781 -0.44464,-0.18767 -0.77071,-0.51364 -0.32607,-0.325972 -0.51381,-0.770469 -0.17786,-0.4445 -0.17786,-0.968023 0,-0.52352 0.17786,-0.96802 0.18774,-0.4445 0.51381,-0.770467 0.32607,-0.325967 0.77071,-0.503767 0.45453,-0.187677 0.9881,-0.187677 0.54346,0 0.9881,0.187677 0.45452,0.1778 0.7806,0.503767 0.32607,0.325967 0.50392,0.770467 0.18774,0.4445 0.18774,0.96802 z m 1.25488,-0.869244 q 0,-0.30621 -0.0198,-0.6223 -0.01,-0.316087 -0.0198,-0.819853 h 0.64226 v 0.859366 h 0.0198 q 0.0691,-0.187679 0.19761,-0.3556 0.12845,-0.1778 0.30631,-0.316089 0.18774,-0.138288 0.42489,-0.217311 0.24702,-0.0889 0.55332,-0.0889 0.27667,0 0.48417,0.05927 l -0.12845,0.642054 q -0.12845,-0.04939 -0.37547,-0.04939 -0.37548,0 -0.64227,0.148166 -0.26679,0.138287 -0.44464,0.365477 -0.17786,0.21731 -0.26679,0.474134 -0.079,0.25682 -0.079,0.493887 v 2.607735 h -0.65215 z m 8.58657,0.879124 q -0.24703,0 -0.6225,0.02963 -0.3656,0.01976 -0.71143,0.118533 -0.33596,0.0889 -0.58298,0.286454 -0.23715,0.197556 -0.23715,0.543277 0,0.22719 0.0889,0.39511 0.0988,0.158046 0.25692,0.2667 0.15809,0.09878 0.34583,0.148168 0.19761,0.0395 0.39523,0.0395 0.35572,0 0.61262,-0.118535 0.26679,-0.118533 0.44465,-0.316089 0.17785,-0.207434 0.2569,-0.474134 0.0889,-0.276577 0.0889,-0.582787 v -0.335843 z m 0.33595,-0.5334 v -0.118534 q 0,-1.19521 -1.18572,-1.19521 -0.81024,0 -1.41297,0.543277 l -0.39524,-0.464257 q 0.65214,-0.671687 1.95643,-0.671687 0.33595,0 0.64226,0.09878 0.31619,0.09878 0.54346,0.306213 0.22726,0.197554 0.36559,0.503764 0.13834,0.306213 0.13834,0.730957 v 2.064453 q 0,0.2667 0.0198,0.563036 0.0296,0.28645 0.0593,0.47413 h -0.63238 q -0.0296,-0.16792 -0.0494,-0.36548 -0.01,-0.19755 -0.01,-0.385232 h -0.0198 q -0.28655,0.464262 -0.68179,0.671692 -0.38535,0.19756 -0.94856,0.19756 -0.30632,0 -0.59286,-0.0889 -0.28656,-0.079 -0.51381,-0.24695 -0.21739,-0.1778 -0.35572,-0.424745 -0.12846,-0.256824 -0.12846,-0.592667 0,-0.563033 0.28656,-0.879121 0.29642,-0.325966 0.73118,-0.48401 0.44465,-0.158046 0.9387,-0.197556 0.50393,-0.03951 0.91892,-0.03951 z m 2.63822,0.464253 q 0,0.365477 0.12845,0.691444 0.13834,0.31609 0.36559,0.563033 0.23715,0.237067 0.54346,0.385234 0.31619,0.138289 0.68179,0.138289 0.35571,0 0.6719,-0.128413 0.32607,-0.12841 0.5731,-0.355597 0.24702,-0.237067 0.37547,-0.563033 0.13834,-0.325967 0.12845,-0.730957 0,-0.365477 -0.11857,-0.681566 -0.11856,-0.325964 -0.34583,-0.563031 -0.22726,-0.246946 -0.55334,-0.385233 -0.32606,-0.148167 -0.73118,-0.148167 -0.3656,0 -0.68179,0.148167 -0.30631,0.138287 -0.54346,0.385233 -0.22725,0.237067 -0.36559,0.563031 -0.12845,0.316089 -0.12845,0.681566 z m -0.11858,3.299189 q 0.28656,0.38523 0.74108,0.61242 0.4644,0.23706 1.02761,0.23706 0.49405,0 0.83989,-0.14816 0.34584,-0.13829 0.55333,-0.38524 0.21738,-0.24694 0.30631,-0.58278 0.0988,-0.32597 0.0988,-0.70133 v -0.829738 h -0.0198 q -0.31618,0.474138 -0.77071,0.671698 -0.45453,0.19755 -0.95846,0.19755 -0.50392,0 -0.94857,-0.1778 -0.43477,-0.1778 -0.76083,-0.484015 -0.32608,-0.316087 -0.51382,-0.75071 -0.18773,-0.434621 -0.18773,-0.938387 0,-0.503767 0.17786,-0.938387 0.17786,-0.434623 0.48416,-0.76059 0.3162,-0.325967 0.74107,-0.503767 0.43476,-0.187677 0.94858,-0.187677 0.2075,0 0.43476,0.03951 0.23715,0.03951 0.4644,0.138289 0.23715,0.09878 0.46441,0.276577 0.22727,0.167923 0.42488,0.434623 h 0.0198 V 95.96333 h 0.65214 v 4.58329 q 0,0.37536 -0.0988,0.8001 -0.0889,0.42475 -0.36559,0.78035 -0.26679,0.3556 -0.75096,0.59266 -0.48416,0.23707 -1.26476,0.23707 -0.69166,0 -1.23511,-0.22719 -0.54346,-0.22719 -0.9881,-0.70132 z m 6.63012,-7.329317 q 0,0.207431 -0.14821,0.345721 -0.14822,0.12841 -0.32608,0.12841 -0.17786,0 -0.32606,-0.12841 -0.14822,-0.13829 -0.14822,-0.345721 0,-0.207433 0.14822,-0.335846 0.1482,-0.138287 0.32606,-0.138287 0.17786,0 0.32608,0.138287 0.14821,0.128413 0.14821,0.335846 z m -0.14821,6.400797 h -0.65214 v -4.622799 h 0.65214 z m 2.37143,0 H 177.555 v -7.467597 h 0.65214 z m 5.16774,-2.667002 q 0,-0.66181 -0.39524,-1.066797 -0.39524,-0.414867 -1.10667,-0.414867 -0.31619,0 -0.61262,0.12841 -0.29642,0.118534 -0.52369,0.325967 -0.21738,0.207433 -0.35571,0.474133 -0.12845,0.2667 -0.12845,0.553154 z m -3.14215,0.5334 q 0.0296,0.345723 0.16798,0.651933 0.13833,0.306211 0.36559,0.5334 0.22726,0.217311 0.5237,0.345721 0.29643,0.128418 0.64226,0.128418 0.52369,0 0.89917,-0.237072 0.38535,-0.246946 0.58298,-0.563033 l 0.50392,0.414866 q -0.41499,0.523529 -0.91893,0.750719 -0.49405,0.22719 -1.06714,0.22719 -0.51381,0 -0.95845,-0.17781 -0.43477,-0.18767 -0.75095,-0.51365 -0.3162,-0.325962 -0.50394,-0.770459 -0.17785,-0.4445 -0.17785,-0.968023 0,-0.52352 0.17785,-0.96802 0.17786,-0.4445 0.49405,-0.770467 0.31619,-0.325967 0.74107,-0.503767 0.42489,-0.187677 0.91893,-0.187677 0.5237,0 0.93869,0.187677 0.41501,0.18768 0.69168,0.503767 0.28654,0.30621 0.43476,0.730956 0.14821,0.414864 0.14821,0.888998 v 0.296333 z m 10.23669,-1.392764 q -0.14822,-0.286456 -0.39524,-0.45438 -0.24703,-0.16792 -0.60275,-0.16792 -0.16797,0 -0.34583,0.03951 -0.16797,0.03951 -0.30631,0.12841 -0.13833,0.07902 -0.22726,0.207434 -0.079,0.128413 -0.079,0.31609 0,0.325966 0.22726,0.474133 0.22726,0.148167 0.68178,0.25682 l 0.66203,0.158047 q 0.48417,0.108653 0.80035,0.4445 0.32608,0.325964 0.32608,0.819853 0,0.375354 -0.15809,0.651934 -0.14822,0.266705 -0.40513,0.444505 -0.24702,0.16792 -0.57309,0.24695 -0.32608,0.079 -0.66202,0.079 -0.53358,0 -0.99799,-0.19756 -0.45452,-0.20743 -0.78059,-0.701328 l 0.56321,-0.385231 q 0.19763,0.316087 0.49405,0.503764 0.30631,0.187685 0.72132,0.187685 0.19761,0 0.39523,-0.0395 0.19762,-0.0494 0.34584,-0.138292 0.15809,-0.09878 0.24702,-0.246947 0.0988,-0.148164 0.0988,-0.34572 0,-0.345723 -0.25691,-0.49389 -0.2569,-0.158043 -0.6225,-0.246943 l -0.63238,-0.148167 q -0.11857,-0.02963 -0.32607,-0.09878 -0.19762,-0.06914 -0.39524,-0.207433 -0.18774,-0.13829 -0.32607,-0.3556 -0.13833,-0.22719 -0.13833,-0.553154 0,-0.3556 0.13833,-0.6223 0.14821,-0.2667 0.38535,-0.434623 0.24703,-0.167921 0.55334,-0.246944 0.30631,-0.0889 0.63238,-0.0889 0.48417,0 0.89917,0.187677 0.415,0.18768 0.64227,0.642057 z m 5.72108,1.214964 q 0,-0.385233 -0.12845,-0.721077 -0.11858,-0.335843 -0.34585,-0.582787 -0.22725,-0.246946 -0.55333,-0.385233 -0.31619,-0.148167 -0.72131,-0.148167 -0.40512,0 -0.73118,0.148167 -0.3162,0.138287 -0.54346,0.385233 -0.21738,0.246944 -0.34583,0.582787 -0.11857,0.335844 -0.11857,0.721077 0,0.385233 0.11857,0.721077 0.12845,0.335846 0.34583,0.58279 0.22726,0.246943 0.54346,0.39511 0.32606,0.138295 0.73118,0.138295 0.40512,0 0.72131,-0.138295 0.32608,-0.148167 0.55333,-0.39511 0.22727,-0.246944 0.34585,-0.58279 0.12845,-0.335844 0.12845,-0.721077 z m 0.71143,0 q 0,0.523523 -0.18774,0.968023 -0.17786,0.444497 -0.50394,0.770459 -0.32606,0.32598 -0.78059,0.51365 -0.44464,0.17781 -0.9881,0.17781 -0.53357,0 -0.98809,-0.17781 -0.44464,-0.18767 -0.77072,-0.51365 -0.32607,-0.325962 -0.5138,-0.770459 -0.17786,-0.4445 -0.17786,-0.968023 0,-0.52352 0.17786,-0.96802 0.18773,-0.4445 0.5138,-0.770467 0.32608,-0.325967 0.77072,-0.503767 0.45452,-0.187677 0.98809,-0.187677 0.54346,0 0.9881,0.187677 0.45453,0.1778 0.78059,0.503767 0.32608,0.325967 0.50394,0.770467 0.18774,0.4445 0.18774,0.96802 z m 3.33977,-1.718731 h -1.09679 v 4.030133 h -0.65215 v -4.030133 h -0.97822 v -0.592666 h 0.97822 v -1.264354 q 0,-0.918633 0.42489,-1.303867 Q 199.34253,93 200.04407,93 q 0.13834,0 0.27667,0.01976 0.14822,0.01976 0.28655,0.04939 l -0.11857,0.592667 q -0.11857,-0.02963 -0.24702,-0.04939 -0.12846,-0.01976 -0.25691,-0.01976 -0.26678,0 -0.43476,0.0889 -0.16798,0.0889 -0.25691,0.25682 -0.0889,0.158047 -0.11857,0.375357 -0.0296,0.21731 -0.0296,0.464254 v 1.185333 h 1.09679 z m 3.16189,0 h -1.33393 v 2.726264 q 0,0.256823 0.0494,0.424744 0.0494,0.158043 0.13834,0.246943 0.0889,0.0889 0.20749,0.128412 0.12846,0.0296 0.27667,0.0296 0.16798,0 0.34584,-0.0494 0.17785,-0.0494 0.32607,-0.128409 l 0.0296,0.602549 q -0.3656,0.16793 -0.8794,0.16793 -0.18774,0 -0.39524,-0.0494 -0.19763,-0.0494 -0.3656,-0.18769 -0.16797,-0.13829 -0.27667,-0.37535 -0.10868,-0.237072 -0.10868,-0.622306 v -2.913941 h -0.97822 v -0.592666 h 0.97822 V 94.65941 h 0.65214 v 1.303867 h 1.33393 z m 1.08692,-0.592666 1.06714,3.753551 h 0.0198 l 1.23512,-3.753551 h 0.67191 l 1.23512,3.753551 h 0.0198 l 1.06714,-3.753551 h 0.77072 l -1.46239,4.622799 h -0.73118 l -1.22524,-3.793066 h -0.0198 l -1.22524,3.793066 h -0.7312 l -1.46238,-4.622799 z m 9.56478,2.321277 q -0.24704,0 -0.6225,0.02963 -0.36561,0.01976 -0.71143,0.118533 -0.33597,0.0889 -0.58298,0.286454 -0.23715,0.197556 -0.23715,0.543277 0,0.22719 0.0889,0.39511 0.0988,0.158046 0.25692,0.2667 0.15809,0.09878 0.34582,0.148168 0.19762,0.0395 0.39525,0.0395 0.35571,0 0.6126,-0.118535 0.26679,-0.118533 0.44465,-0.316089 0.17786,-0.207434 0.25691,-0.474134 0.0889,-0.276577 0.0889,-0.582787 v -0.335843 z m 0.33595,-0.5334 v -0.118534 q 0,-1.19521 -1.18571,-1.19521 -0.81024,0 -1.41299,0.543277 l -0.39524,-0.464257 q 0.65215,-0.671687 1.95643,-0.671687 0.33595,0 0.64228,0.09878 0.31617,0.09878 0.54345,0.306213 0.22724,0.197554 0.36559,0.503764 0.13833,0.306213 0.13833,0.730957 v 2.064453 q 0,0.2667 0.0198,0.563036 0.0296,0.28645 0.0593,0.47413 h -0.63237 q -0.0296,-0.16792 -0.0494,-0.36548 -0.01,-0.19755 -0.01,-0.385232 h -0.0198 q -0.28656,0.464262 -0.68179,0.671692 -0.38536,0.19756 -0.94857,0.19756 -0.30633,0 -0.59286,-0.0889 -0.28656,-0.079 -0.51383,-0.24695 -0.21737,-0.1778 -0.35571,-0.424745 -0.12845,-0.256824 -0.12845,-0.592667 0,-0.563033 0.28656,-0.879121 0.29642,-0.325966 0.73117,-0.48401 0.44465,-0.158046 0.93871,-0.197556 0.50392,-0.03951 0.91892,-0.03951 z m 2.23306,-0.345724 q 0,-0.30621 -0.0198,-0.6223 -0.01,-0.316087 -0.0198,-0.819853 h 0.64227 v 0.859366 h 0.0198 q 0.0692,-0.187679 0.19764,-0.3556 0.12844,-0.1778 0.3063,-0.316089 0.18776,-0.138288 0.42489,-0.217311 0.24702,-0.0889 0.55332,-0.0889 0.27669,0 0.48419,0.05927 l -0.12847,0.642054 q -0.12845,-0.04939 -0.37546,-0.04939 -0.37549,0 -0.64227,0.148166 -0.26679,0.138287 -0.44465,0.365477 -0.17785,0.21731 -0.26678,0.474134 -0.079,0.25682 -0.079,0.493887 v 2.607735 h -0.65215 z m 6.63014,0.513644 q 0,-0.66181 -0.39522,-1.066797 -0.39523,-0.414867 -1.10666,-0.414867 -0.3162,0 -0.61264,0.12841 -0.29643,0.118534 -0.52367,0.325967 -0.2174,0.207433 -0.35571,0.474133 -0.12848,0.2667 -0.12848,0.553154 z m -3.14212,0.5334 q 0.0296,0.345723 0.16796,0.651933 0.13835,0.306211 0.36561,0.5334 0.22724,0.217311 0.52368,0.345721 0.29643,0.128418 0.64227,0.128418 0.5237,0 0.89916,-0.237072 0.38535,-0.246946 0.58299,-0.563033 l 0.50393,0.414866 q -0.415,0.523529 -0.91894,0.750719 -0.49406,0.22719 -1.06714,0.22719 -0.5138,0 -0.95844,-0.17781 -0.43477,-0.18767 -0.75097,-0.51365 -0.31618,-0.325962 -0.50394,-0.770459 -0.17786,-0.4445 -0.17786,-0.968023 0,-0.52352 0.17786,-0.96802 0.17786,-0.4445 0.49406,-0.770467 0.3162,-0.325967 0.74107,-0.503767 0.42488,-0.187677 0.91894,-0.187677 0.5237,0 0.93867,0.187677 0.415,0.18768 0.69169,0.503767 0.28653,0.30621 0.43474,0.730956 0.14821,0.414864 0.14821,0.888998 v 0.296333 z m 8.18142,-0.1778 q 0,0.385233 0.11857,0.721077 0.12847,0.335846 0.35572,0.58279 0.22727,0.246943 0.54347,0.39511 0.32607,0.138295 0.73117,0.138295 0.39526,0 0.7312,-0.138295 0.34585,-0.148167 0.59286,-0.39511 0.24702,-0.246944 0.38536,-0.58279 0.13835,-0.335844 0.13835,-0.721077 0,-0.385233 -0.13835,-0.721077 -0.13834,-0.335843 -0.38536,-0.582787 -0.24701,-0.246946 -0.59286,-0.385233 -0.33594,-0.148167 -0.7312,-0.148167 -0.4051,0 -0.73117,0.148167 -0.3162,0.138287 -0.54347,0.385233 -0.22725,0.246944 -0.35572,0.582787 -0.11857,0.335844 -0.11857,0.721077 z m 4.2192,2.311402 h -0.65215 v -0.770469 h -0.0198 q -0.15809,0.237069 -0.37549,0.404989 -0.21737,0.16793 -0.45451,0.27658 -0.23715,0.10866 -0.49406,0.15805 -0.24702,0.0494 -0.47429,0.0494 -0.54344,0 -0.99795,-0.17781 -0.44465,-0.18767 -0.77072,-0.51365 -0.32608,-0.325962 -0.51383,-0.770459 -0.17786,-0.4445 -0.17786,-0.968023 0,-0.52352 0.17786,-0.96802 0.18775,-0.4445 0.51383,-0.770467 0.32607,-0.325967 0.77072,-0.503767 0.45451,-0.187677 0.99795,-0.187677 0.22727,0 0.47429,0.04939 0.25691,0.04939 0.49406,0.158044 0.23714,0.108656 0.45451,0.276577 0.2174,0.167923 0.37549,0.404989 h 0.0198 v -3.615274 h 0.65215 z m 5.01949,-2.667002 q 0,-0.66181 -0.39523,-1.066797 -0.39523,-0.414867 -1.10666,-0.414867 -0.3162,0 -0.61262,0.12841 -0.29644,0.118534 -0.52368,0.325967 -0.2174,0.207433 -0.35572,0.474133 -0.12847,0.2667 -0.12847,0.553154 z m -3.14213,0.5334 q 0.0296,0.345723 0.16797,0.651933 0.13834,0.306211 0.36561,0.5334 0.22725,0.217311 0.52368,0.345721 0.29642,0.128418 0.64226,0.128418 0.52368,0 0.89916,-0.237072 0.38537,-0.246946 0.58299,-0.563033 l 0.50393,0.414866 q -0.415,0.523529 -0.91893,0.750719 -0.49405,0.22719 -1.06715,0.22719 -0.51382,0 -0.95844,-0.17781 -0.43477,-0.18767 -0.75097,-0.51365 -0.31617,-0.325962 -0.50393,-0.770459 -0.17786,-0.4445 -0.17786,-0.968023 0,-0.52352 0.17786,-0.96802 0.17785,-0.4445 0.49406,-0.770467 0.3162,-0.325967 0.74107,-0.503767 0.42487,-0.187677 0.91893,-0.187677 0.52367,0 0.93868,0.187677 0.41499,0.18768 0.69168,0.503767 0.28653,0.30621 0.43474,0.730956 0.14822,0.414864 0.14822,0.888998 v 0.296333 z m 7.07477,2.133602 h -0.73121 l -1.87737,-4.622799 h 0.78059 l 1.47228,3.891841 h 0.0198 l 1.47225,-3.891841 h 0.74107 z m 6.32383,-2.667002 q 0,-0.66181 -0.39525,-1.066797 -0.39523,-0.414867 -1.10666,-0.414867 -0.3162,0 -0.61263,0.12841 -0.29643,0.118534 -0.52368,0.325967 -0.21739,0.207433 -0.35571,0.474133 -0.12847,0.2667 -0.12847,0.553154 z m -3.14214,0.5334 q 0.0296,0.345723 0.16795,0.651933 0.13835,0.306211 0.36562,0.5334 0.22724,0.217311 0.52367,0.345721 0.29644,0.128418 0.64228,0.128418 0.5237,0 0.89916,-0.237072 0.38535,-0.246946 0.58298,-0.563033 l 0.50393,0.414866 q -0.415,0.523529 -0.91893,0.750719 -0.49406,0.22719 -1.06714,0.22719 -0.51381,0 -0.95845,-0.17781 -0.43477,-0.18767 -0.75097,-0.51365 -0.31618,-0.325962 -0.50393,-0.770459 -0.17786,-0.4445 -0.17786,-0.968023 0,-0.52352 0.17786,-0.96802 0.17786,-0.4445 0.49405,-0.770467 0.3162,-0.325967 0.74108,-0.503767 0.42487,-0.187677 0.91893,-0.187677 0.5237,0 0.9387,0.187677 0.415,0.18768 0.69166,0.503767 0.28656,0.30621 0.43477,0.730956 0.14821,0.414864 0.14821,0.888998 v 0.296333 z m 5.83963,2.133602 h -0.65215 v -7.467597 h 0.65215 z m 5.53334,-2.311402 q 0,-0.385233 -0.12847,-0.721077 -0.11857,-0.335843 -0.34581,-0.582787 -0.22727,-0.246946 -0.55335,-0.385233 -0.31619,-0.148167 -0.72129,-0.148167 -0.40513,0 -0.73121,0.148167 -0.3162,0.138287 -0.54344,0.385233 -0.21737,0.246944 -0.34584,0.582787 -0.11857,0.335844 -0.11857,0.721077 0,0.385233 0.11857,0.721077 0.12847,0.335846 0.34584,0.58279 0.22724,0.246943 0.54344,0.39511 0.32608,0.138295 0.73121,0.138295 0.4051,0 0.72129,-0.138295 0.32608,-0.148167 0.55335,-0.39511 0.22724,-0.246944 0.34581,-0.58279 0.12847,-0.335844 0.12847,-0.721077 z m 0.71143,0 q 0,0.523523 -0.18775,0.968023 -0.17785,0.444497 -0.50393,0.770459 -0.32607,0.32598 -0.78059,0.51365 -0.44465,0.17781 -0.98808,0.17781 -0.53357,0 -0.98812,-0.17781 -0.44461,-0.18767 -0.77069,-0.51365 -0.32607,-0.325962 -0.51383,-0.770459 -0.17785,-0.4445 -0.17785,-0.968023 0,-0.52352 0.17785,-0.96802 0.18776,-0.4445 0.51383,-0.770467 0.32608,-0.325967 0.77069,-0.503767 0.45455,-0.187677 0.98812,-0.187677 0.54343,0 0.98808,0.187677 0.45452,0.1778 0.78059,0.503767 0.32608,0.325967 0.50393,0.770467 0.18775,0.4445 0.18775,0.96802 z m 5.40489,0 q 0,-0.385233 -0.12844,-0.721077 -0.11858,-0.335843 -0.34585,-0.582787 -0.22727,-0.246946 -0.55334,-0.385233 -0.31617,-0.148167 -0.7213,-0.148167 -0.4051,0 -0.74107,0.148167 -0.33595,0.138287 -0.58296,0.385233 -0.24705,0.246944 -0.38537,0.582787 -0.13833,0.335844 -0.13833,0.721077 0,0.385233 0.13833,0.721077 0.13832,0.335846 0.38537,0.58279 0.24701,0.246943 0.58296,0.39511 0.33597,0.138295 0.74107,0.138295 0.40513,0 0.7213,-0.138295 0.32607,-0.148167 0.55334,-0.39511 0.22727,-0.246944 0.34585,-0.58279 0.12844,-0.335844 0.12844,-0.721077 z m -4.21916,-2.311397 h 0.65214 v 0.770466 h 0.0198 q 0.1581,-0.237066 0.37547,-0.404989 0.2174,-0.167921 0.45454,-0.276577 0.23714,-0.108657 0.48416,-0.158044 0.25691,-0.04939 0.48416,-0.04939 0.54344,0 0.98809,0.187677 0.45453,0.1778 0.78061,0.503767 0.32607,0.325967 0.50393,0.770467 0.18773,0.4445 0.18773,0.96802 0,0.523523 -0.18773,0.968023 -0.17786,0.444497 -0.50393,0.770459 -0.32608,0.32598 -0.78061,0.51365 -0.44465,0.17781 -0.98809,0.17781 -0.22725,0 -0.48416,-0.0494 -0.24702,-0.0494 -0.48416,-0.15805 -0.23714,-0.10865 -0.45454,-0.27658 -0.21737,-0.16792 -0.37547,-0.404989 h -0.0198 v 3.615269 h -0.65214 z m 6.03725,1.027287 q 0,-0.256821 -0.0198,-0.513644 -0.01,-0.25682 -0.0296,-0.513643 h 0.70156 v 0.70132 h 0.0198 q 0.23713,-0.404987 0.65214,-0.61242 0.42487,-0.207434 0.83987,-0.207434 0.18773,0 0.39524,0.03951 0.21739,0.03951 0.41499,0.148166 0.19763,0.09878 0.36562,0.286457 0.17786,0.187677 0.29642,0.48401 0.19761,-0.4445 0.62251,-0.701321 0.43475,-0.256823 0.89916,-0.256823 0.88928,0 1.31416,0.474134 0.42487,0.464253 0.42487,1.333497 v 2.933703 h -0.65214 v -2.696636 q 0,-0.701321 -0.24702,-1.076677 -0.24701,-0.375354 -0.91893,-0.375354 -0.36559,0 -0.61261,0.148167 -0.24704,0.138287 -0.40512,0.375353 -0.14822,0.237067 -0.21738,0.543277 -0.0692,0.296334 -0.0692,0.6223 v 2.45957 h -0.65214 v -2.696636 q 0,-0.701321 -0.24702,-1.076677 -0.24701,-0.375354 -0.91893,-0.375354 -0.0593,0 -0.27666,0.03951 -0.2075,0.03951 -0.43477,0.21731 -0.22727,0.1778 -0.415,0.5334 -0.17786,0.3556 -0.17786,0.987777 v 2.37067 h -0.65214 z m 12.01525,0.92851 q 0,-0.66181 -0.39523,-1.066797 -0.39525,-0.414867 -1.10668,-0.414867 -0.31618,0 -0.61261,0.12841 -0.29643,0.118534 -0.5237,0.325967 -0.21737,0.207433 -0.35572,0.474133 -0.12844,0.2667 -0.12844,0.553154 z m -3.14214,0.5334 q 0.0296,0.345723 0.16798,0.651933 0.13832,0.306211 0.36559,0.5334 0.22726,0.217311 0.5237,0.345721 0.29642,0.128418 0.64224,0.128418 0.52371,0 0.89919,-0.237072 0.38535,-0.246946 0.58296,-0.563033 l 0.50393,0.414866 q -0.41501,0.523529 -0.91894,0.750719 -0.49403,0.22719 -1.06714,0.22719 -0.5138,0 -0.95844,-0.17781 -0.43477,-0.18767 -0.75095,-0.51365 -0.3162,-0.325962 -0.50393,-0.770459 -0.17786,-0.4445 -0.17786,-0.968023 0,-0.52352 0.17786,-0.96802 0.17786,-0.4445 0.49403,-0.770467 0.3162,-0.325967 0.74107,-0.503767 0.42491,-0.187677 0.91894,-0.187677 0.5237,0 0.9387,0.187677 0.41499,0.18768 0.69165,0.503767 0.28657,0.30621 0.43477,0.730956 0.14822,0.414864 0.14822,0.888998 v 0.296333 z m 5.66177,-2.489197 q 0.0198,0.187677 0.0198,0.375356 0.01,0.177797 0.01,0.365477 h 0.0198 q 0.10871,-0.18768 0.27666,-0.345723 0.16799,-0.158044 0.37549,-0.2667 0.2075,-0.118533 0.43477,-0.1778 0.23714,-0.06914 0.46439,-0.06914 0.88929,0 1.31419,0.474134 0.42487,0.464253 0.42487,1.333497 v 2.933698 h -0.65214 v -2.558342 q 0,-0.770466 -0.26679,-1.175453 -0.26679,-0.414867 -0.98809,-0.414867 -0.0494,0 -0.27668,0.03951 -0.22725,0.03951 -0.48417,0.21731 -0.24701,0.1778 -0.44464,0.5334 -0.19762,0.3556 -0.19762,0.987777 v 2.370665 h -0.65214 v -3.605385 q 0,-0.187677 -0.0199,-0.474133 -0.01,-0.286454 -0.0296,-0.543277 z m 7.2625,0.592666 h -1.33393 v 2.726264 q 0,0.256823 0.0494,0.424744 0.0494,0.158043 0.13834,0.246943 0.0889,0.0889 0.2075,0.128412 0.12844,0.0296 0.27666,0.0296 0.16798,0 0.34584,-0.0494 0.17786,-0.0494 0.32608,-0.128409 l 0.0296,0.602549 q -0.36561,0.16793 -0.87942,0.16793 -0.18773,0 -0.39522,-0.0494 -0.19764,-0.0494 -0.36562,-0.18769 -0.16796,-0.13829 -0.27666,-0.37535 -0.1087,-0.237072 -0.1087,-0.622306 v -2.913941 h -0.97821 v -0.592666 h 0.97821 V 94.65941 h 0.65214 v 1.303867 h 1.33393 z"
       id="text5"
       aria-label="A one-principle manifesto for agile software development" />
  </g>
</svg>
